STARTFONT 2.1
COMMENT
COMMENT   12x12 Chinese Character set.
COMMENT
COMMENT   Contributor: Institute of Software, Academia Sinica
COMMENT
FONT noah_12
SIZE 12 75 75
FONTBOUNDINGBOX 12 14 0 0
STARTPROPERTIES 11
COMMENT ****** LogicalFontDescription Begin
WEIGHT_NAME "Medium"
SETWIDTH_NAME "Normal"
FONTNAME_REGISTRY ""
DEFAULT_CHAR 0
FAMILY_NAME "Chinese Character"
FOUNDRY "ISAS"
CHARSET_REGISTRY "ISO10646"
COPYRIGHT "Public domain Chinese Character font, share and enjor"
FONT_ASCENT 12
FONT_DESCENT 0
COMMENT ****** LogicalFontDescription End
CHARSET_COLLECTIONS "ASCII ISO8859-5 GB2312.1980 BIG5-0 KSC5601.1989-0 JISX0208.1997 ISO10646-1"
ENDPROPERTIES
CHARS 24729
STARTCHAR bm_0x0
ENCODING 0
SWIDTH 461 0
DWIDTH 6 0
BBX 6 12 0 0
BITMAP
00
00
00
00
00
00
00
00
00
00
00
00
ENDCHAR
STARTCHAR bm_0x20
ENCODING 32
SWIDTH 461 0
DWIDTH 6 0
BBX 4 12 0 0
BITMAP
00
00
00
00
00
00
00
00
00
00
00
00
ENDCHAR
STARTCHAR bm_0x21
ENCODING 33
SWIDTH 461 0
DWIDTH 3 0
BBX 1 12 0 0
BITMAP
00
00
80
80
80
80
80
80
00
80
00
00
ENDCHAR
STARTCHAR bm_0x22
ENCODING 34
SWIDTH 461 0
DWIDTH 5 0
BBX 3 12 0 0
BITMAP
00
00
A0
A0
A0
00
00
00
00
00
00
00
ENDCHAR
STARTCHAR bm_0x23
ENCODING 35
SWIDTH 461 0
DWIDTH 7 0
BBX 5 12 0 0
BITMAP
00
00
28
28
F8
50
50
F8
A0
A0
00
00
ENDCHAR
STARTCHAR bm_0x24
ENCODING 36
SWIDTH 461 0
DWIDTH 7 0
BBX 5 12 0 0
BITMAP
00
00
70
A8
A0
70
28
28
A8
70
20
00
ENDCHAR
STARTCHAR bm_0x25
ENCODING 37
SWIDTH 461 0
DWIDTH 11 0
BBX 9 12 0 0
BITMAP
0000
0000
6200
9400
9400
6800
0B00
1480
1480
2300
0000
0000
ENDCHAR
STARTCHAR bm_0x26
ENCODING 38
SWIDTH 461 0
DWIDTH 8 0
BBX 6 12 0 0
BITMAP
00
00
30
48
48
30
50
8C
88
74
00
00
ENDCHAR
STARTCHAR bm_0x27
ENCODING 39
SWIDTH 461 0
DWIDTH 3 0
BBX 1 12 0 0
BITMAP
00
00
80
80
80
00
00
00
00
00
00
00
ENDCHAR
STARTCHAR bm_0x28
ENCODING 40
SWIDTH 461 0
DWIDTH 5 0
BBX 3 12 0 0
BITMAP
00
00
20
40
80
80
80
80
80
80
40
20
ENDCHAR
STARTCHAR bm_0x29
ENCODING 41
SWIDTH 461 0
DWIDTH 5 0
BBX 3 12 0 0
BITMAP
00
00
80
40
20
20
20
20
20
20
40
80
ENDCHAR
STARTCHAR bm_0x2A
ENCODING 42
SWIDTH 461 0
DWIDTH 5 0
BBX 3 12 0 0
BITMAP
00
00
40
E0
40
A0
00
00
00
00
00
00
ENDCHAR
STARTCHAR bm_0x2B
ENCODING 43
SWIDTH 461 0
DWIDTH 7 0
BBX 5 12 0 0
BITMAP
00
00
00
00
20
20
F8
20
20
00
00
00
ENDCHAR
STARTCHAR bm_0x2C
ENCODING 44
SWIDTH 461 0
DWIDTH 4 0
BBX 2 12 0 0
BITMAP
00
00
00
00
00
00
00
00
C0
C0
40
80
ENDCHAR
STARTCHAR bm_0x2D
ENCODING 45
SWIDTH 461 0
DWIDTH 5 0
BBX 3 12 0 0
BITMAP
00
00
00
00
00
00
E0
00
00
00
00
00
ENDCHAR
STARTCHAR bm_0x2E
ENCODING 46
SWIDTH 461 0
DWIDTH 4 0
BBX 2 12 0 0
BITMAP
00
00
00
00
00
00
00
00
C0
C0
00
00
ENDCHAR
STARTCHAR bm_0x2F
ENCODING 47
SWIDTH 461 0
DWIDTH 5 0
BBX 3 12 0 0
BITMAP
00
00
20
20
40
40
40
40
80
80
00
00
ENDCHAR
STARTCHAR bm_0x30
ENCODING 48
SWIDTH 461 0
DWIDTH 7 0
BBX 5 12 0 0
BITMAP
00
00
70
88
88
88
88
88
88
70
00
00
ENDCHAR
STARTCHAR bm_0x31
ENCODING 49
SWIDTH 461 0
DWIDTH 5 0
BBX 3 12 0 0
BITMAP
00
00
20
60
A0
20
20
20
20
20
00
00
ENDCHAR
STARTCHAR bm_0x32
ENCODING 50
SWIDTH 461 0
DWIDTH 7 0
BBX 5 12 0 0
BITMAP
00
00
70
88
08
08
10
20
40
F8
00
00
ENDCHAR
STARTCHAR bm_0x33
ENCODING 51
SWIDTH 461 0
DWIDTH 7 0
BBX 5 12 0 0
BITMAP
00
00
70
88
08
30
08
08
88
70
00
00
ENDCHAR
STARTCHAR bm_0x34
ENCODING 52
SWIDTH 461 0
DWIDTH 7 0
BBX 5 12 0 0
BITMAP
00
00
10
30
50
50
90
F8
10
10
00
00
ENDCHAR
STARTCHAR bm_0x35
ENCODING 53
SWIDTH 461 0
DWIDTH 7 0
BBX 5 12 0 0
BITMAP
00
00
78
40
80
F0
08
08
88
70
00
00
ENDCHAR
STARTCHAR bm_0x36
ENCODING 54
SWIDTH 461 0
DWIDTH 7 0
BBX 5 12 0 0
BITMAP
00
00
70
88
80
F0
88
88
88
70
00
00
ENDCHAR
STARTCHAR bm_0x37
ENCODING 55
SWIDTH 461 0
DWIDTH 7 0
BBX 5 12 0 0
BITMAP
00
00
F8
10
10
20
20
40
40
40
00
00
ENDCHAR
STARTCHAR bm_0x38
ENCODING 56
SWIDTH 461 0
DWIDTH 7 0
BBX 5 12 0 0
BITMAP
00
00
70
88
88
70
88
88
88
70
00
00
ENDCHAR
STARTCHAR bm_0x39
ENCODING 57
SWIDTH 461 0
DWIDTH 7 0
BBX 5 12 0 0
BITMAP
00
00
70
88
88
88
78
08
88
70
00
00
ENDCHAR
STARTCHAR bm_0x3A
ENCODING 58
SWIDTH 461 0
DWIDTH 4 0
BBX 2 12 0 0
BITMAP
00
00
00
00
C0
C0
00
00
C0
C0
00
00
ENDCHAR
STARTCHAR bm_0x3B
ENCODING 59
SWIDTH 461 0
DWIDTH 4 0
BBX 2 12 0 0
BITMAP
00
00
00
00
C0
C0
00
00
C0
C0
40
80
ENDCHAR
STARTCHAR bm_0x3C
ENCODING 60
SWIDTH 461 0
DWIDTH 7 0
BBX 5 12 0 0
BITMAP
00
00
00
00
08
70
80
70
08
00
00
00
ENDCHAR
STARTCHAR bm_0x3D
ENCODING 61
SWIDTH 461 0
DWIDTH 7 0
BBX 5 12 0 0
BITMAP
00
00
00
00
00
F8
00
F8
00
00
00
00
ENDCHAR
STARTCHAR bm_0x3E
ENCODING 62
SWIDTH 461 0
DWIDTH 7 0
BBX 5 12 0 0
BITMAP
00
00
00
00
80
70
08
70
80
00
00
00
ENDCHAR
STARTCHAR bm_0x3F
ENCODING 63
SWIDTH 461 0
DWIDTH 7 0
BBX 5 12 0 0
BITMAP
00
00
70
88
08
10
20
20
00
20
00
00
ENDCHAR
STARTCHAR bm_0x40
ENCODING 64
SWIDTH 461 0
DWIDTH 12 0
BBX 10 12 0 0
BITMAP
0000
0000
1F00
6080
4D40
9340
A240
A240
A680
9B00
4040
3F80
ENDCHAR
STARTCHAR bm_0x41
ENCODING 65
SWIDTH 461 0
DWIDTH 9 0
BBX 7 12 0 0
BITMAP
00
00
10
28
28
28
44
7C
82
82
00
00
ENDCHAR
STARTCHAR bm_0x42
ENCODING 66
SWIDTH 461 0
DWIDTH 8 0
BBX 6 12 0 0
BITMAP
00
00
F8
84
84
FC
84
84
84
F8
00
00
ENDCHAR
STARTCHAR bm_0x43
ENCODING 67
SWIDTH 461 0
DWIDTH 8 0
BBX 6 12 0 0
BITMAP
00
00
38
44
80
80
80
80
44
38
00
00
ENDCHAR
STARTCHAR bm_0x44
ENCODING 68
SWIDTH 461 0
DWIDTH 8 0
BBX 6 12 0 0
BITMAP
00
00
F0
88
84
84
84
84
88
F0
00
00
ENDCHAR
STARTCHAR bm_0x45
ENCODING 69
SWIDTH 461 0
DWIDTH 7 0
BBX 5 12 0 0
BITMAP
00
00
F8
80
80
F8
80
80
80
F8
00
00
ENDCHAR
STARTCHAR bm_0x46
ENCODING 70
SWIDTH 461 0
DWIDTH 7 0
BBX 5 12 0 0
BITMAP
00
00
F8
80
80
F0
80
80
80
80
00
00
ENDCHAR
STARTCHAR bm_0x47
ENCODING 71
SWIDTH 461 0
DWIDTH 9 0
BBX 7 12 0 0
BITMAP
00
00
38
44
82
80
8E
82
44
38
00
00
ENDCHAR
STARTCHAR bm_0x48
ENCODING 72
SWIDTH 461 0
DWIDTH 8 0
BBX 6 12 0 0
BITMAP
00
00
84
84
84
FC
84
84
84
84
00
00
ENDCHAR
STARTCHAR bm_0x49
ENCODING 73
SWIDTH 461 0
DWIDTH 5 0
BBX 3 12 0 0
BITMAP
00
00
E0
40
40
40
40
40
40
E0
00
00
ENDCHAR
STARTCHAR bm_0x4A
ENCODING 74
SWIDTH 461 0
DWIDTH 6 0
BBX 4 12 0 0
BITMAP
00
00
10
10
10
10
10
90
90
60
00
00
ENDCHAR
STARTCHAR bm_0x4B
ENCODING 75
SWIDTH 461 0
DWIDTH 8 0
BBX 6 12 0 0
BITMAP
00
00
84
88
90
B0
D0
88
88
84
00
00
ENDCHAR
STARTCHAR bm_0x4C
ENCODING 76
SWIDTH 461 0
DWIDTH 7 0
BBX 5 12 0 0
BITMAP
00
00
80
80
80
80
80
80
80
F8
00
00
ENDCHAR
STARTCHAR bm_0x4D
ENCODING 77
SWIDTH 461 0
DWIDTH 9 0
BBX 7 12 0 0
BITMAP
00
00
82
C6
C6
AA
AA
AA
92
92
00
00
ENDCHAR
STARTCHAR bm_0x4E
ENCODING 78
SWIDTH 461 0
DWIDTH 8 0
BBX 6 12 0 0
BITMAP
00
00
84
C4
A4
A4
94
94
8C
84
00
00
ENDCHAR
STARTCHAR bm_0x4F
ENCODING 79
SWIDTH 461 0
DWIDTH 9 0
BBX 7 12 0 0
BITMAP
00
00
38
44
82
82
82
82
44
38
00
00
ENDCHAR
STARTCHAR bm_0x50
ENCODING 80
SWIDTH 461 0
DWIDTH 7 0
BBX 5 12 0 0
BITMAP
00
00
F0
88
88
88
F0
80
80
80
00
00
ENDCHAR
STARTCHAR bm_0x51
ENCODING 81
SWIDTH 461 0
DWIDTH 9 0
BBX 7 12 0 0
BITMAP
00
00
38
44
82
82
82
9A
44
3A
00
00
ENDCHAR
STARTCHAR bm_0x52
ENCODING 82
SWIDTH 461 0
DWIDTH 8 0
BBX 6 12 0 0
BITMAP
00
00
F8
84
84
F8
90
88
88
84
00
00
ENDCHAR
STARTCHAR bm_0x53
ENCODING 83
SWIDTH 461 0
DWIDTH 8 0
BBX 6 12 0 0
BITMAP
00
00
78
84
80
60
18
04
84
78
00
00
ENDCHAR
STARTCHAR bm_0x54
ENCODING 84
SWIDTH 461 0
DWIDTH 7 0
BBX 5 12 0 0
BITMAP
00
00
F8
20
20
20
20
20
20
20
00
00
ENDCHAR
STARTCHAR bm_0x55
ENCODING 85
SWIDTH 461 0
DWIDTH 8 0
BBX 6 12 0 0
BITMAP
00
00
84
84
84
84
84
84
84
78
00
00
ENDCHAR
STARTCHAR bm_0x56
ENCODING 86
SWIDTH 461 0
DWIDTH 9 0
BBX 7 12 0 0
BITMAP
00
00
82
82
44
44
28
28
10
10
00
00
ENDCHAR
STARTCHAR bm_0x57
ENCODING 87
SWIDTH 461 0
DWIDTH 12 0
BBX 12 12 0 0
BITMAP
0000
0000
8420
8A20
4A40
4A40
5140
5140
2080
2080
0000
0000
ENDCHAR
STARTCHAR bm_0x58
ENCODING 88
SWIDTH 461 0
DWIDTH 8 0
BBX 6 12 0 0
BITMAP
00
00
84
48
48
30
30
48
48
84
00
00
ENDCHAR
STARTCHAR bm_0x59
ENCODING 89
SWIDTH 461 0
DWIDTH 9 0
BBX 7 12 0 0
BITMAP
00
00
82
44
44
28
10
10
10
10
00
00
ENDCHAR
STARTCHAR bm_0x5A
ENCODING 90
SWIDTH 461 0
DWIDTH 8 0
BBX 6 12 0 0
BITMAP
00
00
7C
08
10
10
20
20
40
FC
00
00
ENDCHAR
STARTCHAR bm_0x5B
ENCODING 91
SWIDTH 461 0
DWIDTH 4 0
BBX 2 12 0 0
BITMAP
00
00
C0
80
80
80
80
80
80
80
80
C0
ENDCHAR
STARTCHAR bm_0x5C
ENCODING 92
SWIDTH 461 0
DWIDTH 5 0
BBX 3 12 0 0
BITMAP
00
00
80
80
40
40
40
40
20
20
00
00
ENDCHAR
STARTCHAR bm_0x5D
ENCODING 93
SWIDTH 461 0
DWIDTH 4 0
BBX 2 12 0 0
BITMAP
00
00
C0
40
40
40
40
40
40
40
40
C0
ENDCHAR
STARTCHAR bm_0x5E
ENCODING 94
SWIDTH 461 0
DWIDTH 7 0
BBX 5 12 0 0
BITMAP
00
00
20
50
50
88
00
00
00
00
00
00
ENDCHAR
STARTCHAR bm_0x5F
ENCODING 95
SWIDTH 461 0
DWIDTH 8 0
BBX 6 12 0 0
BITMAP
00
00
00
00
00
00
00
00
00
00
00
FC
ENDCHAR
STARTCHAR bm_0x60
ENCODING 96
SWIDTH 461 0
DWIDTH 4 0
BBX 2 12 0 0
BITMAP
00
00
80
40
00
00
00
00
00
00
00
00
ENDCHAR
STARTCHAR bm_0x61
ENCODING 97
SWIDTH 461 0
DWIDTH 7 0
BBX 5 12 0 0
BITMAP
00
00
00
00
70
88
78
88
98
68
00
00
ENDCHAR
STARTCHAR bm_0x62
ENCODING 98
SWIDTH 461 0
DWIDTH 7 0
BBX 5 12 0 0
BITMAP
00
00
80
80
B0
C8
88
88
C8
B0
00
00
ENDCHAR
STARTCHAR bm_0x63
ENCODING 99
SWIDTH 461 0
DWIDTH 7 0
BBX 5 12 0 0
BITMAP
00
00
00
00
70
88
80
80
88
70
00
00
ENDCHAR
STARTCHAR bm_0x64
ENCODING 100
SWIDTH 461 0
DWIDTH 7 0
BBX 5 12 0 0
BITMAP
00
00
08
08
68
98
88
88
98
68
00
00
ENDCHAR
STARTCHAR bm_0x65
ENCODING 101
SWIDTH 461 0
DWIDTH 7 0
BBX 5 12 0 0
BITMAP
00
00
00
00
70
88
F8
80
88
70
00
00
ENDCHAR
STARTCHAR bm_0x66
ENCODING 102
SWIDTH 461 0
DWIDTH 5 0
BBX 3 12 0 0
BITMAP
00
00
20
40
E0
40
40
40
40
40
00
00
ENDCHAR
STARTCHAR bm_0x67
ENCODING 103
SWIDTH 461 0
DWIDTH 7 0
BBX 5 12 0 0
BITMAP
00
00
00
00
68
98
88
88
98
68
08
F0
ENDCHAR
STARTCHAR bm_0x68
ENCODING 104
SWIDTH 461 0
DWIDTH 7 0
BBX 5 12 0 0
BITMAP
00
00
80
80
B0
C8
88
88
88
88
00
00
ENDCHAR
STARTCHAR bm_0x69
ENCODING 105
SWIDTH 461 0
DWIDTH 3 0
BBX 1 12 0 0
BITMAP
00
00
80
00
80
80
80
80
80
80
00
00
ENDCHAR
STARTCHAR bm_0x6A
ENCODING 106
SWIDTH 461 0
DWIDTH 4 0
BBX 2 12 0 0
BITMAP
00
00
40
00
40
40
40
40
40
40
40
80
ENDCHAR
STARTCHAR bm_0x6B
ENCODING 107
SWIDTH 461 0
DWIDTH 6 0
BBX 4 12 0 0
BITMAP
00
00
80
80
90
A0
C0
A0
A0
90
00
00
ENDCHAR
STARTCHAR bm_0x6C
ENCODING 108
SWIDTH 461 0
DWIDTH 3 0
BBX 1 12 0 0
BITMAP
00
00
80
80
80
80
80
80
80
80
00
00
ENDCHAR
STARTCHAR bm_0x6D
ENCODING 109
SWIDTH 461 0
DWIDTH 9 0
BBX 7 12 0 0
BITMAP
00
00
00
00
BC
D2
92
92
92
92
00
00
ENDCHAR
STARTCHAR bm_0x6E
ENCODING 110
SWIDTH 461 0
DWIDTH 7 0
BBX 5 12 0 0
BITMAP
00
00
00
00
F0
88
88
88
88
88
00
00
ENDCHAR
STARTCHAR bm_0x6F
ENCODING 111
SWIDTH 461 0
DWIDTH 7 0
BBX 5 12 0 0
BITMAP
00
00
00
00
70
88
88
88
88
70
00
00
ENDCHAR
STARTCHAR bm_0x70
ENCODING 112
SWIDTH 461 0
DWIDTH 7 0
BBX 5 12 0 0
BITMAP
00
00
00
00
B0
C8
88
88
C8
B0
80
80
ENDCHAR
STARTCHAR bm_0x71
ENCODING 113
SWIDTH 461 0
DWIDTH 7 0
BBX 5 12 0 0
BITMAP
00
00
00
00
68
98
88
88
98
68
08
08
ENDCHAR
STARTCHAR bm_0x72
ENCODING 114
SWIDTH 461 0
DWIDTH 5 0
BBX 3 12 0 0
BITMAP
00
00
00
00
A0
C0
80
80
80
80
00
00
ENDCHAR
STARTCHAR bm_0x73
ENCODING 115
SWIDTH 461 0
DWIDTH 7 0
BBX 5 12 0 0
BITMAP
00
00
00
00
70
88
60
10
88
70
00
00
ENDCHAR
STARTCHAR bm_0x74
ENCODING 116
SWIDTH 461 0
DWIDTH 5 0
BBX 3 12 0 0
BITMAP
00
00
40
40
E0
40
40
40
40
60
00
00
ENDCHAR
STARTCHAR bm_0x75
ENCODING 117
SWIDTH 461 0
DWIDTH 7 0
BBX 5 12 0 0
BITMAP
00
00
00
00
88
88
88
88
98
68
00
00
ENDCHAR
STARTCHAR bm_0x76
ENCODING 118
SWIDTH 461 0
DWIDTH 7 0
BBX 5 12 0 0
BITMAP
00
00
00
00
88
88
50
50
20
20
00
00
ENDCHAR
STARTCHAR bm_0x77
ENCODING 119
SWIDTH 461 0
DWIDTH 11 0
BBX 9 12 0 0
BITMAP
0000
0000
0000
0000
8880
9480
5500
5500
2200
2200
0000
0000
ENDCHAR
STARTCHAR bm_0x78
ENCODING 120
SWIDTH 461 0
DWIDTH 7 0
BBX 5 12 0 0
BITMAP
00
00
00
00
88
50
20
20
50
88
00
00
ENDCHAR
STARTCHAR bm_0x79
ENCODING 121
SWIDTH 461 0
DWIDTH 7 0
BBX 5 12 0 0
BITMAP
00
00
00
00
88
88
50
50
20
20
20
40
ENDCHAR
STARTCHAR bm_0x7A
ENCODING 122
SWIDTH 461 0
DWIDTH 7 0
BBX 5 12 0 0
BITMAP
00
00
00
00
F8
10
20
20
40
F8
00
00
ENDCHAR
STARTCHAR bm_0x7B
ENCODING 123
SWIDTH 461 0
DWIDTH 5 0
BBX 3 12 0 0
BITMAP
00
00
20
40
40
40
80
40
40
40
40
20
ENDCHAR
STARTCHAR bm_0x7C
ENCODING 124
SWIDTH 461 0
DWIDTH 3 0
BBX 1 12 0 0
BITMAP
00
00
80
80
80
80
80
80
80
80
80
80
ENDCHAR
STARTCHAR bm_0x7D
ENCODING 125
SWIDTH 461 0
DWIDTH 5 0
BBX 3 12 0 0
BITMAP
00
00
80
40
40
40
20
40
40
40
40
80
ENDCHAR
STARTCHAR bm_0x7E
ENCODING 126
SWIDTH 461 0
DWIDTH 7 0
BBX 5 12 0 0
BITMAP
00
00
00
00
00
E8
B0
00
00
00
00
00
ENDCHAR
STARTCHAR bm_0xA4
ENCODING 164
SWIDTH 461 0
DWIDTH 11 0
BBX 9 12 0 0
BITMAP
0000
8080
5D00
2200
4100
4100
4100
2200
5D00
8080
0000
0000
ENDCHAR
STARTCHAR bm_0xA5
ENCODING 165
SWIDTH 461 0
DWIDTH 9 0
BBX 7 12 0 0
BITMAP
00
82
44
44
28
10
FE
10
FE
10
10
00
ENDCHAR
STARTCHAR bm_0xA7
ENCODING 167
SWIDTH 461 0
DWIDTH 6 0
BBX 4 12 0 0
BITMAP
60
90
80
60
90
90
90
60
10
90
60
00
ENDCHAR
STARTCHAR bm_0xA8
ENCODING 168
SWIDTH 461 0
DWIDTH 8 0
BBX 6 12 0 0
BITMAP
00
00
00
CC
CC
00
00
00
00
00
00
00
ENDCHAR
STARTCHAR bm_0xB0
ENCODING 176
SWIDTH 461 0
DWIDTH 6 0
BBX 4 12 0 0
BITMAP
00
60
90
90
60
00
00
00
00
00
00
00
ENDCHAR
STARTCHAR bm_0xB1
ENCODING 177
SWIDTH 461 0
DWIDTH 9 0
BBX 7 12 0 0
BITMAP
00
00
10
10
FE
10
10
00
00
FE
00
00
ENDCHAR
STARTCHAR bm_0xB7
ENCODING 183
SWIDTH 461 0
DWIDTH 4 0
BBX 2 12 0 0
BITMAP
00
00
00
00
00
C0
C0
00
00
00
00
00
ENDCHAR
STARTCHAR bm_0xD7
ENCODING 215
SWIDTH 461 0
DWIDTH 9 0
BBX 7 12 0 0
BITMAP
00
00
82
44
28
10
28
44
82
00
00
00
ENDCHAR
STARTCHAR bm_0xE0
ENCODING 224
SWIDTH 461 0
DWIDTH 8 0
BBX 6 12 0 0
BITMAP
40
20
10
68
98
88
88
98
6C
00
00
00
ENDCHAR
STARTCHAR bm_0xE1
ENCODING 225
SWIDTH 461 0
DWIDTH 8 0
BBX 6 12 0 0
BITMAP
08
10
20
68
98
88
88
98
6C
00
00
00
ENDCHAR
STARTCHAR bm_0xE8
ENCODING 232
SWIDTH 461 0
DWIDTH 7 0
BBX 5 12 0 0
BITMAP
40
20
10
70
88
F8
80
88
70
00
00
00
ENDCHAR
STARTCHAR bm_0xE9
ENCODING 233
SWIDTH 461 0
DWIDTH 7 0
BBX 5 12 0 0
BITMAP
10
20
40
70
88
F8
80
88
70
00
00
00
ENDCHAR
STARTCHAR bm_0xEA
ENCODING 234
SWIDTH 461 0
DWIDTH 7 0
BBX 5 12 0 0
BITMAP
20
50
88
70
88
F8
80
88
70
00
00
00
ENDCHAR
STARTCHAR bm_0xEC
ENCODING 236
SWIDTH 461 0
DWIDTH 5 0
BBX 3 12 0 0
BITMAP
80
40
20
40
40
40
40
40
40
00
00
00
ENDCHAR
STARTCHAR bm_0xED
ENCODING 237
SWIDTH 461 0
DWIDTH 5 0
BBX 3 12 0 0
BITMAP
20
40
80
40
40
40
40
40
40
00
00
00
ENDCHAR
STARTCHAR bm_0xF2
ENCODING 242
SWIDTH 461 0
DWIDTH 7 0
BBX 5 12 0 0
BITMAP
40
20
10
70
88
88
88
88
70
00
00
00
ENDCHAR
STARTCHAR bm_0xF3
ENCODING 243
SWIDTH 461 0
DWIDTH 7 0
BBX 5 12 0 0
BITMAP
10
20
40
70
88
88
88
88
70
00
00
00
ENDCHAR
STARTCHAR bm_0xF7
ENCODING 247
SWIDTH 461 0
DWIDTH 10 0
BBX 8 12 0 0
BITMAP
00
00
18
18
00
FF
00
18
18
00
00
00
ENDCHAR
STARTCHAR bm_0xF9
ENCODING 249
SWIDTH 461 0
DWIDTH 7 0
BBX 5 12 0 0
BITMAP
40
20
10
88
88
88
88
98
68
00
00
00
ENDCHAR
STARTCHAR bm_0xFA
ENCODING 250
SWIDTH 461 0
DWIDTH 7 0
BBX 5 12 0 0
BITMAP
10
20
40
88
88
88
88
98
68
00
00
00
ENDCHAR
STARTCHAR bm_0xFC
ENCODING 252
SWIDTH 461 0
DWIDTH 7 0
BBX 5 12 0 0
BITMAP
00
00
88
00
88
88
88
98
68
00
00
00
ENDCHAR
STARTCHAR bm_0x101
ENCODING 257
SWIDTH 461 0
DWIDTH 8 0
BBX 6 12 0 0
BITMAP
00
F8
00
68
98
88
88
98
6C
00
00
00
ENDCHAR
STARTCHAR bm_0x113
ENCODING 275
SWIDTH 461 0
DWIDTH 7 0
BBX 5 12 0 0
BITMAP
00
F8
00
70
88
F8
80
88
70
00
00
00
ENDCHAR
STARTCHAR bm_0x11B
ENCODING 283
SWIDTH 461 0
DWIDTH 7 0
BBX 5 12 0 0
BITMAP
88
50
20
70
88
F8
80
88
70
00
00
00
ENDCHAR
STARTCHAR bm_0x12B
ENCODING 299
SWIDTH 461 0
DWIDTH 7 0
BBX 5 12 0 0
BITMAP
00
F8
00
20
20
20
20
20
20
00
00
00
ENDCHAR
STARTCHAR bm_0x144
ENCODING 324
SWIDTH 461 0
DWIDTH 7 0
BBX 5 12 0 0
BITMAP
10
20
00
B0
C8
88
88
88
88
00
00
00
ENDCHAR
STARTCHAR bm_0x148
ENCODING 328
SWIDTH 461 0
DWIDTH 7 0
BBX 5 12 0 0
BITMAP
50
20
00
B0
C8
88
88
88
88
00
00
00
ENDCHAR
STARTCHAR bm_0x14D
ENCODING 333
SWIDTH 461 0
DWIDTH 7 0
BBX 5 12 0 0
BITMAP
00
F8
00
70
88
88
88
88
70
00
00
00
ENDCHAR
STARTCHAR bm_0x16B
ENCODING 363
SWIDTH 461 0
DWIDTH 7 0
BBX 5 12 0 0
BITMAP
00
F8
00
88
88
88
88
98
68
00
00
00
ENDCHAR
STARTCHAR bm_0x1CE
ENCODING 462
SWIDTH 461 0
DWIDTH 8 0
BBX 6 12 0 0
BITMAP
88
50
20
68
98
88
88
98
6C
00
00
00
ENDCHAR
STARTCHAR bm_0x1D0
ENCODING 464
SWIDTH 461 0
DWIDTH 7 0
BBX 5 12 0 0
BITMAP
88
50
20
00
20
20
20
20
20
00
00
00
ENDCHAR
STARTCHAR bm_0x1D2
ENCODING 466
SWIDTH 461 0
DWIDTH 7 0
BBX 5 12 0 0
BITMAP
88
50
20
70
88
88
88
88
70
00
00
00
ENDCHAR
STARTCHAR bm_0x1D4
ENCODING 468
SWIDTH 461 0
DWIDTH 7 0
BBX 5 12 0 0
BITMAP
88
50
20
88
88
88
88
98
68
00
00
00
ENDCHAR
STARTCHAR bm_0x1D6
ENCODING 470
SWIDTH 461 0
DWIDTH 7 0
BBX 5 12 0 0
BITMAP
F8
00
88
00
88
88
88
98
68
00
00
00
ENDCHAR
STARTCHAR bm_0x1D8
ENCODING 472
SWIDTH 461 0
DWIDTH 7 0
BBX 5 12 0 0
BITMAP
10
20
88
00
88
88
88
98
68
00
00
00
ENDCHAR
STARTCHAR bm_0x1DA
ENCODING 474
SWIDTH 461 0
DWIDTH 7 0
BBX 5 12 0 0
BITMAP
50
20
88
00
88
88
88
98
68
00
00
00
ENDCHAR
STARTCHAR bm_0x1DC
ENCODING 476
SWIDTH 461 0
DWIDTH 7 0
BBX 5 12 0 0
BITMAP
40
20
88
00
88
88
88
98
68
00
00
00
ENDCHAR
STARTCHAR bm_0x251
ENCODING 593
SWIDTH 461 0
DWIDTH 8 0
BBX 6 12 0 0
BITMAP
00
00
00
68
98
88
88
98
6C
00
00
00
ENDCHAR
STARTCHAR bm_0x261
ENCODING 609
SWIDTH 461 0
DWIDTH 9 0
BBX 7 12 0 0
BITMAP
04
78
84
78
20
7C
82
82
7C
00
00
00
ENDCHAR
STARTCHAR bm_0x2C7
ENCODING 711
SWIDTH 461 0
DWIDTH 7 0
BBX 5 12 0 0
BITMAP
00
88
50
20
00
00
00
00
00
00
00
00
ENDCHAR
STARTCHAR bm_0x2C9
ENCODING 713
SWIDTH 461 0
DWIDTH 9 0
BBX 7 12 0 0
BITMAP
00
00
FE
00
00
00
00
00
00
00
00
00
ENDCHAR
STARTCHAR bm_0x2CA
ENCODING 714
SWIDTH 461 0
DWIDTH 6 0
BBX 4 12 0 0
BITMAP
20
30
60
40
80
00
00
00
00
00
00
00
ENDCHAR
STARTCHAR bm_0x2CB
ENCODING 715
SWIDTH 461 0
DWIDTH 6 0
BBX 4 12 0 0
BITMAP
C0
60
20
10
00
00
00
00
00
00
00
00
ENDCHAR
STARTCHAR bm_0x2D9
ENCODING 729
SWIDTH 461 0
DWIDTH 4 0
BBX 2 12 0 0
BITMAP
00
00
00
00
C0
C0
00
00
00
00
00
00
ENDCHAR
STARTCHAR bm_0x391
ENCODING 913
SWIDTH 461 0
DWIDTH 11 0
BBX 9 12 0 0
BITMAP
0000
0800
1C00
1400
2600
3E00
4300
4300
E780
0000
0000
0000
ENDCHAR
STARTCHAR bm_0x392
ENCODING 914
SWIDTH 461 0
DWIDTH 10 0
BBX 8 12 0 0
BITMAP
00
FE
63
63
7E
63
63
63
FE
00
00
00
ENDCHAR
STARTCHAR bm_0x393
ENCODING 915
SWIDTH 461 0
DWIDTH 10 0
BBX 8 12 0 0
BITMAP
00
FF
61
60
60
60
60
60
F0
00
00
00
ENDCHAR
STARTCHAR bm_0x394
ENCODING 916
SWIDTH 461 0
DWIDTH 11 0
BBX 9 12 0 0
BITMAP
0000
0800
1C00
1C00
2600
2600
4300
4300
FF80
0000
0000
0000
ENDCHAR
STARTCHAR bm_0x395
ENCODING 917
SWIDTH 461 0
DWIDTH 10 0
BBX 8 12 0 0
BITMAP
00
FF
61
64
7C
64
60
61
FF
00
00
00
ENDCHAR
STARTCHAR bm_0x396
ENCODING 918
SWIDTH 461 0
DWIDTH 9 0
BBX 7 12 0 0
BITMAP
00
FE
86
0C
18
30
62
C2
FE
00
00
00
ENDCHAR
STARTCHAR bm_0x397
ENCODING 919
SWIDTH 461 0
DWIDTH 11 0
BBX 9 12 0 0
BITMAP
0000
F780
6300
6300
7F00
6300
6300
6300
F780
0000
0000
0000
ENDCHAR
STARTCHAR bm_0x398
ENCODING 920
SWIDTH 461 0
DWIDTH 10 0
BBX 8 12 0 0
BITMAP
00
3C
42
A5
BD
A5
81
42
3C
00
00
00
ENDCHAR
STARTCHAR bm_0x399
ENCODING 921
SWIDTH 461 0
DWIDTH 6 0
BBX 4 12 0 0
BITMAP
00
F0
60
60
60
60
60
60
F0
00
00
00
ENDCHAR
STARTCHAR bm_0x39A
ENCODING 922
SWIDTH 461 0
DWIDTH 11 0
BBX 9 12 0 0
BITMAP
0000
F300
6200
6400
6800
7800
6C00
6600
F380
0000
0000
0000
ENDCHAR
STARTCHAR bm_0x39B
ENCODING 923
SWIDTH 461 0
DWIDTH 11 0
BBX 9 12 0 0
BITMAP
0000
0800
1C00
1400
2600
2200
4300
4300
E780
0000
0000
0000
ENDCHAR
STARTCHAR bm_0x39C
ENCODING 924
SWIDTH 461 0
DWIDTH 12 0
BBX 12 12 0 0
BITMAP
0000
C060
60C0
71C0
7AC0
6CC0
64C0
60C0
F1E0
0000
0000
0000
ENDCHAR
STARTCHAR bm_0x39D
ENCODING 925
SWIDTH 461 0
DWIDTH 12 0
BBX 10 12 0 0
BITMAP
0000
C3C0
6180
7180
6980
6580
6380
6180
F080
0000
0000
0000
ENDCHAR
STARTCHAR bm_0x39E
ENCODING 926
SWIDTH 461 0
DWIDTH 9 0
BBX 7 12 0 0
BITMAP
00
FE
82
44
7C
44
00
82
FE
00
00
00
ENDCHAR
STARTCHAR bm_0x39F
ENCODING 927
SWIDTH 461 0
DWIDTH 10 0
BBX 8 12 0 0
BITMAP
00
3C
66
C3
C3
C3
C3
66
3C
00
00
00
ENDCHAR
STARTCHAR bm_0x3A0
ENCODING 928
SWIDTH 461 0
DWIDTH 11 0
BBX 9 12 0 0
BITMAP
0000
FF80
6300
6300
6300
6300
6300
6300
F780
0000
0000
0000
ENDCHAR
STARTCHAR bm_0x3A1
ENCODING 929
SWIDTH 461 0
DWIDTH 10 0
BBX 8 12 0 0
BITMAP
00
FE
63
63
63
7E
60
60
F0
00
00
00
ENDCHAR
STARTCHAR bm_0x3A3
ENCODING 931
SWIDTH 461 0
DWIDTH 10 0
BBX 8 12 0 0
BITMAP
00
FF
61
30
18
10
21
41
FF
00
00
00
ENDCHAR
STARTCHAR bm_0x3A4
ENCODING 932
SWIDTH 461 0
DWIDTH 10 0
BBX 8 12 0 0
BITMAP
00
FF
99
18
18
18
18
18
3C
00
00
00
ENDCHAR
STARTCHAR bm_0x3A5
ENCODING 933
SWIDTH 461 0
DWIDTH 9 0
BBX 7 12 0 0
BITMAP
00
CC
32
30
30
30
30
30
78
00
00
00
ENDCHAR
STARTCHAR bm_0x3A6
ENCODING 934
SWIDTH 461 0
DWIDTH 10 0
BBX 8 12 0 0
BITMAP
00
3C
18
7E
99
99
7E
18
3C
00
00
00
ENDCHAR
STARTCHAR bm_0x3A7
ENCODING 935
SWIDTH 461 0
DWIDTH 11 0
BBX 9 12 0 0
BITMAP
0000
F700
6200
3400
1800
1C00
2600
4300
E780
0000
0000
0000
ENDCHAR
STARTCHAR bm_0x3A8
ENCODING 936
SWIDTH 461 0
DWIDTH 12 0
BBX 10 12 0 0
BITMAP
0000
9E40
4C80
4C80
4C80
3F00
0C00
0C00
1E00
0000
0000
0000
ENDCHAR
STARTCHAR bm_0x3A9
ENCODING 937
SWIDTH 461 0
DWIDTH 11 0
BBX 9 12 0 0
BITMAP
0000
1C00
2200
6300
6300
6300
2200
B680
F780
0000
0000
0000
ENDCHAR
STARTCHAR bm_0x3B1
ENCODING 945
SWIDTH 461 0
DWIDTH 9 0
BBX 7 12 0 0
BITMAP
00
00
74
88
88
88
98
66
00
00
00
00
ENDCHAR
STARTCHAR bm_0x3B2
ENCODING 946
SWIDTH 461 0
DWIDTH 7 0
BBX 5 12 0 0
BITMAP
00
60
90
A0
90
88
C8
B0
80
80
00
00
ENDCHAR
STARTCHAR bm_0x3B3
ENCODING 947
SWIDTH 461 0
DWIDTH 9 0
BBX 7 12 0 0
BITMAP
00
00
00
C2
62
26
2C
18
10
10
00
00
ENDCHAR
STARTCHAR bm_0x3B4
ENCODING 948
SWIDTH 461 0
DWIDTH 7 0
BBX 5 12 0 0
BITMAP
60
90
40
20
50
88
88
88
70
00
00
00
ENDCHAR
STARTCHAR bm_0x3B5
ENCODING 949
SWIDTH 461 0
DWIDTH 7 0
BBX 5 12 0 0
BITMAP
00
00
70
80
80
70
80
80
88
70
00
00
ENDCHAR
STARTCHAR bm_0x3B6
ENCODING 950
SWIDTH 461 0
DWIDTH 7 0
BBX 5 12 0 0
BITMAP
30
40
40
38
40
80
80
80
70
08
10
00
ENDCHAR
STARTCHAR bm_0x3B7
ENCODING 951
SWIDTH 461 0
DWIDTH 8 0
BBX 6 12 0 0
BITMAP
00
00
58
A4
24
24
24
04
04
04
00
00
ENDCHAR
STARTCHAR bm_0x3B8
ENCODING 952
SWIDTH 461 0
DWIDTH 7 0
BBX 5 12 0 0
BITMAP
00
70
88
88
88
F8
88
88
88
70
00
00
ENDCHAR
STARTCHAR bm_0x3B9
ENCODING 953
SWIDTH 461 0
DWIDTH 5 0
BBX 3 12 0 0
BITMAP
00
00
40
C0
40
40
40
60
40
00
00
00
ENDCHAR
STARTCHAR bm_0x3BA
ENCODING 954
SWIDTH 461 0
DWIDTH 8 0
BBX 6 12 0 0
BITMAP
00
00
44
C8
50
60
50
48
44
00
00
00
ENDCHAR
STARTCHAR bm_0x3BB
ENCODING 955
SWIDTH 461 0
DWIDTH 11 0
BBX 9 12 0 0
BITMAP
0000
C000
2000
1000
2800
2400
4400
4280
8180
0000
0000
0000
ENDCHAR
STARTCHAR bm_0x3BC
ENCODING 956
SWIDTH 461 0
DWIDTH 9 0
BBX 7 12 0 0
BITMAP
00
00
88
88
88
88
98
EA
8C
80
00
00
ENDCHAR
STARTCHAR bm_0x3BD
ENCODING 957
SWIDTH 461 0
DWIDTH 9 0
BBX 7 12 0 0
BITMAP
00
00
00
C2
42
24
24
18
10
00
00
00
ENDCHAR
STARTCHAR bm_0x3BE
ENCODING 958
SWIDTH 461 0
DWIDTH 7 0
BBX 5 12 0 0
BITMAP
60
80
70
80
70
40
80
80
70
08
10
00
ENDCHAR
STARTCHAR bm_0x3BF
ENCODING 959
SWIDTH 461 0
DWIDTH 8 0
BBX 6 12 0 0
BITMAP
00
00
30
48
84
84
84
48
30
00
00
00
ENDCHAR
STARTCHAR bm_0x3C0
ENCODING 960
SWIDTH 461 0
DWIDTH 9 0
BBX 7 12 0 0
BITMAP
00
00
FE
48
48
48
48
84
00
00
00
00
ENDCHAR
STARTCHAR bm_0x3C1
ENCODING 961
SWIDTH 461 0
DWIDTH 8 0
BBX 6 12 0 0
BITMAP
00
00
30
48
84
84
C4
B8
80
80
00
00
ENDCHAR
STARTCHAR bm_0x3C3
ENCODING 963
SWIDTH 461 0
DWIDTH 9 0
BBX 7 12 0 0
BITMAP
00
00
3E
48
84
84
84
48
30
00
00
00
ENDCHAR
STARTCHAR bm_0x3C4
ENCODING 964
SWIDTH 461 0
DWIDTH 9 0
BBX 7 12 0 0
BITMAP
00
00
00
7E
90
10
10
14
18
00
00
00
ENDCHAR
STARTCHAR bm_0x3C5
ENCODING 965
SWIDTH 461 0
DWIDTH 8 0
BBX 6 12 0 0
BITMAP
00
00
48
C4
44
44
44
44
38
00
00
00
ENDCHAR
STARTCHAR bm_0x3C6
ENCODING 966
SWIDTH 461 0
DWIDTH 9 0
BBX 7 12 0 0
BITMAP
00
10
10
10
7C
92
92
92
7C
10
10
00
ENDCHAR
STARTCHAR bm_0x3C7
ENCODING 967
SWIDTH 461 0
DWIDTH 9 0
BBX 7 12 0 0
BITMAP
00
00
00
C2
24
28
10
28
48
86
00
00
ENDCHAR
STARTCHAR bm_0x3C8
ENCODING 968
SWIDTH 461 0
DWIDTH 11 0
BBX 9 12 0 0
BITMAP
0000
0400
0400
4500
A480
2480
2480
1F00
0400
0400
0000
0000
ENDCHAR
STARTCHAR bm_0x3C9
ENCODING 969
SWIDTH 461 0
DWIDTH 9 0
BBX 7 12 0 0
BITMAP
00
00
00
44
92
92
92
92
6C
00
00
00
ENDCHAR
STARTCHAR bm_0x401
ENCODING 1025
SWIDTH 461 0
DWIDTH 10 0
BBX 8 12 0 0
BITMAP
22
00
FF
61
64
7C
64
61
FF
00
00
00
ENDCHAR
STARTCHAR bm_0x410
ENCODING 1040
SWIDTH 461 0
DWIDTH 11 0
BBX 9 12 0 0
BITMAP
0000
0800
1C00
1400
2600
3E00
4300
4300
E780
0000
0000
0000
ENDCHAR
STARTCHAR bm_0x411
ENCODING 1041
SWIDTH 461 0
DWIDTH 10 0
BBX 8 12 0 0
BITMAP
00
FF
61
60
7E
63
63
63
FE
00
00
00
ENDCHAR
STARTCHAR bm_0x412
ENCODING 1042
SWIDTH 461 0
DWIDTH 10 0
BBX 8 12 0 0
BITMAP
00
FE
63
63
7E
63
63
63
FE
00
00
00
ENDCHAR
STARTCHAR bm_0x413
ENCODING 1043
SWIDTH 461 0
DWIDTH 10 0
BBX 8 12 0 0
BITMAP
00
FF
63
61
60
60
60
60
F0
00
00
00
ENDCHAR
STARTCHAR bm_0x414
ENCODING 1044
SWIDTH 461 0
DWIDTH 10 0
BBX 8 12 0 0
BITMAP
00
FF
26
26
26
26
46
FF
81
00
00
00
ENDCHAR
STARTCHAR bm_0x415
ENCODING 1045
SWIDTH 461 0
DWIDTH 10 0
BBX 8 12 0 0
BITMAP
00
FF
61
64
7C
64
60
61
FF
00
00
00
ENDCHAR
STARTCHAR bm_0x416
ENCODING 1046
SWIDTH 461 0
DWIDTH 12 0
BBX 12 12 0 0
BITMAP
0000
9E40
4C80
4C80
2D00
1F00
3D80
6CC0
DE60
0000
0000
0000
ENDCHAR
STARTCHAR bm_0x417
ENCODING 1047
SWIDTH 461 0
DWIDTH 9 0
BBX 7 12 0 0
BITMAP
00
BC
C6
86
18
04
06
86
7C
00
00
00
ENDCHAR
STARTCHAR bm_0x418
ENCODING 1048
SWIDTH 461 0
DWIDTH 12 0
BBX 10 12 0 0
BITMAP
0000
F3C0
6180
6380
6580
6980
7180
6180
F3C0
0000
0000
0000
ENDCHAR
STARTCHAR bm_0x419
ENCODING 1049
SWIDTH 461 0
DWIDTH 12 0
BBX 10 12 0 0
BITMAP
1200
0C00
F3C0
6380
6580
6980
7180
6180
F3C0
0000
0000
0000
ENDCHAR
STARTCHAR bm_0x41A
ENCODING 1050
SWIDTH 461 0
DWIDTH 11 0
BBX 9 12 0 0
BITMAP
0000
F300
6480
6400
7800
6C00
6600
6300
F380
0000
0000
0000
ENDCHAR
STARTCHAR bm_0x41B
ENCODING 1051
SWIDTH 461 0
DWIDTH 11 0
BBX 9 12 0 0
BITMAP
0000
3F80
1300
1300
1300
1300
1300
9300
6780
0000
0000
0000
ENDCHAR
STARTCHAR bm_0x41C
ENCODING 1052
SWIDTH 461 0
DWIDTH 12 0
BBX 12 12 0 0
BITMAP
0000
C060
60C0
71C0
7AC0
6CC0
64C0
60C0
F1E0
0000
0000
0000
ENDCHAR
STARTCHAR bm_0x41D
ENCODING 1053
SWIDTH 461 0
DWIDTH 11 0
BBX 9 12 0 0
BITMAP
0000
F780
6300
6300
7F00
6300
6300
6300
F780
0000
0000
0000
ENDCHAR
STARTCHAR bm_0x41E
ENCODING 1054
SWIDTH 461 0
DWIDTH 10 0
BBX 8 12 0 0
BITMAP
00
3C
66
C3
C3
C3
C3
66
3C
00
00
00
ENDCHAR
STARTCHAR bm_0x41F
ENCODING 1055
SWIDTH 461 0
DWIDTH 11 0
BBX 9 12 0 0
BITMAP
0000
FF80
6300
6300
6300
6300
6300
6300
F780
0000
0000
0000
ENDCHAR
STARTCHAR bm_0x420
ENCODING 1056
SWIDTH 461 0
DWIDTH 10 0
BBX 8 12 0 0
BITMAP
00
FE
63
63
63
7E
60
60
F0
00
00
00
ENDCHAR
STARTCHAR bm_0x421
ENCODING 1057
SWIDTH 461 0
DWIDTH 10 0
BBX 8 12 0 0
BITMAP
00
3D
63
C1
C0
C0
C0
61
3E
00
00
00
ENDCHAR
STARTCHAR bm_0x422
ENCODING 1058
SWIDTH 461 0
DWIDTH 10 0
BBX 8 12 0 0
BITMAP
00
FF
99
18
18
18
18
18
3C
00
00
00
ENDCHAR
STARTCHAR bm_0x423
ENCODING 1059
SWIDTH 461 0
DWIDTH 11 0
BBX 9 12 0 0
BITMAP
0000
F180
6100
3200
1A00
0C00
0800
9000
6000
0000
0000
0000
ENDCHAR
STARTCHAR bm_0x424
ENCODING 1060
SWIDTH 461 0
DWIDTH 10 0
BBX 8 12 0 0
BITMAP
00
3C
18
7E
DB
DB
7E
18
3C
00
00
00
ENDCHAR
STARTCHAR bm_0x425
ENCODING 1061
SWIDTH 461 0
DWIDTH 11 0
BBX 9 12 0 0
BITMAP
0000
F700
6200
3400
1800
1C00
2600
4300
E780
0000
0000
0000
ENDCHAR
STARTCHAR bm_0x426
ENCODING 1062
SWIDTH 461 0
DWIDTH 11 0
BBX 9 12 0 0
BITMAP
0000
F780
6300
6300
6300
6300
6300
6300
FF80
0080
0000
0000
ENDCHAR
STARTCHAR bm_0x427
ENCODING 1063
SWIDTH 461 0
DWIDTH 11 0
BBX 9 12 0 0
BITMAP
0000
F780
6300
6300
6300
3F00
0300
0300
0780
0000
0000
0000
ENDCHAR
STARTCHAR bm_0x428
ENCODING 1064
SWIDTH 461 0
DWIDTH 12 0
BBX 10 12 0 0
BITMAP
0000
6D80
6D80
6D80
6D80
6D80
6D80
6D80
FFC0
0000
0000
0000
ENDCHAR
STARTCHAR bm_0x429
ENCODING 1065
SWIDTH 461 0
DWIDTH 12 0
BBX 12 12 0 0
BITMAP
0000
6D80
6D80
6D80
6D80
6D80
6D80
6D80
FFE0
0020
0000
0000
ENDCHAR
STARTCHAR bm_0x42A
ENCODING 1066
SWIDTH 461 0
DWIDTH 11 0
BBX 9 12 0 0
BITMAP
0000
FC00
9800
1800
1F00
1980
1980
1980
3F00
0000
0000
0000
ENDCHAR
STARTCHAR bm_0x42B
ENCODING 1067
SWIDTH 461 0
DWIDTH 11 0
BBX 9 12 0 0
BITMAP
0000
F380
6100
6100
7900
6500
6500
6500
FB80
0000
0000
0000
ENDCHAR
STARTCHAR bm_0x42C
ENCODING 1068
SWIDTH 461 0
DWIDTH 10 0
BBX 8 12 0 0
BITMAP
00
F0
60
60
7E
63
63
63
FE
00
00
00
ENDCHAR
STARTCHAR bm_0x42D
ENCODING 1069
SWIDTH 461 0
DWIDTH 9 0
BBX 7 12 0 0
BITMAP
00
B8
C4
86
26
3E
26
84
78
00
00
00
ENDCHAR
STARTCHAR bm_0x42E
ENCODING 1070
SWIDTH 461 0
DWIDTH 12 0
BBX 10 12 0 0
BITMAP
0000
F300
6480
6CC0
7CC0
6CC0
6CC0
6480
F300
0000
0000
0000
ENDCHAR
STARTCHAR bm_0x42F
ENCODING 1071
SWIDTH 461 0
DWIDTH 11 0
BBX 9 12 0 0
BITMAP
0000
3F80
6300
6300
3F00
1B00
3300
6300
F780
0000
0000
0000
ENDCHAR
STARTCHAR bm_0x430
ENCODING 1072
SWIDTH 461 0
DWIDTH 9 0
BBX 7 12 0 0
BITMAP
00
00
70
88
78
88
88
7A
0C
00
00
00
ENDCHAR
STARTCHAR bm_0x431
ENCODING 1073
SWIDTH 461 0
DWIDTH 8 0
BBX 6 12 0 0
BITMAP
04
78
80
80
F0
88
88
88
70
00
00
00
ENDCHAR
STARTCHAR bm_0x432
ENCODING 1074
SWIDTH 461 0
DWIDTH 7 0
BBX 5 12 0 0
BITMAP
00
00
F0
48
48
70
48
48
F0
00
00
00
ENDCHAR
STARTCHAR bm_0x433
ENCODING 1075
SWIDTH 461 0
DWIDTH 8 0
BBX 6 12 0 0
BITMAP
00
00
FC
44
40
40
40
40
E0
00
00
00
ENDCHAR
STARTCHAR bm_0x434
ENCODING 1076
SWIDTH 461 0
DWIDTH 10 0
BBX 8 12 0 0
BITMAP
00
00
7E
24
24
24
24
24
7E
81
00
00
ENDCHAR
STARTCHAR bm_0x435
ENCODING 1077
SWIDTH 461 0
DWIDTH 8 0
BBX 6 12 0 0
BITMAP
00
00
00
78
84
FC
80
84
78
00
00
00
ENDCHAR
STARTCHAR bm_0x436
ENCODING 1078
SWIDTH 461 0
DWIDTH 9 0
BBX 7 12 0 0
BITMAP
00
00
92
54
54
38
54
54
92
00
00
00
ENDCHAR
STARTCHAR bm_0x437
ENCODING 1079
SWIDTH 461 0
DWIDTH 7 0
BBX 5 12 0 0
BITMAP
00
00
70
88
08
30
08
88
70
00
00
00
ENDCHAR
STARTCHAR bm_0x438
ENCODING 1080
SWIDTH 461 0
DWIDTH 10 0
BBX 8 12 0 0
BITMAP
00
00
E7
42
46
4A
52
62
E7
00
00
00
ENDCHAR
STARTCHAR bm_0x439
ENCODING 1081
SWIDTH 461 0
DWIDTH 10 0
BBX 8 12 0 0
BITMAP
24
18
E7
42
46
4A
52
62
E7
00
00
00
ENDCHAR
STARTCHAR bm_0x43A
ENCODING 1082
SWIDTH 461 0
DWIDTH 8 0
BBX 6 12 0 0
BITMAP
00
00
EC
48
50
60
50
48
EC
00
00
00
ENDCHAR
STARTCHAR bm_0x43B
ENCODING 1083
SWIDTH 461 0
DWIDTH 9 0
BBX 7 12 0 0
BITMAP
00
00
7E
24
24
24
24
A4
4E
00
00
00
ENDCHAR
STARTCHAR bm_0x43C
ENCODING 1084
SWIDTH 461 0
DWIDTH 11 0
BBX 9 12 0 0
BITMAP
0000
0000
C180
6300
6300
5500
4900
4100
E380
0000
0000
0000
ENDCHAR
STARTCHAR bm_0x43D
ENCODING 1085
SWIDTH 461 0
DWIDTH 9 0
BBX 7 12 0 0
BITMAP
00
00
EE
44
44
7C
44
44
EE
00
00
00
ENDCHAR
STARTCHAR bm_0x43E
ENCODING 1086
SWIDTH 461 0
DWIDTH 8 0
BBX 6 12 0 0
BITMAP
00
00
30
48
84
84
84
48
30
00
00
00
ENDCHAR
STARTCHAR bm_0x43F
ENCODING 1087
SWIDTH 461 0
DWIDTH 9 0
BBX 7 12 0 0
BITMAP
00
00
FE
44
44
44
44
44
EE
00
00
00
ENDCHAR
STARTCHAR bm_0x440
ENCODING 1088
SWIDTH 461 0
DWIDTH 8 0
BBX 6 12 0 0
BITMAP
00
00
58
E4
44
44
44
78
40
40
E0
00
ENDCHAR
STARTCHAR bm_0x441
ENCODING 1089
SWIDTH 461 0
DWIDTH 8 0
BBX 6 12 0 0
BITMAP
00
00
30
48
80
80
84
48
30
00
00
00
ENDCHAR
STARTCHAR bm_0x442
ENCODING 1090
SWIDTH 461 0
DWIDTH 9 0
BBX 7 12 0 0
BITMAP
00
00
FE
92
10
10
10
10
38
00
00
00
ENDCHAR
STARTCHAR bm_0x443
ENCODING 1091
SWIDTH 461 0
DWIDTH 10 0
BBX 8 12 0 0
BITMAP
00
00
67
22
22
14
14
08
90
60
00
00
ENDCHAR
STARTCHAR bm_0x444
ENCODING 1092
SWIDTH 461 0
DWIDTH 9 0
BBX 7 12 0 0
BITMAP
10
30
10
54
BA
92
92
BA
54
10
38
00
ENDCHAR
STARTCHAR bm_0x445
ENCODING 1093
SWIDTH 461 0
DWIDTH 9 0
BBX 7 12 0 0
BITMAP
00
00
EE
44
28
10
28
44
EE
00
00
00
ENDCHAR
STARTCHAR bm_0x446
ENCODING 1094
SWIDTH 461 0
DWIDTH 9 0
BBX 7 12 0 0
BITMAP
00
00
EE
44
44
44
44
44
FE
02
00
00
ENDCHAR
STARTCHAR bm_0x447
ENCODING 1095
SWIDTH 461 0
DWIDTH 9 0
BBX 7 12 0 0
BITMAP
00
00
CE
44
44
3C
04
04
0E
00
00
00
ENDCHAR
STARTCHAR bm_0x448
ENCODING 1096
SWIDTH 461 0
DWIDTH 11 0
BBX 9 12 0 0
BITMAP
0000
0000
DD80
4900
4900
4900
4900
4900
FF80
0000
0000
0000
ENDCHAR
STARTCHAR bm_0x449
ENCODING 1097
SWIDTH 461 0
DWIDTH 11 0
BBX 9 12 0 0
BITMAP
0000
0000
DD80
4900
4900
4900
4900
4900
FF80
0080
0000
0000
ENDCHAR
STARTCHAR bm_0x44A
ENCODING 1098
SWIDTH 461 0
DWIDTH 9 0
BBX 7 12 0 0
BITMAP
00
00
E0
A0
20
3C
22
22
3C
00
00
00
ENDCHAR
STARTCHAR bm_0x44B
ENCODING 1099
SWIDTH 461 0
DWIDTH 11 0
BBX 9 12 0 0
BITMAP
0000
0000
E380
4100
4100
7900
4500
4500
7B80
0000
0000
0000
ENDCHAR
STARTCHAR bm_0x44C
ENCODING 1100
SWIDTH 461 0
DWIDTH 8 0
BBX 6 12 0 0
BITMAP
00
00
C0
40
40
78
44
44
78
00
00
00
ENDCHAR
STARTCHAR bm_0x44D
ENCODING 1101
SWIDTH 461 0
DWIDTH 8 0
BBX 6 12 0 0
BITMAP
00
00
78
84
04
3C
04
84
78
00
00
00
ENDCHAR
STARTCHAR bm_0x44E
ENCODING 1102
SWIDTH 461 0
DWIDTH 10 0
BBX 8 12 0 0
BITMAP
00
00
E6
49
49
79
49
49
E6
00
00
00
ENDCHAR
STARTCHAR bm_0x44F
ENCODING 1103
SWIDTH 461 0
DWIDTH 9 0
BBX 7 12 0 0
BITMAP
00
00
3C
44
44
3C
14
24
EE
00
00
00
ENDCHAR
STARTCHAR bm_0x451
ENCODING 1105
SWIDTH 461 0
DWIDTH 8 0
BBX 6 12 0 0
BITMAP
00
84
00
78
84
FC
80
84
78
00
00
00
ENDCHAR
STARTCHAR bm_0x2010
ENCODING 8208
SWIDTH 461 0
DWIDTH 9 0
BBX 7 12 0 0
BITMAP
00
00
00
00
FE
00
00
00
00
00
00
00
ENDCHAR
STARTCHAR bm_0x2013
ENCODING 8211
SWIDTH 461 0
DWIDTH 9 0
BBX 7 12 0 0
BITMAP
00
00
00
00
00
FE
00
00
00
00
00
00
ENDCHAR
STARTCHAR bm_0x2014
ENCODING 8212
SWIDTH 461 0
DWIDTH 11 0
BBX 9 12 0 0
BITMAP
0000
0000
0000
0000
0000
FF80
0000
0000
0000
0000
0000
0000
ENDCHAR
STARTCHAR bm_0x2015
ENCODING 8213
SWIDTH 461 0
DWIDTH 12 0
BBX 12 12 0 0
BITMAP
0000
0000
0000
0000
0000
FFE0
0000
0000
0000
0000
0000
0000
ENDCHAR
STARTCHAR bm_0x2016
ENCODING 8214
SWIDTH 461 0
DWIDTH 5 0
BBX 3 12 0 0
BITMAP
00
A0
A0
A0
A0
A0
A0
A0
A0
A0
A0
00
ENDCHAR
STARTCHAR bm_0x2018
ENCODING 8216
SWIDTH 461 0
DWIDTH 4 0
BBX 2 12 0 0
BITMAP
00
40
80
C0
C0
00
00
00
00
00
00
00
ENDCHAR
STARTCHAR bm_0x2019
ENCODING 8217
SWIDTH 461 0
DWIDTH 4 0
BBX 2 12 0 0
BITMAP
00
C0
C0
40
80
00
00
00
00
00
00
00
ENDCHAR
STARTCHAR bm_0x201C
ENCODING 8220
SWIDTH 461 0
DWIDTH 7 0
BBX 5 12 0 0
BITMAP
00
48
90
D8
D8
00
00
00
00
00
00
00
ENDCHAR
STARTCHAR bm_0x201D
ENCODING 8221
SWIDTH 461 0
DWIDTH 7 0
BBX 5 12 0 0
BITMAP
00
D8
D8
48
90
00
00
00
00
00
00
00
ENDCHAR
STARTCHAR bm_0x2025
ENCODING 8229
SWIDTH 461 0
DWIDTH 9 0
BBX 7 12 0 0
BITMAP
00
00
00
00
C6
C6
00
00
00
00
00
00
ENDCHAR
STARTCHAR bm_0x2026
ENCODING 8230
SWIDTH 461 0
DWIDTH 12 0
BBX 10 12 0 0
BITMAP
0000
0000
0000
0000
CCC0
CCC0
0000
0000
0000
0000
0000
0000
ENDCHAR
STARTCHAR bm_0x2030
ENCODING 8240
SWIDTH 461 0
DWIDTH 12 0
BBX 10 12 0 0
BITMAP
2080
5100
5200
5400
2800
1000
2880
5540
9540
1540
0880
0000
ENDCHAR
STARTCHAR bm_0x2032
ENCODING 8242
SWIDTH 461 0
DWIDTH 6 0
BBX 4 12 0 0
BITMAP
00
10
30
60
40
80
00
00
00
00
00
00
ENDCHAR
STARTCHAR bm_0x2033
ENCODING 8243
SWIDTH 461 0
DWIDTH 8 0
BBX 6 12 0 0
BITMAP
00
24
6C
48
90
00
00
00
00
00
00
00
ENDCHAR
STARTCHAR bm_0x2035
ENCODING 8245
SWIDTH 461 0
DWIDTH 4 0
BBX 2 12 0 0
BITMAP
00
C0
C0
40
40
00
00
00
00
00
00
00
ENDCHAR
STARTCHAR bm_0x203B
ENCODING 8251
SWIDTH 461 0
DWIDTH 11 0
BBX 9 12 0 0
BITMAP
0000
9880
5900
2200
1400
C980
D580
2200
5900
9880
0000
0000
ENDCHAR
STARTCHAR bm_0x2103
ENCODING 8451
SWIDTH 461 0
DWIDTH 12 0
BBX 12 12 0 0
BITMAP
6000
9000
9740
68C0
1040
1000
1000
1000
1020
0840
0780
0000
ENDCHAR
STARTCHAR bm_0x2105
ENCODING 8453
SWIDTH 461 0
DWIDTH 12 0
BBX 10 12 0 0
BITMAP
0000
0100
6100
8200
8200
9400
6580
0A40
1240
1180
2000
0000
ENDCHAR
STARTCHAR bm_0x2109
ENCODING 8457
SWIDTH 461 0
DWIDTH 12 0
BBX 10 12 0 0
BITMAP
6FC0
94C0
9440
6400
0480
0780
0480
0400
0400
0400
0E00
0000
ENDCHAR
STARTCHAR bm_0x2116
ENCODING 8470
SWIDTH 461 0
DWIDTH 12 0
BBX 12 12 0 0
BITMAP
4100
6200
7200
7240
5AA0
5AA0
5AA0
4EA0
4E40
4600
86E0
0000
ENDCHAR
STARTCHAR bm_0x2121
ENCODING 8481
SWIDTH 461 0
DWIDTH 12 0
BBX 12 12 0 0
BITMAP
0000
EE80
4880
4E80
4880
4EE0
0000
0000
0000
0000
0000
0000
ENDCHAR
STARTCHAR bm_0x2160
ENCODING 8544
SWIDTH 461 0
DWIDTH 5 0
BBX 3 12 0 0
BITMAP
00
E0
40
40
40
40
40
40
40
E0
00
00
ENDCHAR
STARTCHAR bm_0x2161
ENCODING 8545
SWIDTH 461 0
DWIDTH 9 0
BBX 7 12 0 0
BITMAP
00
EE
44
44
44
44
44
44
44
EE
00
00
ENDCHAR
STARTCHAR bm_0x2162
ENCODING 8546
SWIDTH 461 0
DWIDTH 12 0
BBX 12 12 0 0
BITMAP
0000
EEE0
4440
4440
4440
4440
4440
4440
4440
EEE0
0000
0000
ENDCHAR
STARTCHAR bm_0x2163
ENCODING 8547
SWIDTH 461 0
DWIDTH 12 0
BBX 10 12 0 0
BITMAP
0000
FDC0
4880
4880
4880
4500
4500
4500
4200
E200
0000
0000
ENDCHAR
STARTCHAR bm_0x2164
ENCODING 8548
SWIDTH 461 0
DWIDTH 11 0
BBX 9 12 0 0
BITMAP
0000
E380
4100
4100
2200
2200
2200
1400
1400
0800
0000
0000
ENDCHAR
STARTCHAR bm_0x2165
ENCODING 8549
SWIDTH 461 0
DWIDTH 12 0
BBX 10 12 0 0
BITMAP
0000
EFC0
4480
4480
4480
2880
2880
2880
1080
11C0
0000
0000
ENDCHAR
STARTCHAR bm_0x2166
ENCODING 8550
SWIDTH 461 0
DWIDTH 12 0
BBX 12 12 0 0
BITMAP
0000
EFE0
4540
4540
4540
2940
2940
2940
1140
13E0
0000
0000
ENDCHAR
STARTCHAR bm_0x2167
ENCODING 8551
SWIDTH 461 0
DWIDTH 12 0
BBX 12 12 0 0
BITMAP
0000
DFE0
4AA0
4AA0
4AA0
52A0
52A0
52A0
22A0
27E0
0000
0000
ENDCHAR
STARTCHAR bm_0x2168
ENCODING 8552
SWIDTH 461 0
DWIDTH 12 0
BBX 12 12 0 0
BITMAP
0000
EEE0
4440
4280
4280
4100
4280
4280
4440
EEE0
0000
0000
ENDCHAR
STARTCHAR bm_0x2169
ENCODING 8553
SWIDTH 461 0
DWIDTH 9 0
BBX 7 12 0 0
BITMAP
00
EE
44
28
28
10
28
28
44
EE
00
00
ENDCHAR
STARTCHAR bm_0x216A
ENCODING 8554
SWIDTH 461 0
DWIDTH 12 0
BBX 12 12 0 0
BITMAP
0000
EEE0
4440
2840
2840
1040
2840
2840
4440
EEE0
0000
0000
ENDCHAR
STARTCHAR bm_0x216B
ENCODING 8555
SWIDTH 461 0
DWIDTH 12 0
BBX 12 12 0 0
BITMAP
0000
EFE0
4540
2940
2940
1140
2940
2940
4540
EFE0
0000
0000
ENDCHAR
STARTCHAR bm_0x2170
ENCODING 8560
SWIDTH 461 0
DWIDTH 5 0
BBX 3 12 0 0
BITMAP
00
40
00
40
C0
40
40
40
40
E0
00
00
ENDCHAR
STARTCHAR bm_0x2171
ENCODING 8561
SWIDTH 461 0
DWIDTH 10 0
BBX 8 12 0 0
BITMAP
00
42
00
42
C6
42
42
42
42
E7
00
00
ENDCHAR
STARTCHAR bm_0x2172
ENCODING 8562
SWIDTH 461 0
DWIDTH 12 0
BBX 12 12 0 0
BITMAP
0000
4440
0000
4440
CCC0
4440
4440
4440
4440
EEE0
0000
0000
ENDCHAR
STARTCHAR bm_0x2173
ENCODING 8563
SWIDTH 461 0
DWIDTH 11 0
BBX 9 12 0 0
BITMAP
0000
4000
0000
4880
C880
4880
4500
4500
4200
E200
0000
0000
ENDCHAR
STARTCHAR bm_0x2174
ENCODING 8564
SWIDTH 461 0
DWIDTH 9 0
BBX 7 12 0 0
BITMAP
00
00
00
82
82
44
44
28
28
10
00
00
ENDCHAR
STARTCHAR bm_0x2175
ENCODING 8565
SWIDTH 461 0
DWIDTH 11 0
BBX 9 12 0 0
BITMAP
0000
0100
0000
8900
8B00
8900
5100
5100
2100
2380
0000
0000
ENDCHAR
STARTCHAR bm_0x2176
ENCODING 8566
SWIDTH 461 0
DWIDTH 12 0
BBX 10 12 0 0
BITMAP
0000
0240
0000
8A40
8A40
8A40
5240
5240
2240
2240
0000
0000
ENDCHAR
STARTCHAR bm_0x2177
ENCODING 8567
SWIDTH 461 0
DWIDTH 12 0
BBX 12 12 0 0
BITMAP
0000
02A0
0000
8AA0
8AA0
8AA0
52A0
52A0
22A0
22A0
0000
0000
ENDCHAR
STARTCHAR bm_0x2178
ENCODING 8568
SWIDTH 461 0
DWIDTH 12 0
BBX 12 12 0 0
BITMAP
0000
4000
0000
4EE0
C440
4280
4100
4280
4440
EEE0
0000
0000
ENDCHAR
STARTCHAR bm_0x2179
ENCODING 8569
SWIDTH 461 0
DWIDTH 9 0
BBX 7 12 0 0
BITMAP
00
00
00
EE
44
28
10
28
44
EE
00
00
ENDCHAR
STARTCHAR bm_0x2190
ENCODING 8592
SWIDTH 461 0
DWIDTH 12 0
BBX 12 12 0 0
BITMAP
0000
0000
0000
0800
3000
FFE0
3000
0800
0000
0000
0000
0000
ENDCHAR
STARTCHAR bm_0x2191
ENCODING 8593
SWIDTH 461 0
DWIDTH 7 0
BBX 5 12 0 0
BITMAP
20
20
70
70
A8
20
20
20
20
20
20
00
ENDCHAR
STARTCHAR bm_0x2192
ENCODING 8594
SWIDTH 461 0
DWIDTH 12 0
BBX 12 12 0 0
BITMAP
0000
0000
0000
0200
0180
FFE0
0180
0200
0000
0000
0000
0000
ENDCHAR
STARTCHAR bm_0x2193
ENCODING 8595
SWIDTH 461 0
DWIDTH 7 0
BBX 5 12 0 0
BITMAP
20
20
20
20
20
20
A8
70
70
20
20
00
ENDCHAR
STARTCHAR bm_0x2196
ENCODING 8598
SWIDTH 461 0
DWIDTH 11 0
BBX 9 12 0 0
BITMAP
0000
8000
7800
6000
5000
4800
0400
0200
0100
0080
0000
0000
ENDCHAR
STARTCHAR bm_0x2197
ENCODING 8599
SWIDTH 461 0
DWIDTH 11 0
BBX 9 12 0 0
BITMAP
0000
0080
0F00
0300
0500
0900
1000
2000
4000
8000
0000
0000
ENDCHAR
STARTCHAR bm_0x2198
ENCODING 8600
SWIDTH 461 0
DWIDTH 11 0
BBX 9 12 0 0
BITMAP
0000
8000
4000
2000
1000
0900
0500
0300
0F00
0080
0000
0000
ENDCHAR
STARTCHAR bm_0x2199
ENCODING 8601
SWIDTH 461 0
DWIDTH 12 0
BBX 10 12 0 0
BITMAP
0000
0040
0080
0100
0200
0400
4800
5000
6000
7800
8000
0000
ENDCHAR
STARTCHAR bm_0x2208
ENCODING 8712
SWIDTH 461 0
DWIDTH 9 0
BBX 7 12 0 0
BITMAP
00
0E
30
40
80
FE
80
40
30
0E
00
00
ENDCHAR
STARTCHAR bm_0x220F
ENCODING 8719
SWIDTH 461 0
DWIDTH 10 0
BBX 8 12 0 0
BITMAP
00
FF
66
66
66
66
66
66
66
66
66
00
ENDCHAR
STARTCHAR bm_0x2211
ENCODING 8721
SWIDTH 461 0
DWIDTH 10 0
BBX 8 12 0 0
BITMAP
00
00
FF
61
30
18
08
10
20
41
FF
00
ENDCHAR
STARTCHAR bm_0x2215
ENCODING 8725
SWIDTH 461 0
DWIDTH 7 0
BBX 5 12 0 0
BITMAP
00
08
08
10
10
20
20
40
40
80
80
00
ENDCHAR
STARTCHAR bm_0x221A
ENCODING 8730
SWIDTH 461 0
DWIDTH 12 0
BBX 10 12 0 0
BITMAP
0040
0080
0080
0100
0100
0200
0200
2400
5400
8800
0800
0000
ENDCHAR
STARTCHAR bm_0x221D
ENCODING 8733
SWIDTH 461 0
DWIDTH 12 0
BBX 12 12 0 0
BITMAP
0000
0000
0000
31E0
4A00
8400
8400
4A00
31E0
0000
0000
0000
ENDCHAR
STARTCHAR bm_0x221E
ENCODING 8734
SWIDTH 461 0
DWIDTH 12 0
BBX 12 12 0 0
BITMAP
0000
0000
3180
4A40
8420
8420
4A40
3180
0000
0000
0000
0000
ENDCHAR
STARTCHAR bm_0x221F
ENCODING 8735
SWIDTH 461 0
DWIDTH 10 0
BBX 8 12 0 0
BITMAP
00
80
80
80
80
80
80
80
80
FF
00
00
ENDCHAR
STARTCHAR bm_0x2220
ENCODING 8736
SWIDTH 461 0
DWIDTH 11 0
BBX 9 12 0 0
BITMAP
0000
0080
0100
0200
0400
0800
1000
2000
4000
FF80
0000
0000
ENDCHAR
STARTCHAR bm_0x2223
ENCODING 8739
SWIDTH 461 0
DWIDTH 3 0
BBX 1 12 0 0
BITMAP
80
80
80
80
80
80
80
80
80
80
80
80
ENDCHAR
STARTCHAR bm_0x2225
ENCODING 8741
SWIDTH 461 0
DWIDTH 9 0
BBX 7 12 0 0
BITMAP
12
12
12
24
24
24
48
48
90
90
90
00
ENDCHAR
STARTCHAR bm_0x2227
ENCODING 8743
SWIDTH 461 0
DWIDTH 11 0
BBX 9 12 0 0
BITMAP
0000
0800
1400
1400
2200
2200
4100
4100
8080
8080
0000
0000
ENDCHAR
STARTCHAR bm_0x2228
ENCODING 8744
SWIDTH 461 0
DWIDTH 11 0
BBX 9 12 0 0
BITMAP
0000
8080
8080
4100
4100
2200
2200
1400
1400
0800
0000
0000
ENDCHAR
STARTCHAR bm_0x2229
ENCODING 8745
SWIDTH 461 0
DWIDTH 10 0
BBX 8 12 0 0
BITMAP
00
3C
42
81
81
81
81
81
81
81
00
00
ENDCHAR
STARTCHAR bm_0x222A
ENCODING 8746
SWIDTH 461 0
DWIDTH 10 0
BBX 8 12 0 0
BITMAP
00
81
81
81
81
81
81
81
42
3C
00
00
ENDCHAR
STARTCHAR bm_0x222B
ENCODING 8747
SWIDTH 461 0
DWIDTH 9 0
BBX 7 12 0 0
BITMAP
0C
12
10
10
10
10
10
10
10
90
60
00
ENDCHAR
STARTCHAR bm_0x222E
ENCODING 8750
SWIDTH 461 0
DWIDTH 9 0
BBX 7 12 0 0
BITMAP
0C
12
10
38
54
54
54
38
10
90
60
00
ENDCHAR
STARTCHAR bm_0x2234
ENCODING 8756
SWIDTH 461 0
DWIDTH 10 0
BBX 8 12 0 0
BITMAP
00
00
18
18
00
00
00
C3
C3
00
00
00
ENDCHAR
STARTCHAR bm_0x2235
ENCODING 8757
SWIDTH 461 0
DWIDTH 10 0
BBX 8 12 0 0
BITMAP
00
00
00
C3
C3
00
00
00
18
18
00
00
ENDCHAR
STARTCHAR bm_0x2236
ENCODING 8758
SWIDTH 461 0
DWIDTH 4 0
BBX 2 12 0 0
BITMAP
00
00
00
C0
C0
00
00
C0
C0
00
00
00
ENDCHAR
STARTCHAR bm_0x2237
ENCODING 8759
SWIDTH 461 0
DWIDTH 8 0
BBX 6 12 0 0
BITMAP
00
00
00
CC
CC
00
00
CC
CC
00
00
00
ENDCHAR
STARTCHAR bm_0x223D
ENCODING 8765
SWIDTH 461 0
DWIDTH 12 0
BBX 10 12 0 0
BITMAP
0000
0000
0000
6380
8440
8440
8840
7180
0000
0000
0000
0000
ENDCHAR
STARTCHAR bm_0x2248
ENCODING 8776
SWIDTH 461 0
DWIDTH 12 0
BBX 10 12 0 0
BITMAP
0000
0000
6040
9880
0700
6040
9880
0700
0000
0000
0000
0000
ENDCHAR
STARTCHAR bm_0x224C
ENCODING 8780
SWIDTH 461 0
DWIDTH 11 0
BBX 9 12 0 0
BITMAP
0000
0000
4300
8C80
9080
6100
0000
FF80
0000
FF80
0000
0000
ENDCHAR
STARTCHAR bm_0x2252
ENCODING 8786
SWIDTH 461 0
DWIDTH 12 0
BBX 10 12 0 0
BITMAP
0000
0000
8000
0000
FFC0
0000
0000
FFC0
0000
0040
0000
0000
ENDCHAR
STARTCHAR bm_0x2260
ENCODING 8800
SWIDTH 461 0
DWIDTH 11 0
BBX 9 12 0 0
BITMAP
0200
0200
0400
FF80
0800
0800
FF80
1000
2000
2000
4000
0000
ENDCHAR
STARTCHAR bm_0x2261
ENCODING 8801
SWIDTH 461 0
DWIDTH 10 0
BBX 8 12 0 0
BITMAP
00
00
FF
00
00
FF
00
00
FF
00
00
00
ENDCHAR
STARTCHAR bm_0x2264
ENCODING 8804
SWIDTH 461 0
DWIDTH 12 0
BBX 10 12 0 0
BITMAP
00C0
0300
0C00
3000
C000
3000
CC00
3300
0CC0
0300
00C0
0000
ENDCHAR
STARTCHAR bm_0x2265
ENCODING 8805
SWIDTH 461 0
DWIDTH 12 0
BBX 10 12 0 0
BITMAP
C000
3000
0C00
0300
00C0
0300
0CC0
3300
CC00
3000
C000
0000
ENDCHAR
STARTCHAR bm_0x2266
ENCODING 8806
SWIDTH 461 0
DWIDTH 12 0
BBX 10 12 0 0
BITMAP
0000
0380
1C00
E000
1C00
0380
0000
FFC0
0000
FFC0
0000
0000
ENDCHAR
STARTCHAR bm_0x2267
ENCODING 8807
SWIDTH 461 0
DWIDTH 12 0
BBX 10 12 0 0
BITMAP
0000
7000
0E00
01C0
0E00
7000
0000
FFC0
0000
FFC0
0000
0000
ENDCHAR
STARTCHAR bm_0x226E
ENCODING 8814
SWIDTH 461 0
DWIDTH 12 0
BBX 10 12 0 0
BITMAP
0400
04C0
0700
0C00
3400
C400
3400
0C00
0700
04C0
0400
0000
ENDCHAR
STARTCHAR bm_0x226F
ENCODING 8815
SWIDTH 461 0
DWIDTH 12 0
BBX 10 12 0 0
BITMAP
0800
C800
3800
0C00
0B00
08C0
0B00
0C00
3800
C800
0800
0000
ENDCHAR
STARTCHAR bm_0x2295
ENCODING 8853
SWIDTH 461 0
DWIDTH 9 0
BBX 7 12 0 0
BITMAP
00
00
00
38
54
92
FE
92
54
38
00
00
ENDCHAR
STARTCHAR bm_0x2299
ENCODING 8857
SWIDTH 461 0
DWIDTH 10 0
BBX 8 12 0 0
BITMAP
00
00
3C
42
81
99
99
81
42
3C
00
00
ENDCHAR
STARTCHAR bm_0x22A5
ENCODING 8869
SWIDTH 461 0
DWIDTH 11 0
BBX 9 12 0 0
BITMAP
0000
0800
0800
0800
0800
0800
0800
0800
0800
FF80
0000
0000
ENDCHAR
STARTCHAR bm_0x22BF
ENCODING 8895
SWIDTH 461 0
DWIDTH 9 0
BBX 7 12 0 0
BITMAP
00
02
06
0A
0A
12
22
22
42
FE
00
00
ENDCHAR
STARTCHAR bm_0x2312
ENCODING 8978
SWIDTH 461 0
DWIDTH 10 0
BBX 8 12 0 0
BITMAP
00
00
3C
42
81
81
00
00
00
00
00
00
ENDCHAR
STARTCHAR bm_0x2460
ENCODING 9312
SWIDTH 461 0
DWIDTH 12 0
BBX 12 12 0 0
BITMAP
0E00
3180
4440
4C40
9420
8420
8420
4440
4440
3180
0E00
0000
ENDCHAR
STARTCHAR bm_0x2461
ENCODING 9313
SWIDTH 461 0
DWIDTH 12 0
BBX 12 12 0 0
BITMAP
0E00
3180
4C40
5240
8220
8420
8820
5040
5E40
3180
0E00
0000
ENDCHAR
STARTCHAR bm_0x2462
ENCODING 9314
SWIDTH 461 0
DWIDTH 12 0
BBX 12 12 0 0
BITMAP
0E00
3180
5E40
4440
8820
8420
8220
5240
4C40
3180
0E00
0000
ENDCHAR
STARTCHAR bm_0x2463
ENCODING 9315
SWIDTH 461 0
DWIDTH 12 0
BBX 12 12 0 0
BITMAP
0E00
3180
4440
4840
8A20
9220
9F20
4240
4240
3180
0E00
0000
ENDCHAR
STARTCHAR bm_0x2464
ENCODING 9316
SWIDTH 461 0
DWIDTH 12 0
BBX 12 12 0 0
BITMAP
0E00
3180
5E40
5040
9C20
8220
8220
5240
4C40
3180
0E00
0000
ENDCHAR
STARTCHAR bm_0x2465
ENCODING 9317
SWIDTH 461 0
DWIDTH 12 0
BBX 12 12 0 0
BITMAP
0E00
3180
4440
4840
9020
9C20
9220
5240
4C40
3180
0E00
0000
ENDCHAR
STARTCHAR bm_0x2466
ENCODING 9318
SWIDTH 461 0
DWIDTH 12 0
BBX 12 12 0 0
BITMAP
0E00
3180
5E40
4240
8420
8420
8820
4840
4840
3180
0E00
0000
ENDCHAR
STARTCHAR bm_0x2467
ENCODING 9319
SWIDTH 461 0
DWIDTH 12 0
BBX 12 12 0 0
BITMAP
0E00
3180
4C40
5240
9220
8C20
9220
5240
4C40
3180
0E00
0000
ENDCHAR
STARTCHAR bm_0x2468
ENCODING 9320
SWIDTH 461 0
DWIDTH 12 0
BBX 12 12 0 0
BITMAP
0E00
3180
4C40
5240
9220
8E20
8220
4440
4840
3180
0E00
0000
ENDCHAR
STARTCHAR bm_0x2469
ENCODING 9321
SWIDTH 461 0
DWIDTH 12 0
BBX 12 12 0 0
BITMAP
0E00
3180
5240
5540
9520
9520
9520
5540
5240
3180
0E00
0000
ENDCHAR
STARTCHAR bm_0x2474
ENCODING 9332
SWIDTH 461 0
DWIDTH 12 0
BBX 12 12 0 0
BITMAP
2080
4440
4C40
9420
8420
8420
8420
8420
4440
4440
2080
0000
ENDCHAR
STARTCHAR bm_0x2475
ENCODING 9333
SWIDTH 461 0
DWIDTH 12 0
BBX 12 12 0 0
BITMAP
2080
4C40
5240
8220
8220
8420
8820
8820
5040
5E40
2080
0000
ENDCHAR
STARTCHAR bm_0x2476
ENCODING 9334
SWIDTH 461 0
DWIDTH 12 0
BBX 12 12 0 0
BITMAP
2080
5E40
4240
8420
8820
8420
8220
8220
5240
4C40
2080
0000
ENDCHAR
STARTCHAR bm_0x2477
ENCODING 9335
SWIDTH 461 0
DWIDTH 12 0
BBX 12 12 0 0
BITMAP
2080
4440
4440
8820
8A20
9220
9220
9F20
4240
4240
2080
0000
ENDCHAR
STARTCHAR bm_0x2478
ENCODING 9336
SWIDTH 461 0
DWIDTH 12 0
BBX 12 12 0 0
BITMAP
2080
4040
4F40
8820
8820
8E20
8120
8120
4940
4640
2080
0000
ENDCHAR
STARTCHAR bm_0x2479
ENCODING 9337
SWIDTH 461 0
DWIDTH 12 0
BBX 12 12 0 0
BITMAP
2080
4440
4840
9020
9620
9920
9120
9120
5140
4E40
2080
0000
ENDCHAR
STARTCHAR bm_0x247A
ENCODING 9338
SWIDTH 461 0
DWIDTH 12 0
BBX 12 12 0 0
BITMAP
2080
4040
5F40
8120
8220
8220
8420
8420
4440
4440
2080
0000
ENDCHAR
STARTCHAR bm_0x247B
ENCODING 9339
SWIDTH 461 0
DWIDTH 12 0
BBX 12 12 0 0
BITMAP
2080
4C40
5240
9220
9220
8C20
9220
9220
5240
4C40
2080
0000
ENDCHAR
STARTCHAR bm_0x247C
ENCODING 9340
SWIDTH 461 0
DWIDTH 12 0
BBX 12 12 0 0
BITMAP
2080
4E40
5140
9120
9120
9320
8D20
8120
4240
4440
2080
0000
ENDCHAR
STARTCHAR bm_0x247D
ENCODING 9341
SWIDTH 461 0
DWIDTH 12 0
BBX 12 12 0 0
BITMAP
2080
5240
5540
9520
9520
9520
9520
9520
5540
5240
2080
0000
ENDCHAR
STARTCHAR bm_0x247E
ENCODING 9342
SWIDTH 461 0
DWIDTH 12 0
BBX 12 12 0 0
BITMAP
2080
4040
5140
9120
9120
9120
9120
9120
5140
5140
2080
0000
ENDCHAR
STARTCHAR bm_0x247F
ENCODING 9343
SWIDTH 461 0
DWIDTH 12 0
BBX 12 12 0 0
BITMAP
2080
5340
54C0
90A0
90A0
9120
9220
9420
57C0
5040
2080
0000
ENDCHAR
STARTCHAR bm_0x2480
ENCODING 9344
SWIDTH 461 0
DWIDTH 12 0
BBX 12 12 0 0
BITMAP
2080
4040
57C0
B120
9220
9720
90A0
90A0
54C0
5340
2080
0000
ENDCHAR
STARTCHAR bm_0x2481
ENCODING 9345
SWIDTH 461 0
DWIDTH 12 0
BBX 12 12 0 0
BITMAP
2080
4040
5140
B220
9220
9520
9520
97A0
5140
5140
2080
0000
ENDCHAR
STARTCHAR bm_0x2482
ENCODING 9346
SWIDTH 461 0
DWIDTH 12 0
BBX 12 12 0 0
BITMAP
2080
4040
6F40
A820
A820
AE20
A120
A120
6940
6640
2080
0000
ENDCHAR
STARTCHAR bm_0x2483
ENCODING 9347
SWIDTH 461 0
DWIDTH 12 0
BBX 12 12 0 0
BITMAP
2080
5140
5240
9420
9720
94A0
94A0
94A0
5340
5040
2080
0000
ENDCHAR
STARTCHAR bm_0x2484
ENCODING 9348
SWIDTH 461 0
DWIDTH 12 0
BBX 12 12 0 0
BITMAP
2080
4040
57C0
B0A0
9120
9120
9220
9220
5240
5240
2080
0000
ENDCHAR
STARTCHAR bm_0x2485
ENCODING 9349
SWIDTH 461 0
DWIDTH 12 0
BBX 12 12 0 0
BITMAP
2080
4040
6640
A920
A920
A620
A920
A920
6940
6640
2080
0000
ENDCHAR
STARTCHAR bm_0x2486
ENCODING 9350
SWIDTH 461 0
DWIDTH 12 0
BBX 12 12 0 0
BITMAP
2080
4040
5340
B4A0
94A0
94A0
93A0
90A0
5140
5240
2080
0000
ENDCHAR
STARTCHAR bm_0x2487
ENCODING 9351
SWIDTH 461 0
DWIDTH 12 0
BBX 12 12 0 0
BITMAP
2080
4040
5940
A6A0
86A0
8AA0
92A0
A2A0
7AC0
4140
2080
0000
ENDCHAR
STARTCHAR bm_0x2488
ENCODING 9352
SWIDTH 461 0
DWIDTH 8 0
BBX 6 12 0 0
BITMAP
00
20
60
A0
20
20
20
20
20
24
00
00
ENDCHAR
STARTCHAR bm_0x2489
ENCODING 9353
SWIDTH 461 0
DWIDTH 9 0
BBX 7 12 0 0
BITMAP
00
70
88
08
08
10
20
40
80
FA
00
00
ENDCHAR
STARTCHAR bm_0x248A
ENCODING 9354
SWIDTH 461 0
DWIDTH 9 0
BBX 7 12 0 0
BITMAP
00
F8
08
10
20
10
08
08
88
72
00
00
ENDCHAR
STARTCHAR bm_0x248B
ENCODING 9355
SWIDTH 461 0
DWIDTH 10 0
BBX 8 12 0 0
BITMAP
00
20
20
40
48
88
88
FC
08
09
00
00
ENDCHAR
STARTCHAR bm_0x248C
ENCODING 9356
SWIDTH 461 0
DWIDTH 9 0
BBX 7 12 0 0
BITMAP
00
F8
80
80
F0
08
08
08
88
72
00
00
ENDCHAR
STARTCHAR bm_0x248D
ENCODING 9357
SWIDTH 461 0
DWIDTH 9 0
BBX 7 12 0 0
BITMAP
00
20
40
80
B0
C8
88
88
88
72
00
00
ENDCHAR
STARTCHAR bm_0x248E
ENCODING 9358
SWIDTH 461 0
DWIDTH 9 0
BBX 7 12 0 0
BITMAP
00
F8
08
08
10
10
20
20
20
22
00
00
ENDCHAR
STARTCHAR bm_0x248F
ENCODING 9359
SWIDTH 461 0
DWIDTH 9 0
BBX 7 12 0 0
BITMAP
00
70
88
88
88
70
88
88
88
72
00
00
ENDCHAR
STARTCHAR bm_0x2490
ENCODING 9360
SWIDTH 461 0
DWIDTH 9 0
BBX 7 12 0 0
BITMAP
00
70
88
88
88
98
68
08
10
22
00
00
ENDCHAR
STARTCHAR bm_0x2491
ENCODING 9361
SWIDTH 461 0
DWIDTH 12 0
BBX 12 12 0 0
BITMAP
0000
2300
6480
A480
2480
2480
2480
2480
2480
2320
0000
0000
ENDCHAR
STARTCHAR bm_0x2492
ENCODING 9362
SWIDTH 461 0
DWIDTH 12 0
BBX 10 12 0 0
BITMAP
0000
2200
6600
AA00
2200
2200
2200
2200
2240
2200
0000
0000
ENDCHAR
STARTCHAR bm_0x2493
ENCODING 9363
SWIDTH 461 0
DWIDTH 12 0
BBX 12 12 0 0
BITMAP
0000
2300
6480
A080
2080
2100
2200
2200
2400
27A0
0000
0000
ENDCHAR
STARTCHAR bm_0x2494
ENCODING 9364
SWIDTH 461 0
DWIDTH 12 0
BBX 12 12 0 0
BITMAP
0000
2780
6080
A100
2200
2100
2080
2080
2480
2320
0000
0000
ENDCHAR
STARTCHAR bm_0x2495
ENCODING 9365
SWIDTH 461 0
DWIDTH 12 0
BBX 12 12 0 0
BITMAP
0000
2200
6200
A400
2500
2900
2900
2F80
2100
2120
0000
0000
ENDCHAR
STARTCHAR bm_0x2496
ENCODING 9366
SWIDTH 461 0
DWIDTH 12 0
BBX 12 12 0 0
BITMAP
0000
2780
6400
A400
2700
2080
2080
2080
2480
2320
0000
0000
ENDCHAR
STARTCHAR bm_0x2497
ENCODING 9367
SWIDTH 461 0
DWIDTH 12 0
BBX 12 12 0 0
BITMAP
0000
2200
6400
A800
2B00
2C80
2880
2880
2880
2720
0000
0000
ENDCHAR
STARTCHAR bm_0x2498
ENCODING 9368
SWIDTH 461 0
DWIDTH 12 0
BBX 12 12 0 0
BITMAP
0000
27C0
6040
A040
2080
2080
2100
2100
2100
2120
0000
0000
ENDCHAR
STARTCHAR bm_0x2499
ENCODING 9369
SWIDTH 461 0
DWIDTH 12 0
BBX 12 12 0 0
BITMAP
0000
2700
6880
A880
2880
2700
2880
2880
2880
2720
0000
0000
ENDCHAR
STARTCHAR bm_0x249A
ENCODING 9370
SWIDTH 461 0
DWIDTH 12 0
BBX 12 12 0 0
BITMAP
0000
2700
6880
A880
2880
2980
2680
2080
2100
2220
0000
0000
ENDCHAR
STARTCHAR bm_0x249B
ENCODING 9371
SWIDTH 461 0
DWIDTH 12 0
BBX 12 12 0 0
BITMAP
0000
6300
9480
1480
1480
2480
2480
4480
8480
F320
0000
0000
ENDCHAR
STARTCHAR bm_0x2500
ENCODING 9472
SWIDTH 461 0
DWIDTH 12 0
BBX 12 12 0 0
BITMAP
0000
0000
0000
0000
0000
FFE0
0000
0000
0000
0000
0000
0000
ENDCHAR
STARTCHAR bm_0x2501
ENCODING 9473
SWIDTH 461 0
DWIDTH 12 0
BBX 12 12 0 0
BITMAP
0000
0000
0000
0000
0000
FFE0
FFE0
0000
0000
0000
0000
0000
ENDCHAR
STARTCHAR bm_0x2502
ENCODING 9474
SWIDTH 461 0
DWIDTH 3 0
BBX 1 12 0 0
BITMAP
80
80
80
80
80
80
80
80
80
80
80
80
ENDCHAR
STARTCHAR bm_0x2503
ENCODING 9475
SWIDTH 461 0
DWIDTH 4 0
BBX 2 12 0 0
BITMAP
C0
C0
C0
C0
C0
C0
C0
C0
C0
C0
C0
C0
ENDCHAR
STARTCHAR bm_0x2504
ENCODING 9476
SWIDTH 461 0
DWIDTH 12 0
BBX 12 12 0 0
BITMAP
0000
0000
0000
0000
0000
EEE0
0000
0000
0000
0000
0000
0000
ENDCHAR
STARTCHAR bm_0x2505
ENCODING 9477
SWIDTH 461 0
DWIDTH 12 0
BBX 12 12 0 0
BITMAP
0000
0000
0000
0000
0000
EEE0
EEE0
0000
0000
0000
0000
0000
ENDCHAR
STARTCHAR bm_0x2506
ENCODING 9478
SWIDTH 461 0
DWIDTH 3 0
BBX 1 12 0 0
BITMAP
80
80
80
00
80
80
80
00
80
80
80
00
ENDCHAR
STARTCHAR bm_0x2507
ENCODING 9479
SWIDTH 461 0
DWIDTH 4 0
BBX 2 12 0 0
BITMAP
C0
C0
C0
00
C0
C0
C0
00
C0
C0
C0
00
ENDCHAR
STARTCHAR bm_0x2508
ENCODING 9480
SWIDTH 461 0
DWIDTH 12 0
BBX 12 12 0 0
BITMAP
0000
0000
0000
0000
0000
DB60
0000
0000
0000
0000
0000
0000
ENDCHAR
STARTCHAR bm_0x2509
ENCODING 9481
SWIDTH 461 0
DWIDTH 12 0
BBX 12 12 0 0
BITMAP
0000
0000
0000
0000
0000
DB60
DB60
0000
0000
0000
0000
0000
ENDCHAR
STARTCHAR bm_0x250A
ENCODING 9482
SWIDTH 461 0
DWIDTH 3 0
BBX 1 12 0 0
BITMAP
80
80
00
80
80
00
80
80
00
80
80
00
ENDCHAR
STARTCHAR bm_0x250B
ENCODING 9483
SWIDTH 461 0
DWIDTH 4 0
BBX 2 12 0 0
BITMAP
C0
C0
00
C0
C0
00
C0
C0
00
C0
C0
00
ENDCHAR
STARTCHAR bm_0x250C
ENCODING 9484
SWIDTH 461 0
DWIDTH 8 0
BBX 6 12 0 0
BITMAP
00
00
00
00
00
FC
80
80
80
80
80
80
ENDCHAR
STARTCHAR bm_0x250D
ENCODING 9485
SWIDTH 461 0
DWIDTH 8 0
BBX 6 12 0 0
BITMAP
00
00
00
00
00
FC
FC
80
80
80
80
80
ENDCHAR
STARTCHAR bm_0x250E
ENCODING 9486
SWIDTH 461 0
DWIDTH 8 0
BBX 6 12 0 0
BITMAP
00
00
00
00
00
FC
C0
C0
C0
C0
C0
C0
ENDCHAR
STARTCHAR bm_0x250F
ENCODING 9487
SWIDTH 461 0
DWIDTH 8 0
BBX 6 12 0 0
BITMAP
00
00
00
00
00
FC
FC
C0
C0
C0
C0
C0
ENDCHAR
STARTCHAR bm_0x2510
ENCODING 9488
SWIDTH 461 0
DWIDTH 8 0
BBX 6 12 0 0
BITMAP
00
00
00
00
00
FC
04
04
04
04
04
04
ENDCHAR
STARTCHAR bm_0x2511
ENCODING 9489
SWIDTH 461 0
DWIDTH 8 0
BBX 6 12 0 0
BITMAP
00
00
00
00
00
FC
FC
04
04
04
04
04
ENDCHAR
STARTCHAR bm_0x2512
ENCODING 9490
SWIDTH 461 0
DWIDTH 9 0
BBX 7 12 0 0
BITMAP
00
00
00
00
00
FE
06
06
06
06
06
06
ENDCHAR
STARTCHAR bm_0x2513
ENCODING 9491
SWIDTH 461 0
DWIDTH 9 0
BBX 7 12 0 0
BITMAP
00
00
00
00
00
FE
FE
06
06
06
06
06
ENDCHAR
STARTCHAR bm_0x2514
ENCODING 9492
SWIDTH 461 0
DWIDTH 8 0
BBX 6 12 0 0
BITMAP
80
80
80
80
80
FC
00
00
00
00
00
00
ENDCHAR
STARTCHAR bm_0x2515
ENCODING 9493
SWIDTH 461 0
DWIDTH 8 0
BBX 6 12 0 0
BITMAP
80
80
80
80
80
FC
FC
00
00
00
00
00
ENDCHAR
STARTCHAR bm_0x2516
ENCODING 9494
SWIDTH 461 0
DWIDTH 8 0
BBX 6 12 0 0
BITMAP
C0
C0
C0
C0
C0
FC
00
00
00
00
00
00
ENDCHAR
STARTCHAR bm_0x2517
ENCODING 9495
SWIDTH 461 0
DWIDTH 8 0
BBX 6 12 0 0
BITMAP
C0
C0
C0
C0
C0
FC
FC
00
00
00
00
00
ENDCHAR
STARTCHAR bm_0x2518
ENCODING 9496
SWIDTH 461 0
DWIDTH 8 0
BBX 6 12 0 0
BITMAP
04
04
04
04
04
FC
00
00
00
00
00
00
ENDCHAR
STARTCHAR bm_0x2519
ENCODING 9497
SWIDTH 461 0
DWIDTH 8 0
BBX 6 12 0 0
BITMAP
04
04
04
04
04
FC
FC
00
00
00
00
00
ENDCHAR
STARTCHAR bm_0x251A
ENCODING 9498
SWIDTH 461 0
DWIDTH 9 0
BBX 7 12 0 0
BITMAP
06
06
06
06
06
FE
00
00
00
00
00
00
ENDCHAR
STARTCHAR bm_0x251B
ENCODING 9499
SWIDTH 461 0
DWIDTH 9 0
BBX 7 12 0 0
BITMAP
06
06
06
06
06
FE
FE
00
00
00
00
00
ENDCHAR
STARTCHAR bm_0x251C
ENCODING 9500
SWIDTH 461 0
DWIDTH 8 0
BBX 6 12 0 0
BITMAP
80
80
80
80
80
FC
80
80
80
80
80
80
ENDCHAR
STARTCHAR bm_0x251D
ENCODING 9501
SWIDTH 461 0
DWIDTH 8 0
BBX 6 12 0 0
BITMAP
80
80
80
80
80
FC
FC
80
80
80
80
80
ENDCHAR
STARTCHAR bm_0x251E
ENCODING 9502
SWIDTH 461 0
DWIDTH 8 0
BBX 6 12 0 0
BITMAP
C0
C0
C0
C0
C0
FC
80
80
80
80
80
80
ENDCHAR
STARTCHAR bm_0x251F
ENCODING 9503
SWIDTH 461 0
DWIDTH 8 0
BBX 6 12 0 0
BITMAP
80
80
80
80
80
FC
C0
C0
C0
C0
C0
C0
ENDCHAR
STARTCHAR bm_0x2520
ENCODING 9504
SWIDTH 461 0
DWIDTH 8 0
BBX 6 12 0 0
BITMAP
C0
C0
C0
C0
C0
FC
C0
C0
C0
C0
C0
C0
ENDCHAR
STARTCHAR bm_0x2521
ENCODING 9505
SWIDTH 461 0
DWIDTH 8 0
BBX 6 12 0 0
BITMAP
C0
C0
C0
C0
C0
FC
FC
80
80
80
80
80
ENDCHAR
STARTCHAR bm_0x2522
ENCODING 9506
SWIDTH 461 0
DWIDTH 8 0
BBX 6 12 0 0
BITMAP
80
80
80
80
80
FC
FC
C0
C0
C0
C0
C0
ENDCHAR
STARTCHAR bm_0x2523
ENCODING 9507
SWIDTH 461 0
DWIDTH 8 0
BBX 6 12 0 0
BITMAP
C0
C0
C0
C0
C0
FC
FC
C0
C0
C0
C0
C0
ENDCHAR
STARTCHAR bm_0x2524
ENCODING 9508
SWIDTH 461 0
DWIDTH 8 0
BBX 6 12 0 0
BITMAP
04
04
04
04
04
FC
04
04
04
04
04
04
ENDCHAR
STARTCHAR bm_0x2525
ENCODING 9509
SWIDTH 461 0
DWIDTH 8 0
BBX 6 12 0 0
BITMAP
04
04
04
04
04
FC
FC
04
04
04
04
04
ENDCHAR
STARTCHAR bm_0x2526
ENCODING 9510
SWIDTH 461 0
DWIDTH 9 0
BBX 7 12 0 0
BITMAP
06
06
06
06
06
FE
04
04
04
04
04
04
ENDCHAR
STARTCHAR bm_0x2527
ENCODING 9511
SWIDTH 461 0
DWIDTH 9 0
BBX 7 12 0 0
BITMAP
04
04
04
04
04
FE
06
06
06
06
06
06
ENDCHAR
STARTCHAR bm_0x2528
ENCODING 9512
SWIDTH 461 0
DWIDTH 9 0
BBX 7 12 0 0
BITMAP
06
06
06
06
06
FE
06
06
06
06
06
06
ENDCHAR
STARTCHAR bm_0x2529
ENCODING 9513
SWIDTH 461 0
DWIDTH 9 0
BBX 7 12 0 0
BITMAP
06
06
06
06
06
FE
FE
04
04
04
04
04
ENDCHAR
STARTCHAR bm_0x252A
ENCODING 9514
SWIDTH 461 0
DWIDTH 9 0
BBX 7 12 0 0
BITMAP
04
04
04
04
04
FE
FE
06
06
06
06
06
ENDCHAR
STARTCHAR bm_0x252B
ENCODING 9515
SWIDTH 461 0
DWIDTH 9 0
BBX 7 12 0 0
BITMAP
06
06
06
06
06
FE
FE
06
06
06
06
06
ENDCHAR
STARTCHAR bm_0x252C
ENCODING 9516
SWIDTH 461 0
DWIDTH 12 0
BBX 12 12 0 0
BITMAP
0000
0000
0000
0000
0000
FFE0
0400
0400
0400
0400
0400
0400
ENDCHAR
STARTCHAR bm_0x252D
ENCODING 9517
SWIDTH 461 0
DWIDTH 12 0
BBX 12 12 0 0
BITMAP
0000
0000
0000
0000
0000
FFE0
FC00
0400
0400
0400
0400
0400
ENDCHAR
STARTCHAR bm_0x252E
ENCODING 9518
SWIDTH 461 0
DWIDTH 12 0
BBX 12 12 0 0
BITMAP
0000
0000
0000
0000
0000
FFE0
07E0
0400
0400
0400
0400
0400
ENDCHAR
STARTCHAR bm_0x252F
ENCODING 9519
SWIDTH 461 0
DWIDTH 12 0
BBX 12 12 0 0
BITMAP
0000
0000
0000
0000
0000
FFE0
FFE0
0400
0400
0400
0400
0400
ENDCHAR
STARTCHAR bm_0x2530
ENCODING 9520
SWIDTH 461 0
DWIDTH 12 0
BBX 12 12 0 0
BITMAP
0000
0000
0000
0000
0000
FFE0
0600
0600
0600
0600
0600
0600
ENDCHAR
STARTCHAR bm_0x2531
ENCODING 9521
SWIDTH 461 0
DWIDTH 12 0
BBX 12 12 0 0
BITMAP
0000
0000
0000
0000
0000
FFE0
FE00
0600
0600
0600
0600
0600
ENDCHAR
STARTCHAR bm_0x2532
ENCODING 9522
SWIDTH 461 0
DWIDTH 12 0
BBX 12 12 0 0
BITMAP
0000
0000
0000
0000
0000
FFE0
07E0
0600
0600
0600
0600
0600
ENDCHAR
STARTCHAR bm_0x2533
ENCODING 9523
SWIDTH 461 0
DWIDTH 12 0
BBX 12 12 0 0
BITMAP
0000
0000
0000
0000
0000
FFE0
FFE0
0600
0600
0600
0600
0600
ENDCHAR
STARTCHAR bm_0x2534
ENCODING 9524
SWIDTH 461 0
DWIDTH 12 0
BBX 12 12 0 0
BITMAP
0400
0400
0400
0400
0400
FFE0
0000
0000
0000
0000
0000
0000
ENDCHAR
STARTCHAR bm_0x2535
ENCODING 9525
SWIDTH 461 0
DWIDTH 12 0
BBX 12 12 0 0
BITMAP
0400
0400
0400
0400
0400
FFE0
FC00
0000
0000
0000
0000
0000
ENDCHAR
STARTCHAR bm_0x2536
ENCODING 9526
SWIDTH 461 0
DWIDTH 12 0
BBX 12 12 0 0
BITMAP
0400
0400
0400
0400
0400
FFE0
07E0
0000
0000
0000
0000
0000
ENDCHAR
STARTCHAR bm_0x2537
ENCODING 9527
SWIDTH 461 0
DWIDTH 12 0
BBX 12 12 0 0
BITMAP
0400
0400
0400
0400
0400
FFE0
FFE0
0000
0000
0000
0000
0000
ENDCHAR
STARTCHAR bm_0x2538
ENCODING 9528
SWIDTH 461 0
DWIDTH 12 0
BBX 12 12 0 0
BITMAP
0600
0600
0600
0600
0600
FFE0
0000
0000
0000
0000
0000
0000
ENDCHAR
STARTCHAR bm_0x2539
ENCODING 9529
SWIDTH 461 0
DWIDTH 12 0
BBX 12 12 0 0
BITMAP
0600
0600
0600
0600
0600
FFE0
FE00
0000
0000
0000
0000
0000
ENDCHAR
STARTCHAR bm_0x253A
ENCODING 9530
SWIDTH 461 0
DWIDTH 12 0
BBX 12 12 0 0
BITMAP
0600
0600
0600
0600
0600
FFE0
07E0
0000
0000
0000
0000
0000
ENDCHAR
STARTCHAR bm_0x253B
ENCODING 9531
SWIDTH 461 0
DWIDTH 12 0
BBX 12 12 0 0
BITMAP
0600
0600
0600
0600
0600
FFE0
FFE0
0000
0000
0000
0000
0000
ENDCHAR
STARTCHAR bm_0x253C
ENCODING 9532
SWIDTH 461 0
DWIDTH 12 0
BBX 12 12 0 0
BITMAP
0400
0400
0400
0400
0400
FFE0
0400
0400
0400
0400
0400
0400
ENDCHAR
STARTCHAR bm_0x253D
ENCODING 9533
SWIDTH 461 0
DWIDTH 12 0
BBX 12 12 0 0
BITMAP
0400
0400
0400
0400
0400
FFE0
FC00
0400
0400
0400
0400
0400
ENDCHAR
STARTCHAR bm_0x253E
ENCODING 9534
SWIDTH 461 0
DWIDTH 12 0
BBX 12 12 0 0
BITMAP
0400
0400
0400
0400
0400
FFE0
07E0
0400
0400
0400
0400
0400
ENDCHAR
STARTCHAR bm_0x253F
ENCODING 9535
SWIDTH 461 0
DWIDTH 12 0
BBX 12 12 0 0
BITMAP
0400
0400
0400
0400
0400
FFE0
FFE0
0400
0400
0400
0400
0400
ENDCHAR
STARTCHAR bm_0x2540
ENCODING 9536
SWIDTH 461 0
DWIDTH 12 0
BBX 12 12 0 0
BITMAP
0600
0600
0600
0600
0600
FFE0
0400
0400
0400
0400
0400
0400
ENDCHAR
STARTCHAR bm_0x2541
ENCODING 9537
SWIDTH 461 0
DWIDTH 12 0
BBX 12 12 0 0
BITMAP
0400
0400
0400
0400
0400
FFE0
0600
0600
0600
0600
0600
0600
ENDCHAR
STARTCHAR bm_0x2542
ENCODING 9538
SWIDTH 461 0
DWIDTH 12 0
BBX 12 12 0 0
BITMAP
0600
0600
0600
0600
0600
FFE0
0600
0600
0600
0600
0600
0600
ENDCHAR
STARTCHAR bm_0x2543
ENCODING 9539
SWIDTH 461 0
DWIDTH 12 0
BBX 12 12 0 0
BITMAP
0600
0600
0600
0600
0600
FFE0
FC00
0400
0400
0400
0400
0400
ENDCHAR
STARTCHAR bm_0x2544
ENCODING 9540
SWIDTH 461 0
DWIDTH 12 0
BBX 12 12 0 0
BITMAP
0600
0600
0600
0600
0600
FFE0
07E0
0400
0400
0400
0400
0400
ENDCHAR
STARTCHAR bm_0x2545
ENCODING 9541
SWIDTH 461 0
DWIDTH 12 0
BBX 12 12 0 0
BITMAP
0400
0400
0400
0400
0400
FFE0
FE00
0600
0600
0600
0600
0600
ENDCHAR
STARTCHAR bm_0x2546
ENCODING 9542
SWIDTH 461 0
DWIDTH 12 0
BBX 12 12 0 0
BITMAP
0400
0400
0400
0400
0400
FFE0
07E0
0600
0600
0600
0600
0600
ENDCHAR
STARTCHAR bm_0x2547
ENCODING 9543
SWIDTH 461 0
DWIDTH 12 0
BBX 12 12 0 0
BITMAP
0600
0600
0600
0600
0600
FFE0
FFE0
0400
0400
0400
0400
0400
ENDCHAR
STARTCHAR bm_0x2548
ENCODING 9544
SWIDTH 461 0
DWIDTH 12 0
BBX 12 12 0 0
BITMAP
0400
0400
0400
0400
0400
FFE0
FFE0
0600
0600
0600
0600
0600
ENDCHAR
STARTCHAR bm_0x2549
ENCODING 9545
SWIDTH 461 0
DWIDTH 12 0
BBX 12 12 0 0
BITMAP
0600
0600
0600
0600
0600
FFE0
FE00
0600
0600
0600
0600
0600
ENDCHAR
STARTCHAR bm_0x254A
ENCODING 9546
SWIDTH 461 0
DWIDTH 12 0
BBX 12 12 0 0
BITMAP
0600
0600
0600
0600
0600
FFE0
07E0
0600
0600
0600
0600
0600
ENDCHAR
STARTCHAR bm_0x254B
ENCODING 9547
SWIDTH 461 0
DWIDTH 12 0
BBX 12 12 0 0
BITMAP
0600
0600
0600
0600
0600
FFE0
FFE0
0600
0600
0600
0600
0600
ENDCHAR
STARTCHAR bm_0x2550
ENCODING 9552
SWIDTH 461 0
DWIDTH 12 0
BBX 12 12 0 0
BITMAP
0000
0000
0000
0000
FFE0
0000
FFE0
0000
0000
0000
0000
0000
ENDCHAR
STARTCHAR bm_0x2551
ENCODING 9553
SWIDTH 461 0
DWIDTH 5 0
BBX 3 12 0 0
BITMAP
A0
A0
A0
A0
A0
A0
A0
A0
A0
A0
A0
A0
ENDCHAR
STARTCHAR bm_0x2552
ENCODING 9554
SWIDTH 461 0
DWIDTH 7 0
BBX 5 12 0 0
BITMAP
00
00
00
00
F8
80
F8
80
80
80
80
80
ENDCHAR
STARTCHAR bm_0x2553
ENCODING 9555
SWIDTH 461 0
DWIDTH 9 0
BBX 7 12 0 0
BITMAP
00
00
00
00
00
00
FE
A0
A0
A0
A0
A0
ENDCHAR
STARTCHAR bm_0x2554
ENCODING 9556
SWIDTH 461 0
DWIDTH 9 0
BBX 7 12 0 0
BITMAP
00
00
00
00
FE
80
BE
A0
A0
A0
A0
A0
ENDCHAR
STARTCHAR bm_0x2555
ENCODING 9557
SWIDTH 461 0
DWIDTH 7 0
BBX 5 12 0 0
BITMAP
00
00
00
00
F8
08
F8
08
08
08
08
08
ENDCHAR
STARTCHAR bm_0x2556
ENCODING 9558
SWIDTH 461 0
DWIDTH 9 0
BBX 7 12 0 0
BITMAP
00
00
00
00
00
00
FE
0A
0A
0A
0A
0A
ENDCHAR
STARTCHAR bm_0x2557
ENCODING 9559
SWIDTH 461 0
DWIDTH 9 0
BBX 7 12 0 0
BITMAP
00
00
00
00
FE
02
FA
0A
0A
0A
0A
0A
ENDCHAR
STARTCHAR bm_0x2558
ENCODING 9560
SWIDTH 461 0
DWIDTH 7 0
BBX 5 12 0 0
BITMAP
80
80
80
80
F8
80
F8
00
00
00
00
00
ENDCHAR
STARTCHAR bm_0x2559
ENCODING 9561
SWIDTH 461 0
DWIDTH 9 0
BBX 7 12 0 0
BITMAP
A0
A0
A0
A0
FE
00
00
00
00
00
00
00
ENDCHAR
STARTCHAR bm_0x255A
ENCODING 9562
SWIDTH 461 0
DWIDTH 9 0
BBX 7 12 0 0
BITMAP
A0
A0
A0
A0
BE
80
FE
00
00
00
00
00
ENDCHAR
STARTCHAR bm_0x255B
ENCODING 9563
SWIDTH 461 0
DWIDTH 7 0
BBX 5 12 0 0
BITMAP
08
08
08
08
F8
08
F8
00
00
00
00
00
ENDCHAR
STARTCHAR bm_0x255C
ENCODING 9564
SWIDTH 461 0
DWIDTH 9 0
BBX 7 12 0 0
BITMAP
0A
0A
0A
0A
FE
00
00
00
00
00
00
00
ENDCHAR
STARTCHAR bm_0x255D
ENCODING 9565
SWIDTH 461 0
DWIDTH 9 0
BBX 7 12 0 0
BITMAP
0A
0A
0A
0A
FA
02
FE
00
00
00
00
00
ENDCHAR
STARTCHAR bm_0x255E
ENCODING 9566
SWIDTH 461 0
DWIDTH 7 0
BBX 5 12 0 0
BITMAP
80
80
80
80
F8
80
F8
80
80
80
80
80
ENDCHAR
STARTCHAR bm_0x255F
ENCODING 9567
SWIDTH 461 0
DWIDTH 9 0
BBX 7 12 0 0
BITMAP
A0
A0
A0
A0
BE
A0
A0
A0
A0
A0
A0
A0
ENDCHAR
STARTCHAR bm_0x2560
ENCODING 9568
SWIDTH 461 0
DWIDTH 9 0
BBX 7 12 0 0
BITMAP
A0
A0
A0
A0
BE
80
BE
A0
A0
A0
A0
A0
ENDCHAR
STARTCHAR bm_0x2561
ENCODING 9569
SWIDTH 461 0
DWIDTH 7 0
BBX 5 12 0 0
BITMAP
08
08
08
08
F8
08
F8
08
08
08
08
08
ENDCHAR
STARTCHAR bm_0x2562
ENCODING 9570
SWIDTH 461 0
DWIDTH 9 0
BBX 7 12 0 0
BITMAP
0A
0A
0A
0A
FA
0A
0A
0A
0A
0A
0A
0A
ENDCHAR
STARTCHAR bm_0x2563
ENCODING 9571
SWIDTH 461 0
DWIDTH 9 0
BBX 7 12 0 0
BITMAP
0A
0A
0A
0A
FA
02
FA
0A
0A
0A
0A
0A
ENDCHAR
STARTCHAR bm_0x2564
ENCODING 9572
SWIDTH 461 0
DWIDTH 12 0
BBX 12 12 0 0
BITMAP
0000
0000
0000
0000
FFE0
0000
FFE0
0800
0800
0800
0800
0800
ENDCHAR
STARTCHAR bm_0x2565
ENCODING 9573
SWIDTH 461 0
DWIDTH 12 0
BBX 12 12 0 0
BITMAP
0000
0000
0000
0000
0000
0000
FFE0
0A00
0A00
0A00
0A00
0A00
ENDCHAR
STARTCHAR bm_0x2566
ENCODING 9574
SWIDTH 461 0
DWIDTH 12 0
BBX 12 12 0 0
BITMAP
0000
0000
0000
0000
FFE0
0000
FBE0
0A00
0A00
0A00
0A00
0A00
ENDCHAR
STARTCHAR bm_0x2567
ENCODING 9575
SWIDTH 461 0
DWIDTH 12 0
BBX 12 12 0 0
BITMAP
0800
0800
0800
0800
FFE0
0000
FFE0
0000
0000
0000
0000
0000
ENDCHAR
STARTCHAR bm_0x2568
ENCODING 9576
SWIDTH 461 0
DWIDTH 12 0
BBX 12 12 0 0
BITMAP
0A00
0A00
0A00
0A00
FFE0
0000
0000
0000
0000
0000
0000
0000
ENDCHAR
STARTCHAR bm_0x2569
ENCODING 9577
SWIDTH 461 0
DWIDTH 12 0
BBX 12 12 0 0
BITMAP
0A00
0A00
0A00
0A00
FBE0
0000
FFE0
0000
0000
0000
0000
0000
ENDCHAR
STARTCHAR bm_0x256A
ENCODING 9578
SWIDTH 461 0
DWIDTH 12 0
BBX 12 12 0 0
BITMAP
0800
0800
0800
0800
FFE0
0800
FFE0
0800
0800
0800
0800
0800
ENDCHAR
STARTCHAR bm_0x256B
ENCODING 9579
SWIDTH 461 0
DWIDTH 12 0
BBX 12 12 0 0
BITMAP
0A00
0A00
0A00
0A00
0A00
0A00
FFE0
0A00
0A00
0A00
0A00
0A00
ENDCHAR
STARTCHAR bm_0x256C
ENCODING 9580
SWIDTH 461 0
DWIDTH 12 0
BBX 12 12 0 0
BITMAP
0A00
0A00
0A00
0A00
FBE0
0000
FBE0
0A00
0A00
0A00
0A00
0A00
ENDCHAR
STARTCHAR bm_0x256D
ENCODING 9581
SWIDTH 461 0
DWIDTH 8 0
BBX 6 12 0 0
BITMAP
00
00
00
00
0C
30
40
40
80
80
00
00
ENDCHAR
STARTCHAR bm_0x256E
ENCODING 9582
SWIDTH 461 0
DWIDTH 8 0
BBX 6 12 0 0
BITMAP
00
00
00
00
C0
30
08
08
04
04
00
00
ENDCHAR
STARTCHAR bm_0x256F
ENCODING 9583
SWIDTH 461 0
DWIDTH 8 0
BBX 6 12 0 0
BITMAP
04
04
08
08
30
C0
00
00
00
00
00
00
ENDCHAR
STARTCHAR bm_0x2570
ENCODING 9584
SWIDTH 461 0
DWIDTH 8 0
BBX 6 12 0 0
BITMAP
80
80
40
40
30
0C
00
00
00
00
00
00
ENDCHAR
STARTCHAR bm_0x2571
ENCODING 9585
SWIDTH 461 0
DWIDTH 12 0
BBX 12 12 0 0
BITMAP
0020
0040
0080
0100
0200
0400
0800
1000
2000
4000
8000
0000
ENDCHAR
STARTCHAR bm_0x2572
ENCODING 9586
SWIDTH 461 0
DWIDTH 12 0
BBX 12 12 0 0
BITMAP
8000
4000
2000
1000
0800
0400
0200
0100
0080
0040
0020
0000
ENDCHAR
STARTCHAR bm_0x2573
ENCODING 9587
SWIDTH 461 0
DWIDTH 12 0
BBX 12 12 0 0
BITMAP
0000
8020
4040
2080
1100
0A00
0400
0A00
1100
2080
4040
8020
ENDCHAR
STARTCHAR bm_0x2581
ENCODING 9601
SWIDTH 461 0
DWIDTH 12 0
BBX 12 12 0 0
BITMAP
0000
0000
0000
0000
0000
0000
0000
0000
0000
0000
FFE0
FFE0
ENDCHAR
STARTCHAR bm_0x2582
ENCODING 9602
SWIDTH 461 0
DWIDTH 12 0
BBX 12 12 0 0
BITMAP
0000
0000
0000
0000
0000
0000
0000
0000
0000
FFE0
FFE0
FFE0
ENDCHAR
STARTCHAR bm_0x2583
ENCODING 9603
SWIDTH 461 0
DWIDTH 12 0
BBX 12 12 0 0
BITMAP
0000
0000
0000
0000
0000
0000
0000
FFE0
FFE0
FFE0
FFE0
FFE0
ENDCHAR
STARTCHAR bm_0x2584
ENCODING 9604
SWIDTH 461 0
DWIDTH 12 0
BBX 12 12 0 0
BITMAP
0000
0000
0000
0000
0000
0000
FFE0
FFE0
FFE0
FFE0
FFE0
FFE0
ENDCHAR
STARTCHAR bm_0x2585
ENCODING 9605
SWIDTH 461 0
DWIDTH 12 0
BBX 12 12 0 0
BITMAP
0000
0000
0000
0000
FFE0
FFE0
FFE0
FFE0
FFE0
FFE0
FFE0
FFE0
ENDCHAR
STARTCHAR bm_0x2586
ENCODING 9606
SWIDTH 461 0
DWIDTH 12 0
BBX 12 12 0 0
BITMAP
0000
0000
0000
FFE0
FFE0
FFE0
FFE0
FFE0
FFE0
FFE0
FFE0
FFE0
ENDCHAR
STARTCHAR bm_0x2587
ENCODING 9607
SWIDTH 461 0
DWIDTH 12 0
BBX 12 12 0 0
BITMAP
0000
FFE0
FFE0
FFE0
FFE0
FFE0
FFE0
FFE0
FFE0
FFE0
FFE0
FFE0
ENDCHAR
STARTCHAR bm_0x2588
ENCODING 9608
SWIDTH 461 0
DWIDTH 12 0
BBX 12 12 0 0
BITMAP
FFE0
FFE0
FFE0
FFE0
FFE0
FFE0
FFE0
FFE0
FFE0
FFE0
FFE0
FFE0
ENDCHAR
STARTCHAR bm_0x2589
ENCODING 9609
SWIDTH 461 0
DWIDTH 12 0
BBX 12 12 0 0
BITMAP
FFE0
FFE0
FFE0
FFE0
FFE0
FFE0
FFE0
FFE0
FFE0
FFE0
FFE0
FFE0
ENDCHAR
STARTCHAR bm_0x258A
ENCODING 9610
SWIDTH 461 0
DWIDTH 11 0
BBX 9 12 0 0
BITMAP
FF80
FF80
FF80
FF80
FF80
FF80
FF80
FF80
FF80
FF80
FF80
FF80
ENDCHAR
STARTCHAR bm_0x258B
ENCODING 9611
SWIDTH 461 0
DWIDTH 10 0
BBX 8 12 0 0
BITMAP
FF
FF
FF
FF
FF
FF
FF
FF
FF
FF
FF
FF
ENDCHAR
STARTCHAR bm_0x258C
ENCODING 9612
SWIDTH 461 0
DWIDTH 8 0
BBX 6 12 0 0
BITMAP
FC
FC
FC
FC
FC
FC
FC
FC
FC
FC
FC
FC
ENDCHAR
STARTCHAR bm_0x258D
ENCODING 9613
SWIDTH 461 0
DWIDTH 7 0
BBX 5 12 0 0
BITMAP
F8
F8
F8
F8
F8
F8
F8
F8
F8
F8
F8
F8
ENDCHAR
STARTCHAR bm_0x258E
ENCODING 9614
SWIDTH 461 0
DWIDTH 5 0
BBX 3 12 0 0
BITMAP
E0
E0
E0
E0
E0
E0
E0
E0
E0
E0
E0
E0
ENDCHAR
STARTCHAR bm_0x258F
ENCODING 9615
SWIDTH 461 0
DWIDTH 4 0
BBX 2 12 0 0
BITMAP
C0
C0
C0
C0
C0
C0
C0
C0
C0
C0
C0
C0
ENDCHAR
STARTCHAR bm_0x2593
ENCODING 9619
SWIDTH 461 0
DWIDTH 12 0
BBX 12 12 0 0
BITMAP
FFE0
AAA0
FFE0
5540
FFE0
AAA0
FFE0
5540
FFE0
AAA0
FFE0
5540
ENDCHAR
STARTCHAR bm_0x2594
ENCODING 9620
SWIDTH 461 0
DWIDTH 12 0
BBX 12 12 0 0
BITMAP
FFE0
FFE0
0000
0000
0000
0000
0000
0000
0000
0000
0000
0000
ENDCHAR
STARTCHAR bm_0x2595
ENCODING 9621
SWIDTH 461 0
DWIDTH 4 0
BBX 2 12 0 0
BITMAP
C0
C0
C0
C0
C0
C0
C0
C0
C0
C0
C0
C0
ENDCHAR
STARTCHAR bm_0x25A0
ENCODING 9632
SWIDTH 461 0
DWIDTH 11 0
BBX 9 12 0 0
BITMAP
0000
FF80
FF80
FF80
FF80
FF80
FF80
FF80
FF80
FF80
0000
0000
ENDCHAR
STARTCHAR bm_0x25A1
ENCODING 9633
SWIDTH 461 0
DWIDTH 11 0
BBX 9 12 0 0
BITMAP
0000
FF80
8080
8080
8080
8080
8080
8080
8080
FF80
0000
0000
ENDCHAR
STARTCHAR bm_0x25B2
ENCODING 9650
SWIDTH 461 0
DWIDTH 12 0
BBX 12 12 0 0
BITMAP
0000
0400
0E00
0E00
1F00
1F00
3F80
3F80
7FC0
FFE0
0000
0000
ENDCHAR
STARTCHAR bm_0x25B3
ENCODING 9651
SWIDTH 461 0
DWIDTH 12 0
BBX 12 12 0 0
BITMAP
0000
0400
0A00
0A00
1100
1100
2080
2080
4040
FFE0
0000
0000
ENDCHAR
STARTCHAR bm_0x25BC
ENCODING 9660
SWIDTH 461 0
DWIDTH 12 0
BBX 12 12 0 0
BITMAP
0000
FFE0
7FC0
3F80
3F80
1F00
1F00
0E00
0E00
0400
0000
0000
ENDCHAR
STARTCHAR bm_0x25BD
ENCODING 9661
SWIDTH 461 0
DWIDTH 11 0
BBX 9 12 0 0
BITMAP
0000
FF80
8080
4100
4100
2200
2200
1400
1400
0800
0800
0000
ENDCHAR
STARTCHAR bm_0x25C6
ENCODING 9670
SWIDTH 461 0
DWIDTH 12 0
BBX 12 12 0 0
BITMAP
0400
0E00
1F00
3F80
7FC0
FFE0
7FC0
3F80
1F00
0E00
0400
0000
ENDCHAR
STARTCHAR bm_0x25C7
ENCODING 9671
SWIDTH 461 0
DWIDTH 12 0
BBX 12 12 0 0
BITMAP
0400
0A00
1100
2080
4040
8020
4040
2080
1100
0A00
0400
0000
ENDCHAR
STARTCHAR bm_0x25CB
ENCODING 9675
SWIDTH 461 0
DWIDTH 11 0
BBX 9 12 0 0
BITMAP
0000
1C00
2200
4100
8080
8080
8080
4100
2200
1C00
0000
0000
ENDCHAR
STARTCHAR bm_0x25CE
ENCODING 9678
SWIDTH 461 0
DWIDTH 11 0
BBX 9 12 0 0
BITMAP
0000
3E00
4100
9C80
A280
A280
A280
9C80
4100
3E00
0000
0000
ENDCHAR
STARTCHAR bm_0x25CF
ENCODING 9679
SWIDTH 461 0
DWIDTH 12 0
BBX 12 12 0 0
BITMAP
0000
0E00
3F80
7FC0
7FC0
FFE0
FFE0
FFE0
7FC0
7FC0
3F80
0E00
ENDCHAR
STARTCHAR bm_0x25E2
ENCODING 9698
SWIDTH 461 0
DWIDTH 8 0
BBX 6 12 0 0
BITMAP
00
00
00
00
00
00
04
0C
1C
3C
7C
FC
ENDCHAR
STARTCHAR bm_0x25E3
ENCODING 9699
SWIDTH 461 0
DWIDTH 8 0
BBX 6 12 0 0
BITMAP
00
00
00
00
00
00
80
C0
E0
F0
F8
FC
ENDCHAR
STARTCHAR bm_0x25E4
ENCODING 9700
SWIDTH 461 0
DWIDTH 8 0
BBX 6 12 0 0
BITMAP
FC
F8
F0
E0
C0
80
00
00
00
00
00
00
ENDCHAR
STARTCHAR bm_0x25E5
ENCODING 9701
SWIDTH 461 0
DWIDTH 8 0
BBX 6 12 0 0
BITMAP
FC
7C
3C
1C
0C
04
00
00
00
00
00
00
ENDCHAR
STARTCHAR bm_0x2605
ENCODING 9733
SWIDTH 461 0
DWIDTH 12 0
BBX 12 12 0 0
BITMAP
0400
0400
0E00
0E00
FFE0
7FC0
3F80
1F00
1F00
3F80
3180
4040
ENDCHAR
STARTCHAR bm_0x2606
ENCODING 9734
SWIDTH 461 0
DWIDTH 12 0
BBX 12 12 0 0
BITMAP
0400
0400
0A00
0A00
F1E0
4040
2080
1100
1100
2E80
3180
4040
ENDCHAR
STARTCHAR bm_0x2609
ENCODING 9737
SWIDTH 461 0
DWIDTH 9 0
BBX 7 12 0 0
BITMAP
00
00
00
38
44
82
92
82
44
38
00
00
ENDCHAR
STARTCHAR bm_0x2640
ENCODING 9792
SWIDTH 461 0
DWIDTH 7 0
BBX 5 12 0 0
BITMAP
00
70
88
88
88
70
20
20
F8
20
20
00
ENDCHAR
STARTCHAR bm_0x2642
ENCODING 9794
SWIDTH 461 0
DWIDTH 7 0
BBX 5 12 0 0
BITMAP
20
20
70
A8
20
20
70
88
88
88
70
00
ENDCHAR
STARTCHAR bm_0x2701
ENCODING 9985
SWIDTH 461 0
DWIDTH 12 0
BBX 12 12 0 0
BITMAP
FFE0
0800
0800
1000
1F80
0080
0000
0000
0000
0000
0000
0000
ENDCHAR
STARTCHAR bm_0x2702
ENCODING 9986
SWIDTH 461 0
DWIDTH 7 0
BBX 5 12 0 0
BITMAP
08
08
08
C8
30
00
40
40
40
40
40
40
ENDCHAR
STARTCHAR bm_0x2703
ENCODING 9987
SWIDTH 461 0
DWIDTH 12 0
BBX 12 12 0 0
BITMAP
0400
0400
0400
0400
FFE0
0000
0000
0000
0000
0000
0000
0000
ENDCHAR
STARTCHAR bm_0x2707
ENCODING 9991
SWIDTH 461 0
DWIDTH 12 0
BBX 12 12 0 0
BITMAP
0000
0000
0000
0000
0000
0000
FFE0
0400
0400
0400
0400
0400
ENDCHAR
STARTCHAR bm_0x2709
ENCODING 9993
SWIDTH 461 0
DWIDTH 3 0
BBX 1 12 0 0
BITMAP
80
80
80
80
80
00
00
00
00
00
00
00
ENDCHAR
STARTCHAR bm_0x270B
ENCODING 9995
SWIDTH 461 0
DWIDTH 12 0
BBX 12 12 0 0
BITMAP
0000
0000
0000
0000
0000
0000
0040
FFE0
0800
0800
1000
1000
ENDCHAR
STARTCHAR bm_0x270F
ENCODING 9999
SWIDTH 461 0
DWIDTH 5 0
BBX 3 12 0 0
BITMAP
00
00
00
00
00
00
20
C0
00
00
00
00
ENDCHAR
STARTCHAR bm_0x2710
ENCODING 10000
SWIDTH 461 0
DWIDTH 12 0
BBX 12 12 0 0
BITMAP
FFE0
0400
2400
27C0
4440
4440
7FC0
0040
0040
0440
0380
0000
ENDCHAR
STARTCHAR bm_0x2711
ENCODING 10001
SWIDTH 461 0
DWIDTH 11 0
BBX 9 12 0 0
BITMAP
0000
0000
0000
0000
0000
0000
FF80
1080
1080
7080
1880
1480
ENDCHAR
STARTCHAR bm_0x2713
ENCODING 10003
SWIDTH 461 0
DWIDTH 12 0
BBX 12 12 0 0
BITMAP
1040
2040
4380
0000
FFE0
0000
0000
0000
0000
0000
0000
0000
ENDCHAR
STARTCHAR bm_0x2714
ENCODING 10004
SWIDTH 461 0
DWIDTH 12 0
BBX 12 12 0 0
BITMAP
0000
0000
0000
0000
0000
0000
0400
2440
2440
2440
FFE0
2440
ENDCHAR
STARTCHAR bm_0x2717
ENCODING 10007
SWIDTH 461 0
DWIDTH 12 0
BBX 12 12 0 0
BITMAP
2440
2440
2440
2440
3FC0
0000
7FC0
0400
0400
3F80
0400
FFE0
ENDCHAR
STARTCHAR bm_0x2718
ENCODING 10008
SWIDTH 461 0
DWIDTH 10 0
BBX 8 12 0 0
BITMAP
00
00
00
00
00
00
10
20
42
81
FF
00
ENDCHAR
STARTCHAR bm_0x2719
ENCODING 10009
SWIDTH 461 0
DWIDTH 12 0
BBX 12 12 0 0
BITMAP
0000
0000
0000
0000
0000
0000
0900
0900
0960
F980
0900
0900
ENDCHAR
STARTCHAR bm_0x271A
ENCODING 10010
SWIDTH 461 0
DWIDTH 12 0
BBX 12 12 0 0
BITMAP
0000
0000
0000
0000
0000
0000
3920
C920
09E0
0000
FFE0
0000
ENDCHAR
STARTCHAR bm_0x271B
ENCODING 10011
SWIDTH 461 0
DWIDTH 12 0
BBX 12 12 0 0
BITMAP
0000
0000
0000
0000
0000
0000
FFE0
0400
0400
7FC0
4440
5540
ENDCHAR
STARTCHAR bm_0x271E
ENCODING 10014
SWIDTH 461 0
DWIDTH 11 0
BBX 9 12 0 0
BITMAP
AA80
AA80
BE80
8080
8380
0000
0000
0000
0000
0000
0000
0000
ENDCHAR
STARTCHAR bm_0x2720
ENCODING 10016
SWIDTH 461 0
DWIDTH 12 0
BBX 12 12 0 0
BITMAP
FFE0
0A00
0A00
7BC0
4A40
4A40
7BC0
4A40
1200
2200
C200
0000
ENDCHAR
STARTCHAR bm_0x2721
ENCODING 10017
SWIDTH 461 0
DWIDTH 11 0
BBX 9 12 0 0
BITMAP
2100
1200
FF80
1200
9280
9280
0000
0000
0000
0000
0000
0000
ENDCHAR
STARTCHAR bm_0x2722
ENCODING 10018
SWIDTH 461 0
DWIDTH 12 0
BBX 12 12 0 0
BITMAP
2940
2980
2900
0900
FFE0
0000
0000
0000
0000
0000
0000
0000
ENDCHAR
STARTCHAR bm_0x2723
ENCODING 10019
SWIDTH 461 0
DWIDTH 7 0
BBX 5 12 0 0
BITMAP
08
88
88
88
88
88
00
00
00
00
00
00
ENDCHAR
STARTCHAR bm_0x2725
ENCODING 10021
SWIDTH 461 0
DWIDTH 7 0
BBX 5 12 0 0
BITMAP
98
E8
08
08
08
00
00
00
00
00
00
00
ENDCHAR
STARTCHAR bm_0x2728
ENCODING 10024
SWIDTH 461 0
DWIDTH 11 0
BBX 9 12 0 0
BITMAP
0000
0000
0000
0000
0000
0000
FF80
0880
0880
7E80
0880
0880
ENDCHAR
STARTCHAR bm_0x272A
ENCODING 10026
SWIDTH 461 0
DWIDTH 12 0
BBX 12 12 0 0
BITMAP
0000
0000
0000
0000
0000
0000
FF80
0880
08A0
0860
0820
0000
ENDCHAR
STARTCHAR bm_0x272B
ENCODING 10027
SWIDTH 461 0
DWIDTH 11 0
BBX 9 12 0 0
BITMAP
0000
0000
0000
0000
0000
0000
0800
0B00
0C00
3980
CE00
3800
ENDCHAR
STARTCHAR bm_0x272D
ENCODING 10029
SWIDTH 461 0
DWIDTH 12 0
BBX 10 12 0 0
BITMAP
C980
0E00
F800
0800
0800
0000
0A00
4A40
4A40
4A40
4A40
5BC0
ENDCHAR
STARTCHAR bm_0x2731
ENCODING 10033
SWIDTH 461 0
DWIDTH 12 0
BBX 10 12 0 0
BITMAP
6A40
0A00
1200
2200
C200
0000
0A00
7FC0
4A40
7FC0
0A00
FFC0
ENDCHAR
STARTCHAR bm_0x2732
ENCODING 10034
SWIDTH 461 0
DWIDTH 12 0
BBX 12 12 0 0
BITMAP
9240
FFC0
1200
2200
C200
0000
0A00
4A40
2A80
FFE0
1100
0A00
ENDCHAR
STARTCHAR bm_0x2733
ENCODING 10035
SWIDTH 461 0
DWIDTH 12 0
BBX 12 12 0 0
BITMAP
0000
0000
0000
0000
0000
0000
7FC0
0400
FFE0
0400
0400
0000
ENDCHAR
STARTCHAR bm_0x2734
ENCODING 10036
SWIDTH 461 0
DWIDTH 11 0
BBX 9 12 0 0
BITMAP
0000
0000
8080
4080
4100
2200
0000
0000
0000
0000
0000
0000
ENDCHAR
STARTCHAR bm_0x2735
ENCODING 10037
SWIDTH 461 0
DWIDTH 11 0
BBX 9 12 0 0
BITMAP
4800
1000
0000
0000
0000
0000
2200
2200
FF80
2200
2A00
2A00
ENDCHAR
STARTCHAR bm_0x2736
ENCODING 10038
SWIDTH 461 0
DWIDTH 12 0
BBX 12 12 0 0
BITMAP
FFE0
1100
1100
2100
C100
0000
0000
3000
5000
9000
0800
0800
ENDCHAR
STARTCHAR bm_0x2737
ENCODING 10039
SWIDTH 461 0
DWIDTH 12 0
BBX 12 12 0 0
BITMAP
0400
0200
0180
0060
0000
0000
0000
FE00
0200
0200
0200
0100
ENDCHAR
STARTCHAR bm_0x2739
ENCODING 10041
SWIDTH 461 0
DWIDTH 6 0
BBX 4 12 0 0
BITMAP
80
40
40
20
10
00
00
00
00
00
00
00
ENDCHAR
STARTCHAR bm_0x273A
ENCODING 10042
SWIDTH 461 0
DWIDTH 12 0
BBX 12 12 0 0
BITMAP
0000
2080
2080
1100
1100
0A00
0A00
0400
0A00
3180
C060
0000
ENDCHAR
STARTCHAR bm_0x273B
ENCODING 10043
SWIDTH 461 0
DWIDTH 12 0
BBX 10 12 0 0
BITMAP
0000
0080
0080
0100
1900
0700
0280
8440
9800
E000
0000
0000
ENDCHAR
STARTCHAR bm_0x273C
ENCODING 10044
SWIDTH 461 0
DWIDTH 12 0
BBX 12 12 0 0
BITMAP
1200
1200
2200
2200
3E00
0200
0500
0900
1080
2040
C020
0000
ENDCHAR
STARTCHAR bm_0x273D
ENCODING 10045
SWIDTH 461 0
DWIDTH 11 0
BBX 9 12 0 0
BITMAP
0000
0000
0780
F800
4080
4100
2200
2400
0000
0000
0000
0000
ENDCHAR
STARTCHAR bm_0x273E
ENCODING 10046
SWIDTH 461 0
DWIDTH 12 0
BBX 12 12 0 0
BITMAP
01C0
FE00
0440
1480
2500
4600
9600
2500
4480
8460
0400
0000
ENDCHAR
STARTCHAR bm_0x273F
ENCODING 10047
SWIDTH 461 0
DWIDTH 12 0
BBX 10 12 0 0
BITMAP
0000
0000
0000
0000
0000
0000
03C0
FC00
8400
BF80
8400
FFC0
ENDCHAR
STARTCHAR bm_0x2740
ENCODING 10048
SWIDTH 461 0
DWIDTH 12 0
BBX 12 12 0 0
BITMAP
4200
5FC0
5240
92C0
8200
0000
01C0
7E00
0400
7FC0
1500
FFE0
ENDCHAR
STARTCHAR bm_0x2741
ENCODING 10049
SWIDTH 461 0
DWIDTH 12 0
BBX 12 12 0 0
BITMAP
1500
7FC0
1500
2480
C460
0000
8000
8000
8000
8000
8000
8000
ENDCHAR
STARTCHAR bm_0x2742
ENCODING 10050
SWIDTH 461 0
DWIDTH 12 0
BBX 12 12 0 0
BITMAP
8000
8100
8100
8100
7F00
0000
0000
0000
FFE0
0040
0080
0000
ENDCHAR
STARTCHAR bm_0x3000
ENCODING 12288
SWIDTH 461 0
DWIDTH 8 0
BBX 6 12 0 0
BITMAP
00
00
00
00
00
00
00
00
00
00
00
00
ENDCHAR
STARTCHAR bm_0x3001
ENCODING 12289
SWIDTH 461 0
DWIDTH 5 0
BBX 3 12 0 0
BITMAP
00
00
00
00
00
00
80
40
60
20
00
00
ENDCHAR
STARTCHAR bm_0x3002
ENCODING 12290
SWIDTH 461 0
DWIDTH 6 0
BBX 4 12 0 0
BITMAP
00
00
00
00
00
60
90
90
60
00
00
00
ENDCHAR
STARTCHAR bm_0x3003
ENCODING 12291
SWIDTH 461 0
DWIDTH 8 0
BBX 6 12 0 0
BITMAP
00
24
6C
48
90
00
00
00
00
00
00
00
ENDCHAR
STARTCHAR bm_0x3005
ENCODING 12293
SWIDTH 461 0
DWIDTH 11 0
BBX 9 12 0 0
BITMAP
1000
1800
3000
2100
7F80
4300
8200
0400
2800
1800
0C00
0400
ENDCHAR
STARTCHAR bm_0x3006
ENCODING 12294
SWIDTH 461 0
DWIDTH 11 0
BBX 9 12 0 0
BITMAP
0000
0780
0180
0100
0E00
3200
4500
8400
8800
9000
6000
0000
ENDCHAR
STARTCHAR bm_0x3007
ENCODING 12295
SWIDTH 461 0
DWIDTH 12 0
BBX 12 12 0 0
BITMAP
0000
0E00
3180
4040
4040
8020
8020
8020
4040
4040
3180
0E00
ENDCHAR
STARTCHAR bm_0x3008
ENCODING 12296
SWIDTH 461 0
DWIDTH 7 0
BBX 5 12 0 0
BITMAP
00
08
10
20
40
80
40
20
10
08
00
00
ENDCHAR
STARTCHAR bm_0x3009
ENCODING 12297
SWIDTH 461 0
DWIDTH 7 0
BBX 5 12 0 0
BITMAP
00
80
40
20
10
08
10
20
40
80
00
00
ENDCHAR
STARTCHAR bm_0x300A
ENCODING 12298
SWIDTH 461 0
DWIDTH 8 0
BBX 6 12 0 0
BITMAP
00
24
24
48
48
90
48
48
24
24
00
00
ENDCHAR
STARTCHAR bm_0x300B
ENCODING 12299
SWIDTH 461 0
DWIDTH 8 0
BBX 6 12 0 0
BITMAP
00
90
90
48
48
24
48
48
90
90
00
00
ENDCHAR
STARTCHAR bm_0x300C
ENCODING 12300
SWIDTH 461 0
DWIDTH 5 0
BBX 3 12 0 0
BITMAP
00
E0
80
80
80
80
80
80
00
00
00
00
ENDCHAR
STARTCHAR bm_0x300D
ENCODING 12301
SWIDTH 461 0
DWIDTH 5 0
BBX 3 12 0 0
BITMAP
00
00
00
20
20
20
20
20
20
20
E0
00
ENDCHAR
STARTCHAR bm_0x300E
ENCODING 12302
SWIDTH 461 0
DWIDTH 7 0
BBX 5 12 0 0
BITMAP
00
00
F8
88
B8
A0
A0
A0
A0
A0
E0
00
ENDCHAR
STARTCHAR bm_0x300F
ENCODING 12303
SWIDTH 461 0
DWIDTH 7 0
BBX 5 12 0 0
BITMAP
00
38
28
28
28
28
28
E8
88
F8
00
00
ENDCHAR
STARTCHAR bm_0x3010
ENCODING 12304
SWIDTH 461 0
DWIDTH 7 0
BBX 5 12 0 0
BITMAP
00
F8
F0
E0
C0
C0
C0
C0
E0
F0
F8
00
ENDCHAR
STARTCHAR bm_0x3011
ENCODING 12305
SWIDTH 461 0
DWIDTH 7 0
BBX 5 12 0 0
BITMAP
00
F8
78
38
18
18
18
18
38
78
F8
00
ENDCHAR
STARTCHAR bm_0x3012
ENCODING 12306
SWIDTH 461 0
DWIDTH 12 0
BBX 12 12 0 0
BITMAP
0000
0000
FFE0
0000
FFE0
0400
0400
0400
0400
0400
0400
0000
ENDCHAR
STARTCHAR bm_0x3013
ENCODING 12307
SWIDTH 461 0
DWIDTH 11 0
BBX 9 12 0 0
BITMAP
0000
0000
FF80
FF80
0000
0000
FF80
FF80
0000
0000
0000
0000
ENDCHAR
STARTCHAR bm_0x3014
ENCODING 12308
SWIDTH 461 0
DWIDTH 5 0
BBX 3 12 0 0
BITMAP
00
20
40
80
80
80
80
80
80
40
20
00
ENDCHAR
STARTCHAR bm_0x3015
ENCODING 12309
SWIDTH 461 0
DWIDTH 5 0
BBX 3 12 0 0
BITMAP
00
80
40
20
20
20
20
20
20
40
80
00
ENDCHAR
STARTCHAR bm_0x3016
ENCODING 12310
SWIDTH 461 0
DWIDTH 7 0
BBX 5 12 0 0
BITMAP
00
F8
90
A0
A0
A0
A0
A0
A0
90
F8
00
ENDCHAR
STARTCHAR bm_0x3017
ENCODING 12311
SWIDTH 461 0
DWIDTH 7 0
BBX 5 12 0 0
BITMAP
00
F8
48
28
28
28
28
28
28
48
F8
00
ENDCHAR
STARTCHAR bm_0x301D
ENCODING 12317
SWIDTH 461 0
DWIDTH 10 0
BBX 8 12 0 0
BITMAP
00
CC
66
22
11
00
00
00
00
00
00
00
ENDCHAR
STARTCHAR bm_0x301E
ENCODING 12318
SWIDTH 461 0
DWIDTH 10 0
BBX 8 12 0 0
BITMAP
00
33
66
44
88
00
00
00
00
00
00
00
ENDCHAR
STARTCHAR bm_0x3021
ENCODING 12321
SWIDTH 461 0
DWIDTH 3 0
BBX 1 12 0 0
BITMAP
00
80
80
80
80
80
80
80
80
80
80
00
ENDCHAR
STARTCHAR bm_0x3022
ENCODING 12322
SWIDTH 461 0
DWIDTH 7 0
BBX 5 12 0 0
BITMAP
00
08
88
88
88
88
88
88
88
88
08
00
ENDCHAR
STARTCHAR bm_0x3023
ENCODING 12323
SWIDTH 461 0
DWIDTH 9 0
BBX 7 12 0 0
BITMAP
00
82
92
92
92
92
92
92
92
92
82
00
ENDCHAR
STARTCHAR bm_0x3024
ENCODING 12324
SWIDTH 461 0
DWIDTH 10 0
BBX 8 12 0 0
BITMAP
02
03
86
44
2C
18
1C
26
42
80
00
00
ENDCHAR
STARTCHAR bm_0x3025
ENCODING 12325
SWIDTH 461 0
DWIDTH 9 0
BBX 7 12 0 0
BITMAP
42
42
84
E4
18
24
42
42
42
42
3C
00
ENDCHAR
STARTCHAR bm_0x3026
ENCODING 12326
SWIDTH 461 0
DWIDTH 12 0
BBX 12 12 0 0
BITMAP
0000
0400
0400
0400
0400
0400
FFE0
0000
0000
0000
0000
0000
ENDCHAR
STARTCHAR bm_0x3027
ENCODING 12327
SWIDTH 461 0
DWIDTH 12 0
BBX 12 12 0 0
BITMAP
0000
0400
0400
0400
0400
FFE0
0000
0000
FFE0
0000
0000
0000
ENDCHAR
STARTCHAR bm_0x3028
ENCODING 12328
SWIDTH 461 0
DWIDTH 12 0
BBX 12 12 0 0
BITMAP
0000
0400
0400
0400
0400
FFE0
0000
0000
FFE0
0000
FFE0
0000
ENDCHAR
STARTCHAR bm_0x3029
ENCODING 12329
SWIDTH 461 0
DWIDTH 12 0
BBX 10 12 0 0
BITMAP
2000
2000
3FC0
6100
5100
8A00
0400
0A00
1100
2180
4080
0000
ENDCHAR
STARTCHAR bm_0x3041
ENCODING 12353
SWIDTH 461 0
DWIDTH 9 0
BBX 7 12 0 0
BITMAP
00
20
20
F8
20
28
7C
AA
AA
70
20
00
ENDCHAR
STARTCHAR bm_0x3042
ENCODING 12354
SWIDTH 461 0
DWIDTH 11 0
BBX 9 12 0 0
BITMAP
0000
1200
FC00
1000
1400
7F00
9480
9480
9480
7900
1000
0000
ENDCHAR
STARTCHAR bm_0x3043
ENCODING 12355
SWIDTH 461 0
DWIDTH 8 0
BBX 6 12 0 0
BITMAP
00
00
00
80
90
88
84
A4
C0
40
00
00
ENDCHAR
STARTCHAR bm_0x3044
ENCODING 12356
SWIDTH 461 0
DWIDTH 11 0
BBX 9 12 0 0
BITMAP
0000
0000
0000
8000
8200
8100
8180
8880
9000
6000
0000
0000
ENDCHAR
STARTCHAR bm_0x3045
ENCODING 12357
SWIDTH 461 0
DWIDTH 8 0
BBX 6 12 0 0
BITMAP
30
08
10
80
78
04
04
04
08
30
00
00
ENDCHAR
STARTCHAR bm_0x3046
ENCODING 12358
SWIDTH 461 0
DWIDTH 9 0
BBX 7 12 0 0
BITMAP
E0
10
20
9C
62
02
02
04
08
10
00
00
ENDCHAR
STARTCHAR bm_0x3047
ENCODING 12359
SWIDTH 461 0
DWIDTH 9 0
BBX 7 12 0 0
BITMAP
00
70
08
10
00
78
10
20
50
8E
00
00
ENDCHAR
STARTCHAR bm_0x3048
ENCODING 12360
SWIDTH 461 0
DWIDTH 9 0
BBX 7 12 0 0
BITMAP
60
10
20
00
F8
08
10
20
50
8E
00
00
ENDCHAR
STARTCHAR bm_0x3049
ENCODING 12361
SWIDTH 461 0
DWIDTH 10 0
BBX 8 12 0 0
BITMAP
00
20
26
71
22
3C
62
A2
64
28
00
00
ENDCHAR
STARTCHAR bm_0x304A
ENCODING 12362
SWIDTH 461 0
DWIDTH 11 0
BBX 9 12 0 0
BITMAP
0000
2000
2300
F880
2100
3E00
6100
A100
B200
6C00
0000
0000
ENDCHAR
STARTCHAR bm_0x304B
ENCODING 12363
SWIDTH 461 0
DWIDTH 12 0
BBX 10 12 0 0
BITMAP
0000
1000
1000
1100
7E80
2240
2280
2200
4200
5400
8800
0000
ENDCHAR
STARTCHAR bm_0x304C
ENCODING 12364
SWIDTH 461 0
DWIDTH 12 0
BBX 12 12 0 0
BITMAP
0040
1020
1040
1120
7E80
2240
2280
2200
4200
5400
8800
0000
ENDCHAR
STARTCHAR bm_0x304D
ENCODING 12365
SWIDTH 461 0
DWIDTH 8 0
BBX 6 12 0 0
BITMAP
20
38
E0
18
F0
08
7C
84
80
40
38
00
ENDCHAR
STARTCHAR bm_0x304E
ENCODING 12366
SWIDTH 461 0
DWIDTH 11 0
BBX 9 12 0 0
BITMAP
2100
3880
E200
1900
F000
0800
7C00
8400
8000
4000
3800
0000
ENDCHAR
STARTCHAR bm_0x304F
ENCODING 12367
SWIDTH 461 0
DWIDTH 6 0
BBX 4 12 0 0
BITMAP
00
10
10
20
40
80
80
40
20
10
10
00
ENDCHAR
STARTCHAR bm_0x3050
ENCODING 12368
SWIDTH 461 0
DWIDTH 11 0
BBX 9 12 0 0
BITMAP
0000
1100
1080
2200
4100
8000
8000
4000
2000
1000
1000
0000
ENDCHAR
STARTCHAR bm_0x3051
ENCODING 12369
SWIDTH 461 0
DWIDTH 10 0
BBX 8 12 0 0
BITMAP
00
04
44
47
9C
84
84
A4
C8
48
10
00
ENDCHAR
STARTCHAR bm_0x3052
ENCODING 12370
SWIDTH 461 0
DWIDTH 12 0
BBX 10 12 0 0
BITMAP
0080
0440
4480
4740
9C00
8400
8400
A400
C800
4800
1000
0000
ENDCHAR
STARTCHAR bm_0x3053
ENCODING 12371
SWIDTH 461 0
DWIDTH 10 0
BBX 8 12 0 0
BITMAP
00
7C
08
00
00
40
80
81
7E
00
00
00
ENDCHAR
STARTCHAR bm_0x3054
ENCODING 12372
SWIDTH 461 0
DWIDTH 12 0
BBX 10 12 0 0
BITMAP
0080
7C40
0900
0080
0000
4000
8000
8100
7E00
0000
0000
0000
ENDCHAR
STARTCHAR bm_0x3055
ENCODING 12373
SWIDTH 461 0
DWIDTH 9 0
BBX 7 12 0 0
BITMAP
00
40
2C
F0
10
38
4C
80
80
7E
00
00
ENDCHAR
STARTCHAR bm_0x3056
ENCODING 12374
SWIDTH 461 0
DWIDTH 11 0
BBX 9 12 0 0
BITMAP
0000
4100
2C80
F100
1080
3800
4C00
8000
8000
7E00
0000
0000
ENDCHAR
STARTCHAR bm_0x3057
ENCODING 12375
SWIDTH 461 0
DWIDTH 7 0
BBX 5 12 0 0
BITMAP
00
00
80
80
80
80
80
80
88
70
00
00
ENDCHAR
STARTCHAR bm_0x3058
ENCODING 12376
SWIDTH 461 0
DWIDTH 10 0
BBX 8 12 0 0
BITMAP
00
02
81
84
82
80
80
80
88
70
00
00
ENDCHAR
STARTCHAR bm_0x3059
ENCODING 12377
SWIDTH 461 0
DWIDTH 10 0
BBX 8 12 0 0
BITMAP
00
08
88
7F
08
18
2C
14
04
08
10
00
ENDCHAR
STARTCHAR bm_0x305A
ENCODING 12378
SWIDTH 461 0
DWIDTH 12 0
BBX 10 12 0 0
BITMAP
0080
0840
8880
7F40
0800
1800
2C00
1400
0400
0800
1000
0000
ENDCHAR
STARTCHAR bm_0x305B
ENCODING 12379
SWIDTH 461 0
DWIDTH 10 0
BBX 8 12 0 0
BITMAP
00
04
24
24
FF
24
34
2C
20
20
1F
00
ENDCHAR
STARTCHAR bm_0x305C
ENCODING 12380
SWIDTH 461 0
DWIDTH 12 0
BBX 10 12 0 0
BITMAP
0080
0440
2500
2480
FF00
2400
3400
2C00
2000
2000
1F00
0000
ENDCHAR
STARTCHAR bm_0x305D
ENCODING 12381
SWIDTH 461 0
DWIDTH 10 0
BBX 8 12 0 0
BITMAP
00
38
04
18
67
F8
10
10
10
0E
00
00
ENDCHAR
STARTCHAR bm_0x305E
ENCODING 12382
SWIDTH 461 0
DWIDTH 12 0
BBX 10 12 0 0
BITMAP
0080
3840
0500
1880
6700
F800
1000
1000
1000
0E00
0000
0000
ENDCHAR
STARTCHAR bm_0x305F
ENCODING 12383
SWIDTH 461 0
DWIDTH 11 0
BBX 9 12 0 0
BITMAP
0000
2000
3800
E000
2C00
2200
4400
5000
4800
8780
0000
0000
ENDCHAR
STARTCHAR bm_0x3060
ENCODING 12384
SWIDTH 461 0
DWIDTH 12 0
BBX 10 12 0 0
BITMAP
0080
2040
3900
E080
2C00
2200
4400
5000
4800
8780
0000
0000
ENDCHAR
STARTCHAR bm_0x3061
ENCODING 12385
SWIDTH 461 0
DWIDTH 10 0
BBX 8 12 0 0
BITMAP
00
10
10
FE
20
3E
21
01
01
02
1C
00
ENDCHAR
STARTCHAR bm_0x3062
ENCODING 12386
SWIDTH 461 0
DWIDTH 12 0
BBX 10 12 0 0
BITMAP
0080
1040
1100
FE80
2000
3E00
2100
0100
0100
0200
1C00
0000
ENDCHAR
STARTCHAR bm_0x3063
ENCODING 12387
SWIDTH 461 0
DWIDTH 9 0
BBX 7 12 0 0
BITMAP
00
00
00
00
00
3C
C2
02
04
08
00
00
ENDCHAR
STARTCHAR bm_0x3064
ENCODING 12388
SWIDTH 461 0
DWIDTH 10 0
BBX 8 12 0 0
BITMAP
00
00
1C
22
C1
01
01
02
0C
30
00
00
ENDCHAR
STARTCHAR bm_0x3065
ENCODING 12389
SWIDTH 461 0
DWIDTH 11 0
BBX 9 12 0 0
BITMAP
0100
0080
1D00
2280
C100
0100
0100
0200
0C00
3000
0000
0000
ENDCHAR
STARTCHAR bm_0x3066
ENCODING 12390
SWIDTH 461 0
DWIDTH 10 0
BBX 8 12 0 0
BITMAP
00
00
07
F8
10
10
20
20
20
1E
00
00
ENDCHAR
STARTCHAR bm_0x3067
ENCODING 12391
SWIDTH 461 0
DWIDTH 12 0
BBX 12 12 0 0
BITMAP
0000
0000
0700
F840
1020
1080
2040
2000
2000
1E00
0000
0000
ENDCHAR
STARTCHAR bm_0x3068
ENCODING 12392
SWIDTH 461 0
DWIDTH 9 0
BBX 7 12 0 0
BITMAP
00
20
20
20
26
38
40
80
80
80
7E
00
ENDCHAR
STARTCHAR bm_0x3069
ENCODING 12393
SWIDTH 461 0
DWIDTH 11 0
BBX 9 12 0 0
BITMAP
0100
2080
2200
2100
2600
3800
4000
8000
8000
8000
7E00
0000
ENDCHAR
STARTCHAR bm_0x306A
ENCODING 12394
SWIDTH 461 0
DWIDTH 11 0
BBX 9 12 0 0
BITMAP
0000
2000
2100
F880
2100
2200
4200
4400
9E00
2500
1800
0000
ENDCHAR
STARTCHAR bm_0x306B
ENCODING 12395
SWIDTH 461 0
DWIDTH 11 0
BBX 9 12 0 0
BITMAP
0000
0000
0F80
5100
4200
8000
8000
8000
A800
C900
4780
0000
ENDCHAR
STARTCHAR bm_0x306C
ENCODING 12396
SWIDTH 461 0
DWIDTH 12 0
BBX 10 12 0 0
BITMAP
0000
8400
8400
4700
5880
2880
6880
B280
9500
A680
4040
0000
ENDCHAR
STARTCHAR bm_0x306D
ENCODING 12397
SWIDTH 461 0
DWIDTH 11 0
BBX 9 12 0 0
BITMAP
0000
2000
2000
7600
2900
3100
6100
A700
6900
2A80
0400
0000
ENDCHAR
STARTCHAR bm_0x306E
ENCODING 12398
SWIDTH 461 0
DWIDTH 11 0
BBX 9 12 0 0
BITMAP
0000
0000
3C00
4A00
8900
8880
9080
9080
6100
0200
0400
0000
ENDCHAR
STARTCHAR bm_0x306F
ENCODING 12399
SWIDTH 461 0
DWIDTH 10 0
BBX 8 12 0 0
BITMAP
00
04
44
44
9F
84
84
A4
CE
55
18
00
ENDCHAR
STARTCHAR bm_0x3070
ENCODING 12400
SWIDTH 461 0
DWIDTH 12 0
BBX 10 12 0 0
BITMAP
0080
0440
4500
4480
9F00
8400
8400
A400
CE00
5500
1800
0000
ENDCHAR
STARTCHAR bm_0x3071
ENCODING 12401
SWIDTH 461 0
DWIDTH 12 0
BBX 10 12 0 0
BITMAP
0080
0540
4540
4480
9F00
8400
8400
A400
CE00
5500
1800
0000
ENDCHAR
STARTCHAR bm_0x3072
ENCODING 12402
SWIDTH 461 0
DWIDTH 11 0
BBX 9 12 0 0
BITMAP
0000
0000
7200
1200
2300
4280
4200
8400
8400
4800
3000
0000
ENDCHAR
STARTCHAR bm_0x3073
ENCODING 12403
SWIDTH 461 0
DWIDTH 12 0
BBX 10 12 0 0
BITMAP
0080
0040
7080
1240
2300
4280
4200
8400
8400
4800
3000
0000
ENDCHAR
STARTCHAR bm_0x3074
ENCODING 12404
SWIDTH 461 0
DWIDTH 12 0
BBX 10 12 0 0
BITMAP
0080
0140
7140
1280
2300
4280
4200
8400
8400
4800
3000
0000
ENDCHAR
STARTCHAR bm_0x3075
ENCODING 12405
SWIDTH 461 0
DWIDTH 11 0
BBX 9 12 0 0
BITMAP
0000
1800
0400
0800
1000
0800
0D00
1480
E580
1400
0800
0000
ENDCHAR
STARTCHAR bm_0x3076
ENCODING 12406
SWIDTH 461 0
DWIDTH 12 0
BBX 10 12 0 0
BITMAP
0080
1840
0500
0880
1000
0800
0D00
1480
E580
1400
0800
0000
ENDCHAR
STARTCHAR bm_0x3077
ENCODING 12407
SWIDTH 461 0
DWIDTH 12 0
BBX 10 12 0 0
BITMAP
0080
1940
0540
0880
1000
0800
0D00
1480
E580
1400
0800
0000
ENDCHAR
STARTCHAR bm_0x3078
ENCODING 12408
SWIDTH 461 0
DWIDTH 12 0
BBX 10 12 0 0
BITMAP
0000
0000
0000
3000
4C00
8200
01C0
0000
0000
0000
0000
0000
ENDCHAR
STARTCHAR bm_0x3079
ENCODING 12409
SWIDTH 461 0
DWIDTH 12 0
BBX 10 12 0 0
BITMAP
0000
0080
0040
3100
4C80
8200
01C0
0000
0000
0000
0000
0000
ENDCHAR
STARTCHAR bm_0x307A
ENCODING 12410
SWIDTH 461 0
DWIDTH 12 0
BBX 10 12 0 0
BITMAP
0100
0280
0280
3100
4C00
8200
01C0
0000
0000
0000
0000
0000
ENDCHAR
STARTCHAR bm_0x307B
ENCODING 12411
SWIDTH 461 0
DWIDTH 10 0
BBX 8 12 0 0
BITMAP
00
0E
44
44
9F
84
84
A4
CE
55
18
00
ENDCHAR
STARTCHAR bm_0x307C
ENCODING 12412
SWIDTH 461 0
DWIDTH 12 0
BBX 10 12 0 0
BITMAP
0080
0E40
4480
4440
9F00
8400
8400
A400
CE00
5500
1800
0000
ENDCHAR
STARTCHAR bm_0x307D
ENCODING 12413
SWIDTH 461 0
DWIDTH 12 0
BBX 12 12 0 0
BITMAP
0040
0EA0
44A0
4440
9F00
8400
8400
A400
CE00
5500
1800
0000
ENDCHAR
STARTCHAR bm_0x307E
ENCODING 12414
SWIDTH 461 0
DWIDTH 8 0
BBX 6 12 0 0
BITMAP
00
10
FC
10
10
78
10
10
78
94
60
00
ENDCHAR
STARTCHAR bm_0x307F
ENCODING 12415
SWIDTH 461 0
DWIDTH 11 0
BBX 9 12 0 0
BITMAP
0000
0000
3C00
0400
0900
0900
7A00
9600
A500
4480
0800
0000
ENDCHAR
STARTCHAR bm_0x3080
ENCODING 12416
SWIDTH 461 0
DWIDTH 12 0
BBX 10 12 0 0
BITMAP
0000
2000
2000
3800
E180
2240
6240
A100
A100
4100
3E00
0000
ENDCHAR
STARTCHAR bm_0x3081
ENCODING 12417
SWIDTH 461 0
DWIDTH 11 0
BBX 9 12 0 0
BITMAP
0000
0200
2200
2200
3D00
6480
9880
9880
6480
0100
0000
0000
ENDCHAR
STARTCHAR bm_0x3082
ENCODING 12418
SWIDTH 461 0
DWIDTH 9 0
BBX 7 12 0 0
BITMAP
20
20
A0
70
20
A4
72
22
22
22
1C
00
ENDCHAR
STARTCHAR bm_0x3083
ENCODING 12419
SWIDTH 461 0
DWIDTH 11 0
BBX 9 12 0 0
BITMAP
0000
0200
1200
1400
1F00
F080
1080
0B00
0800
0400
0200
0000
ENDCHAR
STARTCHAR bm_0x3084
ENCODING 12420
SWIDTH 461 0
DWIDTH 11 0
BBX 9 12 0 0
BITMAP
0000
0400
2400
2800
3F00
E080
2080
1300
1000
0800
0400
0000
ENDCHAR
STARTCHAR bm_0x3085
ENCODING 12421
SWIDTH 461 0
DWIDTH 10 0
BBX 8 12 0 0
BITMAP
00
04
44
4E
95
95
A5
D9
8E
10
20
00
ENDCHAR
STARTCHAR bm_0x3086
ENCODING 12422
SWIDTH 461 0
DWIDTH 12 0
BBX 10 12 0 0
BITMAP
0400
4400
4F00
9480
9440
A440
A440
D480
4F00
0800
1000
0000
ENDCHAR
STARTCHAR bm_0x3087
ENCODING 12423
SWIDTH 461 0
DWIDTH 9 0
BBX 7 12 0 0
BITMAP
00
00
10
10
1C
10
10
78
94
92
60
00
ENDCHAR
STARTCHAR bm_0x3088
ENCODING 12424
SWIDTH 461 0
DWIDTH 10 0
BBX 8 12 0 0
BITMAP
00
08
08
08
0E
08
08
7C
8A
89
70
00
ENDCHAR
STARTCHAR bm_0x3089
ENCODING 12425
SWIDTH 461 0
DWIDTH 9 0
BBX 7 12 0 0
BITMAP
00
40
20
20
40
80
BC
C2
02
04
18
00
ENDCHAR
STARTCHAR bm_0x308A
ENCODING 12426
SWIDTH 461 0
DWIDTH 7 0
BBX 5 12 0 0
BITMAP
00
80
B0
C8
C8
88
88
90
10
20
40
00
ENDCHAR
STARTCHAR bm_0x308B
ENCODING 12427
SWIDTH 461 0
DWIDTH 9 0
BBX 7 12 0 0
BITMAP
00
3C
08
10
20
7C
82
32
4A
44
38
00
ENDCHAR
STARTCHAR bm_0x308C
ENCODING 12428
SWIDTH 461 0
DWIDTH 12 0
BBX 10 12 0 0
BITMAP
0000
2000
2000
7400
2A00
3200
6400
A400
6440
2380
0000
0000
ENDCHAR
STARTCHAR bm_0x308D
ENCODING 12429
SWIDTH 461 0
DWIDTH 9 0
BBX 7 12 0 0
BITMAP
00
7C
08
10
2C
72
82
02
04
08
10
00
ENDCHAR
STARTCHAR bm_0x308E
ENCODING 12430
SWIDTH 461 0
DWIDTH 10 0
BBX 8 12 0 0
BITMAP
00
00
20
20
66
39
61
A1
62
04
00
00
ENDCHAR
STARTCHAR bm_0x308F
ENCODING 12431
SWIDTH 461 0
DWIDTH 11 0
BBX 9 12 0 0
BITMAP
0000
2000
2000
7000
2E00
3100
6080
A080
6100
2200
0000
0000
ENDCHAR
STARTCHAR bm_0x3090
ENCODING 12432
SWIDTH 461 0
DWIDTH 11 0
BBX 9 12 0 0
BITMAP
0000
0000
E000
2000
3E00
2100
6080
A080
A680
6900
0600
0000
ENDCHAR
STARTCHAR bm_0x3091
ENCODING 12433
SWIDTH 461 0
DWIDTH 10 0
BBX 8 12 0 0
BITMAP
00
78
10
3C
42
92
3C
20
66
99
03
00
ENDCHAR
STARTCHAR bm_0x3092
ENCODING 12434
SWIDTH 461 0
DWIDTH 9 0
BBX 7 12 0 0
BITMAP
00
20
3C
E0
32
4A
8C
18
28
28
1E
00
ENDCHAR
STARTCHAR bm_0x3093
ENCODING 12435
SWIDTH 461 0
DWIDTH 11 0
BBX 9 12 0 0
BITMAP
0800
0800
1000
1000
2000
3800
4400
4400
8480
8300
0000
0000
ENDCHAR
STARTCHAR bm_0x309B
ENCODING 12443
SWIDTH 461 0
DWIDTH 9 0
BBX 7 12 0 0
BITMAP
00
88
44
66
22
00
00
00
00
00
00
00
ENDCHAR
STARTCHAR bm_0x309C
ENCODING 12444
SWIDTH 461 0
DWIDTH 6 0
BBX 4 12 0 0
BITMAP
00
60
90
90
60
00
00
00
00
00
00
00
ENDCHAR
STARTCHAR bm_0x309D
ENCODING 12445
SWIDTH 461 0
DWIDTH 11 0
BBX 9 12 0 0
BITMAP
0000
8000
6000
1800
0C00
0600
0300
0180
3F80
0000
0000
0000
ENDCHAR
STARTCHAR bm_0x309E
ENCODING 12446
SWIDTH 461 0
DWIDTH 11 0
BBX 9 12 0 0
BITMAP
0800
0600
0300
1100
0C00
C600
3200
0800
0600
0300
3F80
0000
ENDCHAR
STARTCHAR bm_0x30A1
ENCODING 12449
SWIDTH 461 0
DWIDTH 9 0
BBX 7 12 0 0
BITMAP
00
00
FC
02
2C
10
10
20
20
40
00
00
ENDCHAR
STARTCHAR bm_0x30A2
ENCODING 12450
SWIDTH 461 0
DWIDTH 10 0
BBX 8 12 0 0
BITMAP
00
00
FE
01
16
08
08
08
10
10
20
00
ENDCHAR
STARTCHAR bm_0x30A3
ENCODING 12451
SWIDTH 461 0
DWIDTH 7 0
BBX 5 12 0 0
BITMAP
00
00
08
08
10
30
50
90
10
10
00
00
ENDCHAR
STARTCHAR bm_0x30A4
ENCODING 12452
SWIDTH 461 0
DWIDTH 7 0
BBX 5 12 0 0
BITMAP
00
08
08
10
30
50
90
10
10
10
10
00
ENDCHAR
STARTCHAR bm_0x30A5
ENCODING 12453
SWIDTH 461 0
DWIDTH 9 0
BBX 7 12 0 0
BITMAP
00
10
10
FE
82
82
04
04
08
10
20
00
ENDCHAR
STARTCHAR bm_0x30A6
ENCODING 12454
SWIDTH 461 0
DWIDTH 11 0
BBX 9 12 0 0
BITMAP
0800
0800
FF80
8080
8080
0100
0100
0200
0400
0800
1000
0000
ENDCHAR
STARTCHAR bm_0x30A7
ENCODING 12455
SWIDTH 461 0
DWIDTH 9 0
BBX 7 12 0 0
BITMAP
00
00
00
FC
10
10
10
FE
00
00
00
00
ENDCHAR
STARTCHAR bm_0x30A8
ENCODING 12456
SWIDTH 461 0
DWIDTH 11 0
BBX 9 12 0 0
BITMAP
0000
0000
0000
7F00
0800
0800
0800
0800
FF80
0000
0000
0000
ENDCHAR
STARTCHAR bm_0x30A9
ENCODING 12457
SWIDTH 461 0
DWIDTH 9 0
BBX 7 12 0 0
BITMAP
00
08
08
FE
18
28
48
88
28
10
00
00
ENDCHAR
STARTCHAR bm_0x30AA
ENCODING 12458
SWIDTH 461 0
DWIDTH 11 0
BBX 9 12 0 0
BITMAP
0000
0400
0400
0400
FF80
0C00
1400
2400
4400
8400
1400
0800
ENDCHAR
STARTCHAR bm_0x30AB
ENCODING 12459
SWIDTH 461 0
DWIDTH 9 0
BBX 7 12 0 0
BITMAP
00
10
10
7E
12
12
22
22
4A
84
00
00
ENDCHAR
STARTCHAR bm_0x30AC
ENCODING 12460
SWIDTH 461 0
DWIDTH 12 0
BBX 10 12 0 0
BITMAP
0080
1040
1100
7E80
1200
1200
2200
2200
4A00
8400
0000
0000
ENDCHAR
STARTCHAR bm_0x30AD
ENCODING 12461
SWIDTH 461 0
DWIDTH 8 0
BBX 6 12 0 0
BITMAP
00
40
40
3C
E0
10
1C
F0
08
08
04
00
ENDCHAR
STARTCHAR bm_0x30AE
ENCODING 12462
SWIDTH 461 0
DWIDTH 11 0
BBX 9 12 0 0
BITMAP
0100
4080
4100
3C80
E000
1000
1C00
F000
0800
0800
0400
0000
ENDCHAR
STARTCHAR bm_0x30AF
ENCODING 12463
SWIDTH 461 0
DWIDTH 8 0
BBX 6 12 0 0
BITMAP
00
20
20
3C
44
84
08
10
20
40
00
00
ENDCHAR
STARTCHAR bm_0x30B0
ENCODING 12464
SWIDTH 461 0
DWIDTH 10 0
BBX 8 12 0 0
BITMAP
02
21
22
3D
44
84
08
10
20
40
00
00
ENDCHAR
STARTCHAR bm_0x30B1
ENCODING 12465
SWIDTH 461 0
DWIDTH 10 0
BBX 8 12 0 0
BITMAP
00
20
20
3F
44
84
08
10
20
40
00
00
ENDCHAR
STARTCHAR bm_0x30B2
ENCODING 12466
SWIDTH 461 0
DWIDTH 12 0
BBX 10 12 0 0
BITMAP
0080
2040
2080
3F40
4400
8400
0800
1000
2000
4000
0000
0000
ENDCHAR
STARTCHAR bm_0x30B3
ENCODING 12467
SWIDTH 461 0
DWIDTH 9 0
BBX 7 12 0 0
BITMAP
00
00
00
00
7E
02
02
04
FE
00
00
00
ENDCHAR
STARTCHAR bm_0x30B4
ENCODING 12468
SWIDTH 461 0
DWIDTH 11 0
BBX 9 12 0 0
BITMAP
0100
0080
0200
0100
7E00
0200
0200
0400
FE00
0000
0000
0000
ENDCHAR
STARTCHAR bm_0x30B5
ENCODING 12469
SWIDTH 461 0
DWIDTH 11 0
BBX 9 12 0 0
BITMAP
0000
0400
2400
2400
2400
FF80
2400
2400
2800
0800
1000
0000
ENDCHAR
STARTCHAR bm_0x30B6
ENCODING 12470
SWIDTH 461 0
DWIDTH 11 0
BBX 9 12 0 0
BITMAP
0100
0480
2500
2480
2400
FF80
2400
2400
2800
0800
1000
0000
ENDCHAR
STARTCHAR bm_0x30B7
ENCODING 12471
SWIDTH 461 0
DWIDTH 10 0
BBX 8 12 0 0
BITMAP
00
00
20
10
00
41
22
04
08
90
60
00
ENDCHAR
STARTCHAR bm_0x30B8
ENCODING 12472
SWIDTH 461 0
DWIDTH 12 0
BBX 10 12 0 0
BITMAP
0080
0040
2100
1080
0000
4100
2200
0400
0800
9000
6000
0000
ENDCHAR
STARTCHAR bm_0x30B9
ENCODING 12473
SWIDTH 461 0
DWIDTH 9 0
BBX 7 12 0 0
BITMAP
00
00
00
FC
04
08
10
28
44
82
00
00
ENDCHAR
STARTCHAR bm_0x30BA
ENCODING 12474
SWIDTH 461 0
DWIDTH 10 0
BBX 8 12 0 0
BITMAP
02
01
02
FD
04
08
10
28
44
82
00
00
ENDCHAR
STARTCHAR bm_0x30BB
ENCODING 12475
SWIDTH 461 0
DWIDTH 11 0
BBX 9 12 0 0
BITMAP
0000
1000
1000
1000
1F00
F100
1200
1000
1000
0F80
0000
0000
ENDCHAR
STARTCHAR bm_0x30BC
ENCODING 12476
SWIDTH 461 0
DWIDTH 12 0
BBX 10 12 0 0
BITMAP
0080
1040
1100
1080
1F00
F100
1200
1000
1000
0F80
0000
0000
ENDCHAR
STARTCHAR bm_0x30BD
ENCODING 12477
SWIDTH 461 0
DWIDTH 8 0
BBX 6 12 0 0
BITMAP
00
00
00
84
44
08
08
10
20
40
80
00
ENDCHAR
STARTCHAR bm_0x30BE
ENCODING 12478
SWIDTH 461 0
DWIDTH 11 0
BBX 9 12 0 0
BITMAP
0100
0080
0100
8480
4400
0800
0800
1000
2000
4000
8000
0000
ENDCHAR
STARTCHAR bm_0x30BF
ENCODING 12479
SWIDTH 461 0
DWIDTH 9 0
BBX 7 12 0 0
BITMAP
00
20
20
3E
42
82
14
08
14
22
40
00
ENDCHAR
STARTCHAR bm_0x30C0
ENCODING 12480
SWIDTH 461 0
DWIDTH 12 0
BBX 10 12 0 0
BITMAP
0080
2040
2100
3E80
4200
8200
1400
0800
1400
2200
4000
0000
ENDCHAR
STARTCHAR bm_0x30C1
ENCODING 12481
SWIDTH 461 0
DWIDTH 11 0
BBX 9 12 0 0
BITMAP
0000
0600
7800
0800
0800
FF80
0800
0800
1000
1000
2000
0000
ENDCHAR
STARTCHAR bm_0x30C2
ENCODING 12482
SWIDTH 461 0
DWIDTH 12 0
BBX 10 12 0 0
BITMAP
0080
0640
7880
0840
0800
FF80
0800
0800
1000
1000
2000
0000
ENDCHAR
STARTCHAR bm_0x30C3
ENCODING 12483
SWIDTH 461 0
DWIDTH 8 0
BBX 6 12 0 0
BITMAP
00
00
00
20
94
44
08
10
20
40
80
00
ENDCHAR
STARTCHAR bm_0x30C4
ENCODING 12484
SWIDTH 461 0
DWIDTH 8 0
BBX 6 12 0 0
BITMAP
00
00
20
94
44
08
08
10
20
40
80
00
ENDCHAR
STARTCHAR bm_0x30C5
ENCODING 12485
SWIDTH 461 0
DWIDTH 11 0
BBX 9 12 0 0
BITMAP
0100
0080
2100
9480
4400
0800
0800
1000
2000
4000
8000
0000
ENDCHAR
STARTCHAR bm_0x30C6
ENCODING 12486
SWIDTH 461 0
DWIDTH 11 0
BBX 9 12 0 0
BITMAP
0000
3E00
0000
0000
FF80
0800
0800
1000
1000
2000
4000
0000
ENDCHAR
STARTCHAR bm_0x30C7
ENCODING 12487
SWIDTH 461 0
DWIDTH 12 0
BBX 12 12 0 0
BITMAP
0040
0020
3E80
0040
0000
FF80
0800
0800
1000
1000
2000
4000
ENDCHAR
STARTCHAR bm_0x30C8
ENCODING 12488
SWIDTH 461 0
DWIDTH 7 0
BBX 5 12 0 0
BITMAP
80
80
80
C0
B0
98
88
80
80
80
80
00
ENDCHAR
STARTCHAR bm_0x30C9
ENCODING 12489
SWIDTH 461 0
DWIDTH 9 0
BBX 7 12 0 0
BITMAP
84
82
84
C2
B0
98
88
80
80
80
80
00
ENDCHAR
STARTCHAR bm_0x30CA
ENCODING 12490
SWIDTH 461 0
DWIDTH 9 0
BBX 7 12 0 0
BITMAP
00
10
10
FE
10
10
20
20
40
80
00
00
ENDCHAR
STARTCHAR bm_0x30CB
ENCODING 12491
SWIDTH 461 0
DWIDTH 11 0
BBX 9 12 0 0
BITMAP
0000
0000
0000
7E00
0000
0000
0000
FF80
0000
0000
0000
0000
ENDCHAR
STARTCHAR bm_0x30CC
ENCODING 12492
SWIDTH 461 0
DWIDTH 8 0
BBX 6 12 0 0
BITMAP
00
00
FC
04
48
28
10
28
48
80
00
00
ENDCHAR
STARTCHAR bm_0x30CD
ENCODING 12493
SWIDTH 461 0
DWIDTH 8 0
BBX 6 12 0 0
BITMAP
20
10
00
F8
10
38
54
90
10
10
10
00
ENDCHAR
STARTCHAR bm_0x30CE
ENCODING 12494
SWIDTH 461 0
DWIDTH 7 0
BBX 5 12 0 0
BITMAP
00
00
08
08
10
10
20
20
40
80
00
00
ENDCHAR
STARTCHAR bm_0x30CF
ENCODING 12495
SWIDTH 461 0
DWIDTH 11 0
BBX 9 12 0 0
BITMAP
0000
0000
0000
0400
1200
1100
2080
4080
8000
0000
0000
0000
ENDCHAR
STARTCHAR bm_0x30D0
ENCODING 12496
SWIDTH 461 0
DWIDTH 12 0
BBX 10 12 0 0
BITMAP
0080
0040
0100
0480
1200
1100
2080
4080
8000
0000
0000
0000
ENDCHAR
STARTCHAR bm_0x30D1
ENCODING 12497
SWIDTH 461 0
DWIDTH 12 0
BBX 10 12 0 0
BITMAP
0080
0140
0140
0480
1200
1100
2080
4080
8000
0000
0000
0000
ENDCHAR
STARTCHAR bm_0x30D2
ENCODING 12498
SWIDTH 461 0
DWIDTH 8 0
BBX 6 12 0 0
BITMAP
00
00
00
80
90
A0
C0
80
80
7C
00
00
ENDCHAR
STARTCHAR bm_0x30D3
ENCODING 12499
SWIDTH 461 0
DWIDTH 10 0
BBX 8 12 0 0
BITMAP
02
01
04
82
90
A0
C0
80
80
7C
00
00
ENDCHAR
STARTCHAR bm_0x30D4
ENCODING 12500
SWIDTH 461 0
DWIDTH 10 0
BBX 8 12 0 0
BITMAP
02
05
05
82
90
A0
C0
80
80
7C
00
00
ENDCHAR
STARTCHAR bm_0x30D5
ENCODING 12501
SWIDTH 461 0
DWIDTH 9 0
BBX 7 12 0 0
BITMAP
00
00
00
FE
02
04
04
08
10
20
40
00
ENDCHAR
STARTCHAR bm_0x30D6
ENCODING 12502
SWIDTH 461 0
DWIDTH 12 0
BBX 10 12 0 0
BITMAP
0080
0040
0100
FE80
0200
0400
0400
0800
1000
2000
4000
0000
ENDCHAR
STARTCHAR bm_0x30D7
ENCODING 12503
SWIDTH 461 0
DWIDTH 12 0
BBX 10 12 0 0
BITMAP
0080
0140
0140
FE80
0200
0400
0400
0800
1000
2000
4000
0000
ENDCHAR
STARTCHAR bm_0x30D8
ENCODING 12504
SWIDTH 461 0
DWIDTH 12 0
BBX 10 12 0 0
BITMAP
0000
0000
0000
0000
0000
6000
9800
07C0
0000
0000
0000
0000
ENDCHAR
STARTCHAR bm_0x30D9
ENCODING 12505
SWIDTH 461 0
DWIDTH 12 0
BBX 10 12 0 0
BITMAP
0080
0040
0100
0080
0000
6000
9800
07C0
0000
0000
0000
0000
ENDCHAR
STARTCHAR bm_0x30DA
ENCODING 12506
SWIDTH 461 0
DWIDTH 12 0
BBX 10 12 0 0
BITMAP
0000
0180
0240
0240
0180
6000
9800
07C0
0000
0000
0000
0000
ENDCHAR
STARTCHAR bm_0x30DB
ENCODING 12507
SWIDTH 461 0
DWIDTH 11 0
BBX 9 12 0 0
BITMAP
0000
0800
0800
0800
FF80
0800
4900
4880
8880
2800
1000
0000
ENDCHAR
STARTCHAR bm_0x30DC
ENCODING 12508
SWIDTH 461 0
DWIDTH 12 0
BBX 10 12 0 0
BITMAP
0080
0840
0900
0880
FF80
0800
4900
4880
8880
2800
1000
0000
ENDCHAR
STARTCHAR bm_0x30DD
ENCODING 12509
SWIDTH 461 0
DWIDTH 12 0
BBX 10 12 0 0
BITMAP
0080
0940
0940
0880
FF80
0800
4900
4880
8880
2800
1000
0000
ENDCHAR
STARTCHAR bm_0x30DE
ENCODING 12510
SWIDTH 461 0
DWIDTH 9 0
BBX 7 12 0 0
BITMAP
00
00
00
FE
02
04
28
10
08
08
00
00
ENDCHAR
STARTCHAR bm_0x30DF
ENCODING 12511
SWIDTH 461 0
DWIDTH 8 0
BBX 6 12 0 0
BITMAP
00
30
0C
C4
30
10
00
E0
1C
04
00
00
ENDCHAR
STARTCHAR bm_0x30E0
ENCODING 12512
SWIDTH 461 0
DWIDTH 10 0
BBX 8 12 0 0
BITMAP
00
00
08
08
10
10
24
22
4F
F1
00
00
ENDCHAR
STARTCHAR bm_0x30E1
ENCODING 12513
SWIDTH 461 0
DWIDTH 8 0
BBX 6 12 0 0
BITMAP
00
00
04
04
28
18
1C
24
40
80
00
00
ENDCHAR
STARTCHAR bm_0x30E2
ENCODING 12514
SWIDTH 461 0
DWIDTH 11 0
BBX 9 12 0 0
BITMAP
0000
0400
7800
1000
1F80
F000
1000
1000
1000
0F00
0000
0000
ENDCHAR
STARTCHAR bm_0x30E3
ENCODING 12515
SWIDTH 461 0
DWIDTH 10 0
BBX 8 12 0 0
BITMAP
00
00
00
20
20
FF
11
12
08
08
04
00
ENDCHAR
STARTCHAR bm_0x30E4
ENCODING 12516
SWIDTH 461 0
DWIDTH 10 0
BBX 8 12 0 0
BITMAP
40
40
20
20
FF
11
0A
08
04
04
00
00
ENDCHAR
STARTCHAR bm_0x30E5
ENCODING 12517
SWIDTH 461 0
DWIDTH 10 0
BBX 8 12 0 0
BITMAP
00
00
00
00
7C
04
04
08
FF
00
00
00
ENDCHAR
STARTCHAR bm_0x30E6
ENCODING 12518
SWIDTH 461 0
DWIDTH 12 0
BBX 10 12 0 0
BITMAP
0000
0000
3F00
0100
0100
0200
0200
FFC0
0000
0000
0000
0000
ENDCHAR
STARTCHAR bm_0x30E7
ENCODING 12519
SWIDTH 461 0
DWIDTH 9 0
BBX 7 12 0 0
BITMAP
00
00
00
00
FE
02
FE
02
FE
00
00
00
ENDCHAR
STARTCHAR bm_0x30E8
ENCODING 12520
SWIDTH 461 0
DWIDTH 8 0
BBX 6 12 0 0
BITMAP
00
00
00
FC
04
04
FC
04
04
FC
00
00
ENDCHAR
STARTCHAR bm_0x30E9
ENCODING 12521
SWIDTH 461 0
DWIDTH 8 0
BBX 6 12 0 0
BITMAP
00
78
00
00
FC
04
08
08
10
20
00
00
ENDCHAR
STARTCHAR bm_0x30EA
ENCODING 12522
SWIDTH 461 0
DWIDTH 6 0
BBX 4 12 0 0
BITMAP
00
10
90
90
90
90
90
10
20
20
40
00
ENDCHAR
STARTCHAR bm_0x30EB
ENCODING 12523
SWIDTH 461 0
DWIDTH 12 0
BBX 10 12 0 0
BITMAP
0000
0000
0200
1200
1200
2200
2200
4240
8280
0300
0000
0000
ENDCHAR
STARTCHAR bm_0x30EC
ENCODING 12524
SWIDTH 461 0
DWIDTH 8 0
BBX 6 12 0 0
BITMAP
00
00
00
80
84
88
90
A0
C0
80
00
00
ENDCHAR
STARTCHAR bm_0x30ED
ENCODING 12525
SWIDTH 461 0
DWIDTH 8 0
BBX 6 12 0 0
BITMAP
00
00
FC
84
84
88
88
FC
80
00
00
00
ENDCHAR
STARTCHAR bm_0x30EE
ENCODING 12526
SWIDTH 461 0
DWIDTH 9 0
BBX 7 12 0 0
BITMAP
00
00
00
FE
82
82
04
04
08
10
20
00
ENDCHAR
STARTCHAR bm_0x30EF
ENCODING 12527
SWIDTH 461 0
DWIDTH 11 0
BBX 9 12 0 0
BITMAP
0000
0000
FF80
8080
8080
0100
0100
0200
0400
0800
1000
0000
ENDCHAR
STARTCHAR bm_0x30F0
ENCODING 12528
SWIDTH 461 0
DWIDTH 12 0
BBX 10 12 0 0
BITMAP
0000
0400
0400
3F00
2400
2400
FFC0
0400
0400
0400
0000
0000
ENDCHAR
STARTCHAR bm_0x30F1
ENCODING 12529
SWIDTH 461 0
DWIDTH 11 0
BBX 9 12 0 0
BITMAP
0000
0000
7E00
0400
0800
0800
0800
FF80
0000
0000
0000
0000
ENDCHAR
STARTCHAR bm_0x30F2
ENCODING 12530
SWIDTH 461 0
DWIDTH 10 0
BBX 8 12 0 0
BITMAP
00
00
FE
02
FF
04
04
08
08
10
20
00
ENDCHAR
STARTCHAR bm_0x30F3
ENCODING 12531
SWIDTH 461 0
DWIDTH 10 0
BBX 8 12 0 0
BITMAP
00
00
20
10
00
01
02
04
08
90
60
00
ENDCHAR
STARTCHAR bm_0x30F4
ENCODING 12532
SWIDTH 461 0
DWIDTH 12 0
BBX 10 12 0 0
BITMAP
0080
1040
1100
FE80
8200
8200
0400
0400
0800
1000
2000
0000
ENDCHAR
STARTCHAR bm_0x30F5
ENCODING 12533
SWIDTH 461 0
DWIDTH 7 0
BBX 5 12 0 0
BITMAP
00
20
20
F8
28
28
48
48
98
00
00
00
ENDCHAR
STARTCHAR bm_0x30F6
ENCODING 12534
SWIDTH 461 0
DWIDTH 9 0
BBX 7 12 0 0
BITMAP
00
00
40
40
7E
88
08
10
20
40
00
00
ENDCHAR
STARTCHAR bm_0x30FC
ENCODING 12540
SWIDTH 461 0
DWIDTH 12 0
BBX 12 12 0 0
BITMAP
0000
0000
0000
0FC0
F8E0
6000
0000
0000
0000
0000
0000
0000
ENDCHAR
STARTCHAR bm_0x30FD
ENCODING 12541
SWIDTH 461 0
DWIDTH 7 0
BBX 5 12 0 0
BITMAP
00
80
60
30
18
10
00
00
00
00
00
00
ENDCHAR
STARTCHAR bm_0x30FE
ENCODING 12542
SWIDTH 461 0
DWIDTH 11 0
BBX 9 12 0 0
BITMAP
0800
0600
2300
1980
0C80
8600
6400
3000
1800
0C00
0600
0400
ENDCHAR
STARTCHAR bm_0x3105
ENCODING 12549
SWIDTH 461 0
DWIDTH 10 0
BBX 8 12 0 0
BITMAP
00
20
40
FF
01
01
01
01
01
0A
04
00
ENDCHAR
STARTCHAR bm_0x3106
ENCODING 12550
SWIDTH 461 0
DWIDTH 9 0
BBX 7 12 0 0
BITMAP
00
20
40
FE
02
04
14
08
14
20
40
00
ENDCHAR
STARTCHAR bm_0x3107
ENCODING 12551
SWIDTH 461 0
DWIDTH 9 0
BBX 7 12 0 0
BITMAP
00
00
00
FE
82
82
82
82
82
00
00
00
ENDCHAR
STARTCHAR bm_0x3108
ENCODING 12552
SWIDTH 461 0
DWIDTH 11 0
BBX 9 12 0 0
BITMAP
0000
0000
FF80
4000
4000
4000
4000
4000
4000
3F80
0000
0000
ENDCHAR
STARTCHAR bm_0x3109
ENCODING 12553
SWIDTH 461 0
DWIDTH 10 0
BBX 8 12 0 0
BITMAP
00
20
20
7F
09
09
11
11
21
4A
84
00
ENDCHAR
STARTCHAR bm_0x310A
ENCODING 12554
SWIDTH 461 0
DWIDTH 9 0
BBX 7 12 0 0
BITMAP
00
10
10
FE
10
10
20
44
FE
02
00
00
ENDCHAR
STARTCHAR bm_0x310B
ENCODING 12555
SWIDTH 461 0
DWIDTH 9 0
BBX 7 12 0 0
BITMAP
00
FC
08
10
3E
02
02
02
02
14
08
00
ENDCHAR
STARTCHAR bm_0x310C
ENCODING 12556
SWIDTH 461 0
DWIDTH 10 0
BBX 8 12 0 0
BITMAP
00
08
28
28
7F
09
11
11
21
45
82
00
ENDCHAR
STARTCHAR bm_0x310D
ENCODING 12557
SWIDTH 461 0
DWIDTH 9 0
BBX 7 12 0 0
BITMAP
00
00
12
24
48
90
90
48
24
12
00
00
ENDCHAR
STARTCHAR bm_0x310E
ENCODING 12558
SWIDTH 461 0
DWIDTH 11 0
BBX 9 12 0 0
BITMAP
0000
0000
FF80
1000
2000
3F00
0100
0100
0100
0A00
0400
0000
ENDCHAR
STARTCHAR bm_0x310F
ENCODING 12559
SWIDTH 461 0
DWIDTH 12 0
BBX 10 12 0 0
BITMAP
0000
0000
3FC0
2000
2000
2000
2000
2000
4000
4000
8000
0000
ENDCHAR
STARTCHAR bm_0x3110
ENCODING 12560
SWIDTH 461 0
DWIDTH 7 0
BBX 5 12 0 0
BITMAP
00
08
88
88
88
98
A8
C8
08
08
08
00
ENDCHAR
STARTCHAR bm_0x3111
ENCODING 12561
SWIDTH 461 0
DWIDTH 6 0
BBX 4 12 0 0
BITMAP
00
10
10
20
40
80
40
20
10
10
00
00
ENDCHAR
STARTCHAR bm_0x3112
ENCODING 12562
SWIDTH 461 0
DWIDTH 11 0
BBX 9 12 0 0
BITMAP
0000
0000
FF80
0800
0800
0800
0800
0800
0800
0800
0000
0000
ENDCHAR
STARTCHAR bm_0x3113
ENCODING 12563
SWIDTH 461 0
DWIDTH 11 0
BBX 9 12 0 0
BITMAP
0000
0800
4900
4900
4900
4900
7F00
0800
0800
FF80
0000
0000
ENDCHAR
STARTCHAR bm_0x3114
ENCODING 12564
SWIDTH 461 0
DWIDTH 7 0
BBX 5 12 0 0
BITMAP
00
08
10
20
48
90
30
50
90
10
10
00
ENDCHAR
STARTCHAR bm_0x3115
ENCODING 12565
SWIDTH 461 0
DWIDTH 11 0
BBX 9 12 0 0
BITMAP
0000
0000
3F80
0080
3F80
2000
2000
2000
4000
4000
8000
0000
ENDCHAR
STARTCHAR bm_0x3116
ENCODING 12566
SWIDTH 461 0
DWIDTH 7 0
BBX 5 12 0 0
BITMAP
00
00
F8
88
88
C8
A8
88
88
F8
00
00
ENDCHAR
STARTCHAR bm_0x3117
ENCODING 12567
SWIDTH 461 0
DWIDTH 8 0
BBX 6 12 0 0
BITMAP
00
00
FC
44
44
44
54
48
40
40
40
00
ENDCHAR
STARTCHAR bm_0x3118
ENCODING 12568
SWIDTH 461 0
DWIDTH 11 0
BBX 9 12 0 0
BITMAP
0000
0800
0800
FF80
1000
2000
3F00
0100
0100
0200
0200
0400
ENDCHAR
STARTCHAR bm_0x3119
ENCODING 12569
SWIDTH 461 0
DWIDTH 9 0
BBX 7 12 0 0
BITMAP
00
10
10
10
20
20
40
44
FE
02
00
00
ENDCHAR
STARTCHAR bm_0x311A
ENCODING 12570
SWIDTH 461 0
DWIDTH 9 0
BBX 7 12 0 0
BITMAP
00
82
44
28
10
10
10
10
10
10
10
00
ENDCHAR
STARTCHAR bm_0x311B
ENCODING 12571
SWIDTH 461 0
DWIDTH 9 0
BBX 7 12 0 0
BITMAP
00
00
FE
10
10
70
80
80
80
7C
00
00
ENDCHAR
STARTCHAR bm_0x311C
ENCODING 12572
SWIDTH 461 0
DWIDTH 11 0
BBX 9 12 0 0
BITMAP
0000
0800
0800
FF80
0800
3800
4000
4000
4100
3E00
0000
0000
ENDCHAR
STARTCHAR bm_0x311D
ENCODING 12573
SWIDTH 461 0
DWIDTH 12 0
BBX 10 12 0 0
BITMAP
0000
0000
1200
1200
FFC0
1200
1200
1400
1000
0F80
0000
0000
ENDCHAR
STARTCHAR bm_0x311E
ENCODING 12574
SWIDTH 461 0
DWIDTH 9 0
BBX 7 12 0 0
BITMAP
00
FE
10
90
FE
22
22
44
84
08
00
00
ENDCHAR
STARTCHAR bm_0x311F
ENCODING 12575
SWIDTH 461 0
DWIDTH 9 0
BBX 7 12 0 0
BITMAP
00
00
E0
20
20
20
10
10
08
06
00
00
ENDCHAR
STARTCHAR bm_0x3120
ENCODING 12576
SWIDTH 461 0
DWIDTH 8 0
BBX 6 12 0 0
BITMAP
00
20
24
44
48
F0
20
48
FC
04
00
00
ENDCHAR
STARTCHAR bm_0x3121
ENCODING 12577
SWIDTH 461 0
DWIDTH 9 0
BBX 7 12 0 0
BITMAP
00
00
FE
02
04
44
28
10
28
44
80
00
ENDCHAR
STARTCHAR bm_0x3122
ENCODING 12578
SWIDTH 461 0
DWIDTH 9 0
BBX 7 12 0 0
BITMAP
00
FC
44
48
88
FE
02
02
04
04
08
00
ENDCHAR
STARTCHAR bm_0x3123
ENCODING 12579
SWIDTH 461 0
DWIDTH 8 0
BBX 6 12 0 0
BITMAP
00
80
80
80
80
FC
04
04
08
08
00
00
ENDCHAR
STARTCHAR bm_0x3124
ENCODING 12580
SWIDTH 461 0
DWIDTH 11 0
BBX 9 12 0 0
BITMAP
0000
1000
1000
1000
FF80
1400
1400
2400
2400
4380
0000
0000
ENDCHAR
STARTCHAR bm_0x3125
ENCODING 12581
SWIDTH 461 0
DWIDTH 10 0
BBX 8 12 0 0
BITMAP
00
08
08
08
10
10
20
20
4F
F0
00
00
ENDCHAR
STARTCHAR bm_0x3126
ENCODING 12582
SWIDTH 461 0
DWIDTH 12 0
BBX 10 12 0 0
BITMAP
0000
0000
2400
2400
2400
2400
2400
4440
4440
83C0
0000
0000
ENDCHAR
STARTCHAR bm_0x3127
ENCODING 12583
SWIDTH 461 0
DWIDTH 3 0
BBX 1 12 0 0
BITMAP
00
80
80
80
80
80
80
80
80
80
80
00
ENDCHAR
STARTCHAR bm_0x3128
ENCODING 12584
SWIDTH 461 0
DWIDTH 9 0
BBX 7 12 0 0
BITMAP
00
00
04
84
44
28
18
18
24
C2
00
00
ENDCHAR
STARTCHAR bm_0x3129
ENCODING 12585
SWIDTH 461 0
DWIDTH 9 0
BBX 7 12 0 0
BITMAP
00
00
02
82
82
82
82
FE
02
00
00
00
ENDCHAR
STARTCHAR bm_0x3220
ENCODING 12832
SWIDTH 461 0
DWIDTH 12 0
BBX 12 12 0 0
BITMAP
2080
4040
4040
8020
8020
BFA0
8020
8020
4040
4040
2080
0000
ENDCHAR
STARTCHAR bm_0x3221
ENCODING 12833
SWIDTH 461 0
DWIDTH 12 0
BBX 12 12 0 0
BITMAP
2080
4040
4040
9F20
8020
8020
8020
BFA0
4040
4040
2080
0000
ENDCHAR
STARTCHAR bm_0x3222
ENCODING 12834
SWIDTH 461 0
DWIDTH 12 0
BBX 12 12 0 0
BITMAP
2080
4040
5E40
8020
8020
9E20
8020
8020
7F40
4040
2080
0000
ENDCHAR
STARTCHAR bm_0x3223
ENCODING 12835
SWIDTH 461 0
DWIDTH 12 0
BBX 12 12 0 0
BITMAP
2080
4040
7FC0
AAA0
AAA0
ABA0
B0A0
A0A0
7FC0
4040
2080
0000
ENDCHAR
STARTCHAR bm_0x3224
ENCODING 12836
SWIDTH 461 0
DWIDTH 12 0
BBX 12 12 0 0
BITMAP
2080
4040
7F40
8820
8820
BF20
9120
9120
7FC0
4040
2080
0000
ENDCHAR
STARTCHAR bm_0x3225
ENCODING 12837
SWIDTH 461 0
DWIDTH 12 0
BBX 12 12 0 0
BITMAP
2080
4840
4440
8020
BFA0
8020
8A20
9120
60C0
4040
2080
0000
ENDCHAR
STARTCHAR bm_0x3226
ENCODING 12838
SWIDTH 461 0
DWIDTH 12 0
BBX 12 12 0 0
BITMAP
2080
4840
4840
8820
8F20
B820
8820
8920
4940
4740
2080
0000
ENDCHAR
STARTCHAR bm_0x3227
ENCODING 12839
SWIDTH 461 0
DWIDTH 12 0
BBX 12 12 0 0
BITMAP
2080
4040
4240
9220
9220
9120
9120
A0A0
4040
4040
2080
0000
ENDCHAR
STARTCHAR bm_0x3228
ENCODING 12840
SWIDTH 461 0
DWIDTH 12 0
BBX 12 12 0 0
BITMAP
2080
4840
4840
8820
BE20
8A20
8A20
92A0
61C0
4040
2080
0000
ENDCHAR
STARTCHAR bm_0x3229
ENCODING 12841
SWIDTH 461 0
DWIDTH 12 0
BBX 12 12 0 0
BITMAP
2080
4440
4440
8420
8420
BFA0
8420
8420
4440
4440
2080
0000
ENDCHAR
STARTCHAR bm_0x3231
ENCODING 12849
SWIDTH 461 0
DWIDTH 12 0
BBX 12 12 0 0
BITMAP
4040
9120
9520
FFE0
9520
BBE0
B520
D3A0
9560
9120
9120
4040
ENDCHAR
STARTCHAR bm_0x32A3
ENCODING 12963
SWIDTH 461 0
DWIDTH 11 0
BBX 9 12 0 0
BITMAP
0000
3E00
4100
BE80
8880
AE80
A880
FF80
4100
3E00
0000
0000
ENDCHAR
STARTCHAR bm_0x338E
ENCODING 13198
SWIDTH 461 0
DWIDTH 12 0
BBX 12 12 0 0
BITMAP
0000
0000
51A0
AA40
AA40
A980
A900
A9C0
AA20
0220
01C0
0000
ENDCHAR
STARTCHAR bm_0x338F
ENCODING 13199
SWIDTH 461 0
DWIDTH 12 0
BBX 10 12 0 0
BITMAP
8000
8000
8340
9480
A480
C300
A200
9380
8440
0440
0380
0000
ENDCHAR
STARTCHAR bm_0x339C
ENCODING 13212
SWIDTH 461 0
DWIDTH 12 0
BBX 12 12 0 0
BITMAP
0000
0000
5140
AAA0
AAA0
AAA0
AAA0
AAA0
AAA0
0000
0000
0000
ENDCHAR
STARTCHAR bm_0x339D
ENCODING 13213
SWIDTH 461 0
DWIDTH 12 0
BBX 10 12 0 0
BITMAP
0000
0000
6280
9540
8540
8540
8540
9540
6540
0000
0000
0000
ENDCHAR
STARTCHAR bm_0x339E
ENCODING 13214
SWIDTH 461 0
DWIDTH 12 0
BBX 10 12 0 0
BITMAP
8000
8000
9280
A540
A540
C540
A540
A540
9540
0000
0000
0000
ENDCHAR
STARTCHAR bm_0x33A1
ENCODING 13217
SWIDTH 461 0
DWIDTH 11 0
BBX 9 12 0 0
BITMAP
0300
0480
5080
A900
AB80
A800
A800
A800
A800
0000
0000
0000
ENDCHAR
STARTCHAR bm_0x33C4
ENCODING 13252
SWIDTH 461 0
DWIDTH 12 0
BBX 12 12 0 0
BITMAP
0000
0000
71C0
8A20
8200
8200
8A20
71C0
0000
0000
0000
0000
ENDCHAR
STARTCHAR bm_0x33CE
ENCODING 13262
SWIDTH 461 0
DWIDTH 12 0
BBX 10 12 0 0
BITMAP
0000
9440
A6C0
A6C0
A6C0
C540
A540
A540
A440
9440
0000
0000
ENDCHAR
STARTCHAR bm_0x33D1
ENCODING 13265
SWIDTH 461 0
DWIDTH 9 0
BBX 7 12 0 0
BITMAP
80
80
AC
92
92
92
92
92
92
00
00
00
ENDCHAR
STARTCHAR bm_0x33D2
ENCODING 13266
SWIDTH 461 0
DWIDTH 12 0
BBX 12 12 0 0
BITMAP
8000
8000
91A0
AA40
AA40
A980
A900
A9C0
9220
0220
01C0
0000
ENDCHAR
STARTCHAR bm_0x33D5
ENCODING 13269
SWIDTH 461 0
DWIDTH 11 0
BBX 9 12 0 0
BITMAP
0280
0080
5280
AA80
AA80
AA80
AA80
AA80
AA80
0000
0000
0000
ENDCHAR
STARTCHAR bm_0x4E00
ENCODING 19968
SWIDTH 461 0
DWIDTH 12 0
BBX 12 12 0 0
BITMAP
0000
0000
0000
0000
0000
0000
FFE0
0000
0000
0000
0000
0000
ENDCHAR
STARTCHAR bm_0x4E01
ENCODING 19969
SWIDTH 461 0
DWIDTH 12 0
BBX 12 12 0 0
BITMAP
0000
FFE0
0400
0400
0400
0400
0400
0400
0400
0400
0400
1C00
ENDCHAR
STARTCHAR bm_0x4E02
ENCODING 19970
SWIDTH 461 0
DWIDTH 12 0
BBX 12 12 0 0
BITMAP
0000
FFE0
1000
1000
2000
2000
3FC0
0040
0040
0040
0040
0380
ENDCHAR
STARTCHAR bm_0x4E03
ENCODING 19971
SWIDTH 461 0
DWIDTH 12 0
BBX 12 12 0 0
BITMAP
0800
0800
0800
0800
0FE0
F800
0800
0800
0800
0820
0820
07E0
ENDCHAR
STARTCHAR bm_0x4E04
ENCODING 19972
SWIDTH 461 0
DWIDTH 12 0
BBX 12 12 0 0
BITMAP
0400
0400
0400
0400
0400
0400
0400
0400
0400
0400
0400
FFE0
ENDCHAR
STARTCHAR bm_0x4E05
ENCODING 19973
SWIDTH 461 0
DWIDTH 12 0
BBX 12 12 0 0
BITMAP
0000
FFE0
0400
0400
0400
0400
0400
0400
0400
0400
0400
0400
ENDCHAR
STARTCHAR bm_0x4E06
ENCODING 19974
SWIDTH 461 0
DWIDTH 12 0
BBX 12 12 0 0
BITMAP
0000
FFE0
0400
0400
0800
0800
1000
2000
4000
8000
0000
0000
ENDCHAR
STARTCHAR bm_0x4E07
ENCODING 19975
SWIDTH 461 0
DWIDTH 12 0
BBX 12 12 0 0
BITMAP
0000
FFE0
1000
1000
1000
1FC0
1040
1040
2040
2040
4040
8380
ENDCHAR
STARTCHAR bm_0x4E08
ENCODING 19976
SWIDTH 461 0
DWIDTH 12 0
BBX 12 12 0 0
BITMAP
0100
0100
0100
FFE0
0100
2100
2100
1200
0A00
0400
1B00
60E0
ENDCHAR
STARTCHAR bm_0x4E09
ENCODING 19977
SWIDTH 461 0
DWIDTH 12 0
BBX 12 12 0 0
BITMAP
0000
7FC0
0000
0000
0000
0000
3F80
0000
0000
0000
0000
FFE0
ENDCHAR
STARTCHAR bm_0x4E0A
ENCODING 19978
SWIDTH 461 0
DWIDTH 12 0
BBX 12 12 0 0
BITMAP
0800
0800
0800
0800
0FC0
0800
0800
0800
0800
0800
0800
FFE0
ENDCHAR
STARTCHAR bm_0x4E0B
ENCODING 19979
SWIDTH 461 0
DWIDTH 12 0
BBX 12 12 0 0
BITMAP
0000
FFE0
0800
0800
0A00
0900
0880
0840
0840
0800
0800
0800
ENDCHAR
STARTCHAR bm_0x4E0C
ENCODING 19980
SWIDTH 461 0
DWIDTH 12 0
BBX 12 12 0 0
BITMAP
0000
FFE0
1100
1100
1100
1100
1100
1100
1100
2100
2100
4100
ENDCHAR
STARTCHAR bm_0x4E0D
ENCODING 19981
SWIDTH 461 0
DWIDTH 12 0
BBX 12 12 0 0
BITMAP
0000
FFE0
0200
0200
0400
0D00
1480
2440
C420
0400
0400
0400
ENDCHAR
STARTCHAR bm_0x4E0E
ENCODING 19982
SWIDTH 461 0
DWIDTH 12 0
BBX 12 12 0 0
BITMAP
2000
2000
3FE0
4000
4000
7FC0
0040
0040
FF40
0040
0040
0380
ENDCHAR
STARTCHAR bm_0x4E0F
ENCODING 19983
SWIDTH 461 0
DWIDTH 12 0
BBX 12 12 0 0
BITMAP
0000
FFE0
0400
0400
47E0
4420
4420
7FE0
0020
0020
0020
00C0
ENDCHAR
STARTCHAR bm_0x4E10
ENCODING 19984
SWIDTH 461 0
DWIDTH 12 0
BBX 12 12 0 0
BITMAP
0000
FFE0
0400
0400
47E0
4400
4400
7FE0
0020
0020
0020
00C0
ENDCHAR
STARTCHAR bm_0x4E11
ENCODING 19985
SWIDTH 461 0
DWIDTH 12 0
BBX 12 12 0 0
BITMAP
0000
7F80
0880
0880
0880
0880
7F80
1080
1080
1080
1080
FFE0
ENDCHAR
STARTCHAR bm_0x4E12
ENCODING 19986
SWIDTH 461 0
DWIDTH 12 0
BBX 12 12 0 0
BITMAP
0000
7FC0
0840
4840
2840
1040
1840
2440
4040
8380
0000
FFE0
ENDCHAR
STARTCHAR bm_0x4E13
ENCODING 19987
SWIDTH 461 0
DWIDTH 12 0
BBX 12 12 0 0
BITMAP
0400
0400
7FC0
0800
0800
FFE0
1000
3F80
0080
3900
0700
0080
ENDCHAR
STARTCHAR bm_0x4E14
ENCODING 19988
SWIDTH 461 0
DWIDTH 12 0
BBX 12 12 0 0
BITMAP
0000
3F80
2080
2080
3F80
2080
2080
3F80
2080
2080
2080
FFE0
ENDCHAR
STARTCHAR bm_0x4E15
ENCODING 19989
SWIDTH 461 0
DWIDTH 12 0
BBX 12 12 0 0
BITMAP
0000
FFE0
0200
0400
0D80
1440
2420
C400
0400
0400
0000
FFE0
ENDCHAR
STARTCHAR bm_0x4E16
ENCODING 19990
SWIDTH 461 0
DWIDTH 12 0
BBX 12 12 0 0
BITMAP
0480
2480
2480
2480
FFE0
2480
2480
2480
2780
2000
2000
3FE0
ENDCHAR
STARTCHAR bm_0x4E17
ENCODING 19991
SWIDTH 461 0
DWIDTH 12 0
BBX 12 12 0 0
BITMAP
4440
4440
4440
4440
FFE0
4440
4440
4440
4440
4440
7FC0
4040
ENDCHAR
STARTCHAR bm_0x4E18
ENCODING 19992
SWIDTH 461 0
DWIDTH 12 0
BBX 12 12 0 0
BITMAP
0180
3E00
2000
2000
2000
3FC0
2100
2100
2100
2100
2100
FFE0
ENDCHAR
STARTCHAR bm_0x4E19
ENCODING 19993
SWIDTH 461 0
DWIDTH 12 0
BBX 12 12 0 0
BITMAP
0000
FFE0
0400
0400
FFE0
8420
8420
8A20
9120
A0A0
8020
8060
ENDCHAR
STARTCHAR bm_0x4E1A
ENCODING 19994
SWIDTH 461 0
DWIDTH 12 0
BBX 12 12 0 0
BITMAP
1100
1100
1100
1100
9120
5140
3180
1100
1100
1100
1100
FFE0
ENDCHAR
STARTCHAR bm_0x4E1B
ENCODING 19995
SWIDTH 461 0
DWIDTH 12 0
BBX 12 12 0 0
BITMAP
1100
1100
1100
1100
1280
2A80
2A80
4440
4440
8820
0000
FFE0
ENDCHAR
STARTCHAR bm_0x4E1C
ENCODING 19996
SWIDTH 461 0
DWIDTH 12 0
BBX 12 12 0 0
BITMAP
0800
0800
FFE0
1000
2400
4400
7FC0
0400
2480
4440
8420
0C00
ENDCHAR
STARTCHAR bm_0x4E1D
ENCODING 19997
SWIDTH 461 0
DWIDTH 12 0
BBX 12 12 0 0
BITMAP
1080
2080
4100
8A20
F3C0
2080
4100
8200
FBE0
0000
0000
FFE0
ENDCHAR
STARTCHAR bm_0x4E1E
ENCODING 19998
SWIDTH 461 0
DWIDTH 12 0
BBX 12 12 0 0
BITMAP
3F00
0100
0200
0440
F580
1600
2500
4480
8460
1C00
0000
FFE0
ENDCHAR
STARTCHAR bm_0x4E1F
ENCODING 19999
SWIDTH 461 0
DWIDTH 12 0
BBX 12 12 0 0
BITMAP
7FC0
0400
0400
7FC0
0400
0400
FFE0
0800
1100
2080
7FC0
0040
ENDCHAR
STARTCHAR bm_0x4E20
ENCODING 20000
SWIDTH 461 0
DWIDTH 12 0
BBX 12 12 0 0
BITMAP
1100
1100
1120
F140
1180
1100
1100
3120
D120
10E0
0000
FFE0
ENDCHAR
STARTCHAR bm_0x4E21
ENCODING 20001
SWIDTH 461 0
DWIDTH 12 0
BBX 12 12 0 0
BITMAP
0000
FFE0
0400
0400
FFE0
8420
8420
A4A0
A4A0
BFA0
8020
8060
ENDCHAR
STARTCHAR bm_0x4E22
ENCODING 20002
SWIDTH 461 0
DWIDTH 12 0
BBX 12 12 0 0
BITMAP
03C0
7C00
0400
0400
7FC0
0400
0400
FFE0
1000
2080
7FC0
0040
ENDCHAR
STARTCHAR bm_0x4E23
ENCODING 20003
SWIDTH 461 0
DWIDTH 12 0
BBX 12 12 0 0
BITMAP
0000
FFE0
1100
1100
F1E0
9120
9120
F1E0
1120
2100
2100
4100
ENDCHAR
STARTCHAR bm_0x4E24
ENCODING 20004
SWIDTH 461 0
DWIDTH 12 0
BBX 12 12 0 0
BITMAP
0000
FFE0
1100
1100
FFE0
9120
9120
AAA0
C460
8820
8020
8060
ENDCHAR
STARTCHAR bm_0x4E25
ENCODING 20005
SWIDTH 461 0
DWIDTH 12 0
BBX 12 12 0 0
BITMAP
0000
7FE0
0900
2940
1980
0900
7FE0
4000
4000
4000
4000
8000
ENDCHAR
STARTCHAR bm_0x4E26
ENCODING 20006
SWIDTH 461 0
DWIDTH 12 0
BBX 12 12 0 0
BITMAP
2080
1100
0000
FFE0
1100
1100
9120
5140
3180
1100
1100
FFE0
ENDCHAR
STARTCHAR bm_0x4E27
ENCODING 20007
SWIDTH 461 0
DWIDTH 12 0
BBX 12 12 0 0
BITMAP
0400
0400
7FC0
0400
2480
1500
FFE0
2440
2280
2100
2880
3060
ENDCHAR
STARTCHAR bm_0x4E28
ENCODING 20008
SWIDTH 461 0
DWIDTH 3 0
BBX 1 12 0 0
BITMAP
80
80
80
80
80
80
80
80
80
80
80
80
ENDCHAR
STARTCHAR bm_0x4E29
ENCODING 20009
SWIDTH 461 0
DWIDTH 9 0
BBX 7 12 0 0
BITMAP
02
82
82
82
82
82
86
9A
E2
82
02
02
ENDCHAR
STARTCHAR bm_0x4E2A
ENCODING 20010
SWIDTH 461 0
DWIDTH 12 0
BBX 12 12 0 0
BITMAP
0400
0400
0A00
1100
2480
C460
0400
0400
0400
0400
0400
0400
ENDCHAR
STARTCHAR bm_0x4E2B
ENCODING 20011
SWIDTH 461 0
DWIDTH 12 0
BBX 12 12 0 0
BITMAP
8020
4040
2080
1100
0A00
0400
0400
0400
0400
0400
0400
0400
ENDCHAR
STARTCHAR bm_0x4E2C
ENCODING 20012
SWIDTH 461 0
DWIDTH 6 0
BBX 4 12 0 0
BITMAP
10
10
90
50
30
10
30
50
90
10
10
10
ENDCHAR
STARTCHAR bm_0x4E2D
ENCODING 20013
SWIDTH 461 0
DWIDTH 11 0
BBX 9 12 0 0
BITMAP
0800
0800
0800
FF80
8880
8880
8880
FF80
8880
0800
0800
0800
ENDCHAR
STARTCHAR bm_0x4E2E
ENCODING 20014
SWIDTH 461 0
DWIDTH 12 0
BBX 12 12 0 0
BITMAP
0000
7F80
1080
1080
FE80
1080
1080
FE80
1080
10A0
1060
1020
ENDCHAR
STARTCHAR bm_0x4E2F
ENCODING 20015
SWIDTH 461 0
DWIDTH 12 0
BBX 10 12 0 0
BITMAP
0800
0980
1E00
E800
09C0
1E00
E800
09C0
1E00
E800
0800
0800
ENDCHAR
STARTCHAR bm_0x4E30
ENCODING 20016
SWIDTH 461 0
DWIDTH 12 0
BBX 12 12 0 0
BITMAP
0400
0400
FFE0
0400
0400
7FC0
0400
0400
FFE0
0400
0400
0400
ENDCHAR
STARTCHAR bm_0x4E31
ENCODING 20017
SWIDTH 461 0
DWIDTH 12 0
BBX 12 12 0 0
BITMAP
1100
1100
9120
9120
9120
9120
B120
D1E0
1120
2100
2100
4100
ENDCHAR
STARTCHAR bm_0x4E32
ENCODING 20018
SWIDTH 461 0
DWIDTH 12 0
BBX 12 12 0 0
BITMAP
0400
7FC0
4440
4440
7FC0
0400
FFE0
8420
8420
FFE0
8420
0400
ENDCHAR
STARTCHAR bm_0x4E33
ENCODING 20019
SWIDTH 461 0
DWIDTH 12 0
BBX 12 12 0 0
BITMAP
1100
1100
7FC0
5140
7FC0
1100
FFE0
9120
FFE0
9120
2100
4100
ENDCHAR
STARTCHAR bm_0x4E34
ENCODING 20020
SWIDTH 461 0
DWIDTH 12 0
BBX 12 12 0 0
BITMAP
2400
2400
A7E0
A900
B080
A000
AFE0
A920
A920
2920
2FE0
2820
ENDCHAR
STARTCHAR bm_0x4E35
ENCODING 20021
SWIDTH 461 0
DWIDTH 12 0
BBX 12 12 0 0
BITMAP
0A00
4A40
2A80
FFE0
2080
1100
7FC0
0400
FFE0
0400
0400
0400
ENDCHAR
STARTCHAR bm_0x4E36
ENCODING 20022
SWIDTH 461 0
DWIDTH 6 0
BBX 4 12 0 0
BITMAP
00
00
00
00
80
40
20
20
10
10
00
00
ENDCHAR
STARTCHAR bm_0x4E37
ENCODING 20023
SWIDTH 461 0
DWIDTH 10 0
BBX 8 12 0 0
BITMAP
00
01
81
41
22
22
04
00
00
00
00
00
ENDCHAR
STARTCHAR bm_0x4E38
ENCODING 20024
SWIDTH 461 0
DWIDTH 12 0
BBX 12 12 0 0
BITMAP
1000
1000
1000
FF00
1100
5100
3100
1100
2900
2520
4120
80E0
ENDCHAR
STARTCHAR bm_0x4E39
ENCODING 20025
SWIDTH 461 0
DWIDTH 12 0
BBX 12 12 0 0
BITMAP
0000
3FC0
2040
2440
2240
2040
FFE0
2040
2040
4040
4040
81C0
ENDCHAR
STARTCHAR bm_0x4E3A
ENCODING 20026
SWIDTH 461 0
DWIDTH 12 0
BBX 12 12 0 0
BITMAP
0200
2200
1200
7FE0
0420
0420
0A20
0920
1120
2020
4020
81C0
ENDCHAR
STARTCHAR bm_0x4E3B
ENCODING 20027
SWIDTH 461 0
DWIDTH 12 0
BBX 12 12 0 0
BITMAP
0800
0400
0000
7FC0
0400
0400
0400
7FC0
0400
0400
0400
FFE0
ENDCHAR
STARTCHAR bm_0x4E3C
ENCODING 20028
SWIDTH 461 0
DWIDTH 12 0
BBX 12 12 0 0
BITMAP
1080
1080
7FE0
1080
1480
1280
1080
FFE0
1080
1080
2080
4080
ENDCHAR
STARTCHAR bm_0x4E3D
ENCODING 20029
SWIDTH 461 0
DWIDTH 12 0
BBX 12 12 0 0
BITMAP
0000
FFE0
0000
7BC0
4A40
4A40
6B40
5AC0
4A40
4A40
4A40
5AC0
ENDCHAR
STARTCHAR bm_0x4E3E
ENCODING 20030
SWIDTH 461 0
DWIDTH 12 0
BBX 12 12 0 0
BITMAP
0800
4440
2080
FFE0
1100
2480
C460
7FC0
0400
FFE0
0400
0400
ENDCHAR
STARTCHAR bm_0x4E3F
ENCODING 20031
SWIDTH 461 0
DWIDTH 6 0
BBX 4 12 0 0
BITMAP
10
10
10
10
10
10
20
20
20
40
40
80
ENDCHAR
STARTCHAR bm_0x4E40
ENCODING 20032
SWIDTH 461 0
DWIDTH 12 0
BBX 12 12 0 0
BITMAP
0000
2000
2000
5000
9000
1000
0800
0800
0400
0200
0100
00E0
ENDCHAR
STARTCHAR bm_0x4E41
ENCODING 20033
SWIDTH 461 0
DWIDTH 11 0
BBX 9 12 0 0
BITMAP
0000
F800
0800
0800
0800
0800
0800
0800
0400
0400
0200
0180
ENDCHAR
STARTCHAR bm_0x4E42
ENCODING 20034
SWIDTH 461 0
DWIDTH 12 0
BBX 12 12 0 0
BITMAP
0000
0040
4040
4080
2080
1100
0A00
0400
0A00
1100
2080
C060
ENDCHAR
STARTCHAR bm_0x4E43
ENCODING 20035
SWIDTH 461 0
DWIDTH 12 0
BBX 12 12 0 0
BITMAP
0000
7FC0
1040
1080
1080
1100
11E0
1020
2020
2020
4020
81C0
ENDCHAR
STARTCHAR bm_0x4E44
ENCODING 20036
SWIDTH 461 0
DWIDTH 11 0
BBX 9 12 0 0
BITMAP
0080
0080
0100
2100
1200
0A00
0400
8A00
9100
A080
C080
8000
ENDCHAR
STARTCHAR bm_0x4E45
ENCODING 20037
SWIDTH 461 0
DWIDTH 12 0
BBX 12 12 0 0
BITMAP
2000
2000
3F80
2080
4100
4100
8200
0400
0A00
1100
2080
C060
ENDCHAR
STARTCHAR bm_0x4E46
ENCODING 20038
SWIDTH 461 0
DWIDTH 12 0
BBX 12 12 0 0
BITMAP
1040
1040
2080
2080
4100
7F00
0200
0400
0A00
1100
2080
C060
ENDCHAR
STARTCHAR bm_0x4E47
ENCODING 20039
SWIDTH 461 0
DWIDTH 12 0
BBX 12 12 0 0
BITMAP
03C0
7C00
0400
0400
0400
07E0
FC00
0400
0400
0420
0420
03E0
ENDCHAR
STARTCHAR bm_0x4E48
ENCODING 20040
SWIDTH 461 0
DWIDTH 12 0
BBX 12 12 0 0
BITMAP
0400
0400
0880
0880
1100
2100
4200
8400
0880
1040
3FE0
0020
ENDCHAR
STARTCHAR bm_0x4E49
ENCODING 20041
SWIDTH 461 0
DWIDTH 12 0
BBX 12 12 0 0
BITMAP
0800
0440
4440
4080
2080
1100
0A00
0400
0A00
1100
2080
C060
ENDCHAR
STARTCHAR bm_0x4E4A
ENCODING 20042
SWIDTH 461 0
DWIDTH 12 0
BBX 12 12 0 0
BITMAP
0000
00E0
0700
F800
0000
0040
4040
2080
1080
1100
0000
0000
ENDCHAR
STARTCHAR bm_0x4E4B
ENCODING 20043
SWIDTH 461 0
DWIDTH 12 0
BBX 10 12 0 0
BITMAP
1000
0800
0000
FF80
0100
0200
0400
0800
1000
2000
5000
8FC0
ENDCHAR
STARTCHAR bm_0x4E4C
ENCODING 20044
SWIDTH 461 0
DWIDTH 12 0
BBX 12 12 0 0
BITMAP
0800
3F80
2080
2080
2180
2000
3FE0
0020
0020
FFA0
0020
01C0
ENDCHAR
STARTCHAR bm_0x4E4D
ENCODING 20045
SWIDTH 461 0
DWIDTH 12 0
BBX 12 12 0 0
BITMAP
2000
2000
3FE0
4800
4800
8FC0
0800
0800
0FE0
0800
0800
0800
ENDCHAR
STARTCHAR bm_0x4E4E
ENCODING 20046
SWIDTH 461 0
DWIDTH 12 0
BBX 12 12 0 0
BITMAP
03C0
7C00
0400
4440
2480
0400
FFE0
0400
0400
0400
0400
1C00
ENDCHAR
STARTCHAR bm_0x4E4F
ENCODING 20047
SWIDTH 461 0
DWIDTH 12 0
BBX 12 12 0 0
BITMAP
03E0
FC00
0000
0800
0400
FFC0
0080
0300
0C00
1000
6000
9FE0
ENDCHAR
STARTCHAR bm_0x4E50
ENCODING 20048
SWIDTH 461 0
DWIDTH 12 0
BBX 12 12 0 0
BITMAP
0380
7C00
4000
4400
4400
7FC0
0400
2480
2440
4420
8420
1C00
ENDCHAR
STARTCHAR bm_0x4E51
ENCODING 20049
SWIDTH 461 0
DWIDTH 12 0
BBX 12 12 0 0
BITMAP
03E0
FC00
0400
1420
2640
4680
8500
1500
2480
4440
8420
0400
ENDCHAR
STARTCHAR bm_0x4E52
ENCODING 20050
SWIDTH 461 0
DWIDTH 12 0
BBX 12 12 0 0
BITMAP
0180
3E00
2000
2000
3FC0
2100
2100
2100
FFE0
1000
2000
4000
ENDCHAR
STARTCHAR bm_0x4E53
ENCODING 20051
SWIDTH 461 0
DWIDTH 12 0
BBX 12 12 0 0
BITMAP
0180
3E00
2000
2000
3FC0
2100
2100
2100
FFE0
0100
0080
0040
ENDCHAR
STARTCHAR bm_0x4E54
ENCODING 20052
SWIDTH 461 0
DWIDTH 12 0
BBX 12 12 0 0
BITMAP
0380
7C00
0400
FFE0
0A00
1100
2080
D160
1100
1100
2100
4100
ENDCHAR
STARTCHAR bm_0x4E55
ENCODING 20053
SWIDTH 461 0
DWIDTH 12 0
BBX 12 12 0 0
BITMAP
01C0
7E00
4200
5FC0
4200
7FE0
4200
5FC0
5240
5240
52C0
8200
ENDCHAR
STARTCHAR bm_0x4E56
ENCODING 20054
SWIDTH 461 0
DWIDTH 12 0
BBX 12 12 0 0
BITMAP
0380
3C00
0400
FFE0
1500
1540
F580
1520
3520
D4E0
0400
0400
ENDCHAR
STARTCHAR bm_0x4E57
ENCODING 20055
SWIDTH 461 0
DWIDTH 12 0
BBX 12 12 0 0
BITMAP
0380
7C00
0400
7FC0
2480
FFE0
2480
7FC0
1500
2480
C460
0400
ENDCHAR
STARTCHAR bm_0x4E58
ENCODING 20056
SWIDTH 461 0
DWIDTH 12 0
BBX 12 12 0 0
BITMAP
03C0
7C00
0400
FFE0
1500
F540
1580
3520
CEE0
1500
2480
C460
ENDCHAR
STARTCHAR bm_0x4E59
ENCODING 20057
SWIDTH 461 0
DWIDTH 12 0
BBX 10 12 0 0
BITMAP
0000
FF80
0100
0200
0400
0800
1000
2000
4040
4040
4040
3FC0
ENDCHAR
STARTCHAR bm_0x4E5A
ENCODING 20058
SWIDTH 461 0
DWIDTH 12 0
BBX 10 12 0 0
BITMAP
8000
8000
8000
8000
8000
8000
8000
8040
8040
8040
7FC0
0000
ENDCHAR
STARTCHAR bm_0x4E5B
ENCODING 20059
SWIDTH 461 0
DWIDTH 12 0
BBX 12 12 0 0
BITMAP
0000
0000
FFE0
0020
0040
0000
0000
0000
0000
0000
0000
0000
ENDCHAR
STARTCHAR bm_0x4E5C
ENCODING 20060
SWIDTH 461 0
DWIDTH 12 0
BBX 12 12 0 0
BITMAP
0000
2000
2080
2380
2C80
3080
E080
2080
2700
2020
2020
1FE0
ENDCHAR
STARTCHAR bm_0x4E5D
ENCODING 20061
SWIDTH 461 0
DWIDTH 12 0
BBX 12 12 0 0
BITMAP
1000
1000
1000
FF00
1100
1100
1100
1100
2100
2120
4120
80E0
ENDCHAR
STARTCHAR bm_0x4E5E
ENCODING 20062
SWIDTH 461 0
DWIDTH 12 0
BBX 10 12 0 0
BITMAP
2000
2000
3FC0
4000
4000
BF80
0300
0C00
1000
2040
2040
1FC0
ENDCHAR
STARTCHAR bm_0x4E5F
ENCODING 20063
SWIDTH 461 0
DWIDTH 12 0
BBX 12 12 0 0
BITMAP
0400
2400
24C0
2740
3C40
E440
2440
24C0
2400
2020
2020
1FE0
ENDCHAR
STARTCHAR bm_0x4E60
ENCODING 20064
SWIDTH 461 0
DWIDTH 12 0
BBX 10 12 0 0
BITMAP
0000
7FC0
0040
2040
1040
0840
0140
0640
1840
E040
0040
0380
ENDCHAR
STARTCHAR bm_0x4E61
ENCODING 20065
SWIDTH 461 0
DWIDTH 12 0
BBX 12 12 0 0
BITMAP
0800
1000
2080
4100
7E00
0C20
3020
7FC0
0080
0300
0C00
F000
ENDCHAR
STARTCHAR bm_0x4E62
ENCODING 20066
SWIDTH 461 0
DWIDTH 12 0
BBX 12 12 0 0
BITMAP
2200
2200
2200
AA00
AA00
AA00
AA00
AA00
AA00
BA20
CA20
01E0
ENDCHAR
STARTCHAR bm_0x4E63
ENCODING 20067
SWIDTH 461 0
DWIDTH 12 0
BBX 12 12 0 0
BITMAP
2100
2100
4100
4900
8900
F100
1100
2100
4900
FD20
0520
00E0
ENDCHAR
STARTCHAR bm_0x4E64
ENCODING 20068
SWIDTH 461 0
DWIDTH 12 0
BBX 12 12 0 0
BITMAP
0000
FFE0
0A00
0900
0880
0800
7FC0
0180
0E00
3020
4020
3FE0
ENDCHAR
STARTCHAR bm_0x4E65
ENCODING 20069
SWIDTH 461 0
DWIDTH 12 0
BBX 12 12 0 0
BITMAP
03E0
FC00
0000
2080
1100
0000
7FC0
0180
0E00
3020
4020
3FE0
ENDCHAR
STARTCHAR bm_0x4E66
ENCODING 20070
SWIDTH 461 0
DWIDTH 12 0
BBX 12 12 0 0
BITMAP
0880
0840
7F80
0880
0880
0880
FFE0
0820
0820
0820
08C0
0800
ENDCHAR
STARTCHAR bm_0x4E67
ENCODING 20071
SWIDTH 461 0
DWIDTH 12 0
BBX 12 12 0 0
BITMAP
1100
0900
4100
2100
01E0
FF00
0100
7F80
0300
3C20
4020
3FE0
ENDCHAR
STARTCHAR bm_0x4E68
ENCODING 20072
SWIDTH 461 0
DWIDTH 12 0
BBX 12 12 0 0
BITMAP
2100
2100
4100
8900
FD00
0500
F900
8900
8900
8920
F920
88E0
ENDCHAR
STARTCHAR bm_0x4E69
ENCODING 20073
SWIDTH 461 0
DWIDTH 12 0
BBX 12 12 0 0
BITMAP
2100
2100
2100
3D00
2100
2100
FD00
8500
8500
8520
FD20
84E0
ENDCHAR
STARTCHAR bm_0x4E6A
ENCODING 20074
SWIDTH 461 0
DWIDTH 12 0
BBX 12 12 0 0
BITMAP
07C0
F540
1540
1540
27C0
2540
4540
4540
87C0
8000
8020
7FE0
ENDCHAR
STARTCHAR bm_0x4E6B
ENCODING 20075
SWIDTH 461 0
DWIDTH 12 0
BBX 12 12 0 0
BITMAP
2000
FDE0
2520
2520
4520
99E0
0000
7F80
0300
3C20
4020
3FE0
ENDCHAR
STARTCHAR bm_0x4E6C
ENCODING 20076
SWIDTH 461 0
DWIDTH 12 0
BBX 12 12 0 0
BITMAP
7FE0
4000
7FC0
4040
7FC0
4000
7FE0
0000
FF80
1E00
6020
3FE0
ENDCHAR
STARTCHAR bm_0x4E6D
ENCODING 20077
SWIDTH 461 0
DWIDTH 12 0
BBX 12 12 0 0
BITMAP
FFE0
1000
3FC0
6040
A040
3FC0
0000
7F80
0300
3C20
4020
3FE0
ENDCHAR
STARTCHAR bm_0x4E6E
ENCODING 20078
SWIDTH 461 0
DWIDTH 12 0
BBX 12 12 0 0
BITMAP
3000
C3E0
8A20
BA20
CA60
1200
2200
7F80
0300
3C20
4020
3FE0
ENDCHAR
STARTCHAR bm_0x4E6F
ENCODING 20079
SWIDTH 461 0
DWIDTH 12 0
BBX 12 12 0 0
BITMAP
03C0
7C00
2480
1500
FFE0
0400
0C00
7F80
0300
3C20
4020
3FE0
ENDCHAR
STARTCHAR bm_0x4E70
ENCODING 20080
SWIDTH 461 0
DWIDTH 12 0
BBX 12 12 0 0
BITMAP
0000
7FC0
0040
1200
0A00
2200
1200
FFE0
0400
0980
3040
C020
ENDCHAR
STARTCHAR bm_0x4E71
ENCODING 20081
SWIDTH 461 0
DWIDTH 12 0
BBX 12 12 0 0
BITMAP
0D00
7100
1100
1100
FF00
1100
1100
7D00
4500
4520
7D20
44E0
ENDCHAR
STARTCHAR bm_0x4E72
ENCODING 20082
SWIDTH 461 0
DWIDTH 12 0
BBX 12 12 0 0
BITMAP
0800
8FE0
5220
0240
0500
4880
9060
7F80
0300
3C20
4020
3FE0
ENDCHAR
STARTCHAR bm_0x4E73
ENCODING 20083
SWIDTH 461 0
DWIDTH 12 0
BBX 12 12 0 0
BITMAP
0E80
F080
2280
9480
4080
FC80
0880
1080
1E80
F0A0
10A0
3060
ENDCHAR
STARTCHAR bm_0x4E74
ENCODING 20084
SWIDTH 461 0
DWIDTH 12 0
BBX 12 12 0 0
BITMAP
20C0
F700
2400
F7E0
2480
6880
0000
7F80
0300
3C20
4020
3FE0
ENDCHAR
STARTCHAR bm_0x4E75
ENCODING 20085
SWIDTH 461 0
DWIDTH 12 0
BBX 12 12 0 0
BITMAP
2100
1100
7D00
0100
4500
2900
FF00
1100
7D00
1120
1120
10E0
ENDCHAR
STARTCHAR bm_0x4E76
ENCODING 20086
SWIDTH 461 0
DWIDTH 12 0
BBX 12 12 0 0
BITMAP
0440
FFE0
0400
7FC0
4440
7FC0
4440
4440
FF80
1E00
6020
3FE0
ENDCHAR
STARTCHAR bm_0x4E77
ENCODING 20087
SWIDTH 461 0
DWIDTH 12 0
BBX 12 12 0 0
BITMAP
2100
9540
4520
0900
41C0
9E00
0000
7F80
0300
3C20
4020
3FE0
ENDCHAR
STARTCHAR bm_0x4E78
ENCODING 20088
SWIDTH 461 0
DWIDTH 12 0
BBX 12 12 0 0
BITMAP
23C0
2240
AB40
BA40
EFE0
AA40
AB40
BA40
A3E0
8040
80A0
7FE0
ENDCHAR
STARTCHAR bm_0x4E79
ENCODING 20089
SWIDTH 461 0
DWIDTH 12 0
BBX 12 12 0 0
BITMAP
1100
7D00
1100
7D00
4500
7D00
4500
7D00
1100
FF20
1120
10E0
ENDCHAR
STARTCHAR bm_0x4E7A
ENCODING 20090
SWIDTH 461 0
DWIDTH 12 0
BBX 12 12 0 0
BITMAP
0860
7380
4200
7BE0
4A40
7A40
8440
7F80
0300
3C20
4020
3FE0
ENDCHAR
STARTCHAR bm_0x4E7B
ENCODING 20091
SWIDTH 461 0
DWIDTH 12 0
BBX 12 12 0 0
BITMAP
2080
F940
4220
7880
4840
4900
9880
7F80
0300
3C20
4020
3FE0
ENDCHAR
STARTCHAR bm_0x4E7C
ENCODING 20092
SWIDTH 461 0
DWIDTH 12 0
BBX 12 12 0 0
BITMAP
4200
2FE0
8100
47C0
2100
CFE0
0000
7F80
0300
3C20
4020
3FE0
ENDCHAR
STARTCHAR bm_0x4E7D
ENCODING 20093
SWIDTH 461 0
DWIDTH 12 0
BBX 12 12 0 0
BITMAP
0840
3E80
0900
FFE0
1080
3F80
D080
7F80
0300
3C20
4020
3FE0
ENDCHAR
STARTCHAR bm_0x4E7E
ENCODING 20094
SWIDTH 461 0
DWIDTH 12 0
BBX 12 12 0 0
BITMAP
2100
F900
23E0
FC00
8800
FBC0
8840
F880
2100
FA20
2220
21E0
ENDCHAR
STARTCHAR bm_0x4E7F
ENCODING 20095
SWIDTH 461 0
DWIDTH 12 0
BBX 12 12 0 0
BITMAP
0E80
F080
2280
9480
5080
2480
7880
1280
FE80
10A0
54A0
B260
ENDCHAR
STARTCHAR bm_0x4E80
ENCODING 20096
SWIDTH 461 0
DWIDTH 12 0
BBX 12 12 0 0
BITMAP
3E00
4200
FF80
4880
7F80
4880
FFC0
8840
FFC0
8840
F820
07E0
ENDCHAR
STARTCHAR bm_0x4E81
ENCODING 20097
SWIDTH 461 0
DWIDTH 12 0
BBX 12 12 0 0
BITMAP
1080
FE80
10E0
7D00
5400
7DE0
0020
7C40
1080
FF20
1120
10E0
ENDCHAR
STARTCHAR bm_0x4E82
ENCODING 20098
SWIDTH 461 0
DWIDTH 12 0
BBX 12 12 0 0
BITMAP
0D00
F100
5500
FD00
2900
1100
FD00
A500
F500
D520
A520
D4E0
ENDCHAR
STARTCHAR bm_0x4E83
ENCODING 20099
SWIDTH 461 0
DWIDTH 12 0
BBX 12 12 0 0
BITMAP
9280
5480
FE80
5480
9280
4480
6E80
A480
B480
5EA0
44A0
8460
ENDCHAR
STARTCHAR bm_0x4E84
ENCODING 20100
SWIDTH 461 0
DWIDTH 12 0
BBX 12 12 0 0
BITMAP
1080
FE80
1080
7C80
0080
FE80
8280
7C80
4480
7CA0
28A0
FE60
ENDCHAR
STARTCHAR bm_0x4E85
ENCODING 20101
SWIDTH 461 0
DWIDTH 5 0
BBX 3 12 0 0
BITMAP
20
20
20
20
20
20
20
20
20
20
20
E0
ENDCHAR
STARTCHAR bm_0x4E86
ENCODING 20102
SWIDTH 461 0
DWIDTH 11 0
BBX 9 12 0 0
BITMAP
0000
FF80
0080
0100
0200
0400
0400
0400
0400
0400
0400
1C00
ENDCHAR
STARTCHAR bm_0x4E87
ENCODING 20103
SWIDTH 461 0
DWIDTH 12 0
BBX 12 12 0 0
BITMAP
2000
2000
3FE0
4420
8420
0440
0400
0400
0400
0400
0400
1C00
ENDCHAR
STARTCHAR bm_0x4E88
ENCODING 20104
SWIDTH 461 0
DWIDTH 12 0
BBX 12 12 0 0
BITMAP
7FC0
0080
1900
0600
0100
FFE0
0420
0440
0480
0400
0400
1C00
ENDCHAR
STARTCHAR bm_0x4E89
ENCODING 20105
SWIDTH 461 0
DWIDTH 12 0
BBX 12 12 0 0
BITMAP
1000
3F00
4100
8200
7FC0
0440
FFE0
0440
7FC0
0440
0400
1C00
ENDCHAR
STARTCHAR bm_0x4E8A
ENCODING 20106
SWIDTH 461 0
DWIDTH 12 0
BBX 12 12 0 0
BITMAP
0400
FFE0
2480
1500
7FC0
0440
FFE0
0440
7FC0
0400
0400
1C00
ENDCHAR
STARTCHAR bm_0x4E8B
ENCODING 20107
SWIDTH 461 0
DWIDTH 12 0
BBX 12 12 0 0
BITMAP
0400
FFE0
2480
3F80
0400
7FC0
0440
FFE0
0440
7FC0
0400
0C00
ENDCHAR
STARTCHAR bm_0x4E8C
ENCODING 20108
SWIDTH 461 0
DWIDTH 12 0
BBX 12 12 0 0
BITMAP
0000
0000
7FC0
0000
0000
0000
0000
0000
0000
0000
FFE0
0000
ENDCHAR
STARTCHAR bm_0x4E8D
ENCODING 20109
SWIDTH 461 0
DWIDTH 12 0
BBX 12 12 0 0
BITMAP
0000
7FC0
0000
0000
0000
FFE0
0400
0400
0400
0400
0400
1C00
ENDCHAR
STARTCHAR bm_0x4E8E
ENCODING 20110
SWIDTH 461 0
DWIDTH 12 0
BBX 12 12 0 0
BITMAP
7FC0
0400
0400
0400
0400
FFE0
0400
0400
0400
0400
0400
1C00
ENDCHAR
STARTCHAR bm_0x4E8F
ENCODING 20111
SWIDTH 461 0
DWIDTH 12 0
BBX 12 12 0 0
BITMAP
0000
7FC0
0000
0000
FFE0
1000
2000
3FC0
0040
0040
0040
0180
ENDCHAR
STARTCHAR bm_0x4E90
ENCODING 20112
SWIDTH 461 0
DWIDTH 12 0
BBX 12 12 0 0
BITMAP
0000
7FC0
0800
0800
FFE0
1000
2000
3FC0
0040
0040
0040
0180
ENDCHAR
STARTCHAR bm_0x4E91
ENCODING 20113
SWIDTH 461 0
DWIDTH 12 0
BBX 12 12 0 0
BITMAP
0000
3F80
0000
0000
0000
FFE0
0400
0800
1100
2080
7FC0
0040
ENDCHAR
STARTCHAR bm_0x4E92
ENCODING 20114
SWIDTH 461 0
DWIDTH 12 0
BBX 12 12 0 0
BITMAP
0000
FFE0
2000
2000
3F80
2080
4080
4080
7F00
0100
0100
FFE0
ENDCHAR
STARTCHAR bm_0x4E93
ENCODING 20115
SWIDTH 461 0
DWIDTH 12 0
BBX 12 12 0 0
BITMAP
7FC0
0000
0000
0000
FFE0
2080
2080
2080
2080
4080
4080
8080
ENDCHAR
STARTCHAR bm_0x4E94
ENCODING 20116
SWIDTH 461 0
DWIDTH 12 0
BBX 12 12 0 0
BITMAP
0000
FFC0
0800
0800
0800
7F80
1080
1080
1080
2080
2080
FFE0
ENDCHAR
STARTCHAR bm_0x4E95
ENCODING 20117
SWIDTH 461 0
DWIDTH 12 0
BBX 12 12 0 0
BITMAP
1100
1100
1100
7FC0
1100
1100
1100
FFE0
1100
1100
2100
4100
ENDCHAR
STARTCHAR bm_0x4E96
ENCODING 20118
SWIDTH 461 0
DWIDTH 12 0
BBX 12 12 0 0
BITMAP
0000
3F80
0000
0000
FFE0
0000
0000
0000
3F80
0000
0000
FFE0
ENDCHAR
STARTCHAR bm_0x4E97
ENCODING 20119
SWIDTH 461 0
DWIDTH 12 0
BBX 12 12 0 0
BITMAP
0400
4440
4440
4440
7FC0
0000
0000
7FC0
0000
0000
0000
FFE0
ENDCHAR
STARTCHAR bm_0x4E98
ENCODING 20120
SWIDTH 461 0
DWIDTH 12 0
BBX 12 12 0 0
BITMAP
0000
FFE0
0000
7FC0
4040
4040
7FC0
4040
4040
7FC0
0000
FFE0
ENDCHAR
STARTCHAR bm_0x4E99
ENCODING 20121
SWIDTH 461 0
DWIDTH 12 0
BBX 12 12 0 0
BITMAP
0000
FFE0
2000
2000
3F80
2080
4880
4480
5100
0900
0100
FFE0
ENDCHAR
STARTCHAR bm_0x4E9A
ENCODING 20122
SWIDTH 461 0
DWIDTH 12 0
BBX 12 12 0 0
BITMAP
0000
7FC0
1100
1100
1100
9120
5140
3180
1100
1100
1100
FFE0
ENDCHAR
STARTCHAR bm_0x4E9B
ENCODING 20123
SWIDTH 461 0
DWIDTH 12 0
BBX 12 12 0 0
BITMAP
1100
5120
5D40
5180
5120
5D20
E0E0
0000
3F80
0000
0000
FFE0
ENDCHAR
STARTCHAR bm_0x4E9C
ENCODING 20124
SWIDTH 461 0
DWIDTH 12 0
BBX 10 12 0 0
BITMAP
0000
FFC0
1200
1200
FFC0
9240
9240
9240
FFC0
1200
1200
FFC0
ENDCHAR
STARTCHAR bm_0x4E9D
ENCODING 20125
SWIDTH 461 0
DWIDTH 12 0
BBX 12 12 0 0
BITMAP
1000
2080
7FC0
2080
4100
9240
FBE0
0820
0000
7FC0
0000
FFE0
ENDCHAR
STARTCHAR bm_0x4E9E
ENCODING 20126
SWIDTH 461 0
DWIDTH 12 0
BBX 12 12 0 0
BITMAP
0000
FFE0
1100
1100
71C0
4040
4040
4040
71C0
1100
1100
FFE0
ENDCHAR
STARTCHAR bm_0x4E9F
ENCODING 20127
SWIDTH 461 0
DWIDTH 12 0
BBX 12 12 0 0
BITMAP
7F80
0100
0200
F5E0
9420
9540
9480
F540
0620
0C00
0000
FFE0
ENDCHAR
STARTCHAR bm_0x4EA0
ENCODING 20128
SWIDTH 461 0
DWIDTH 12 0
BBX 12 12 0 0
BITMAP
0800
0400
FFE0
0000
0000
0000
0000
0000
0000
0000
0000
0000
ENDCHAR
STARTCHAR bm_0x4EA1
ENCODING 20129
SWIDTH 461 0
DWIDTH 12 0
BBX 12 12 0 0
BITMAP
0800
0400
0000
FFE0
2000
2000
2000
2000
2000
2000
2000
3FE0
ENDCHAR
STARTCHAR bm_0x4EA2
ENCODING 20130
SWIDTH 461 0
DWIDTH 12 0
BBX 12 12 0 0
BITMAP
0800
0400
FFE0
0000
0000
3F00
2100
2100
2100
2120
4120
80E0
ENDCHAR
STARTCHAR bm_0x4EA3
ENCODING 20131
SWIDTH 461 0
DWIDTH 12 0
BBX 12 12 0 0
BITMAP
0800
0400
0000
FFE0
1080
1080
1080
1080
2080
2080
4080
8080
ENDCHAR
STARTCHAR bm_0x4EA4
ENCODING 20132
SWIDTH 461 0
DWIDTH 12 0
BBX 12 12 0 0
BITMAP
0800
0400
FFE0
0000
1100
2080
5140
0A00
0400
0A00
3180
C060
ENDCHAR
STARTCHAR bm_0x4EA5
ENCODING 20133
SWIDTH 461 0
DWIDTH 12 0
BBX 12 12 0 0
BITMAP
0800
0400
FFE0
1000
2100
7E00
0480
1900
6200
0500
1880
E040
ENDCHAR
STARTCHAR bm_0x4EA6
ENCODING 20134
SWIDTH 461 0
DWIDTH 12 0
BBX 12 12 0 0
BITMAP
0800
0400
FFE0
1100
1100
1100
5140
5120
9120
1100
2100
4300
ENDCHAR
STARTCHAR bm_0x4EA7
ENCODING 20135
SWIDTH 461 0
DWIDTH 12 0
BBX 12 12 0 0
BITMAP
0800
0400
7FE0
0000
1080
0900
7FE0
4000
4000
4000
4000
8000
ENDCHAR
STARTCHAR bm_0x4EA8
ENCODING 20136
SWIDTH 461 0
DWIDTH 12 0
BBX 12 12 0 0
BITMAP
0400
FFE0
0000
3F80
2080
3F80
0000
7FC0
0180
0600
0400
1C00
ENDCHAR
STARTCHAR bm_0x4EA9
ENCODING 20137
SWIDTH 461 0
DWIDTH 12 0
BBX 12 12 0 0
BITMAP
0800
0400
FFE0
0000
7FC0
4440
4440
7FC0
4440
4440
7FC0
4040
ENDCHAR
STARTCHAR bm_0x4EAA
ENCODING 20138
SWIDTH 461 0
DWIDTH 12 0
BBX 12 12 0 0
BITMAP
0400
FFE0
1100
5140
9120
2300
0000
7F80
0080
0080
0040
0020
ENDCHAR
STARTCHAR bm_0x4EAB
ENCODING 20139
SWIDTH 461 0
DWIDTH 12 0
BBX 12 12 0 0
BITMAP
0400
FFE0
0000
7FC0
4040
7FC0
0000
7F80
0100
FFE0
0200
0E00
ENDCHAR
STARTCHAR bm_0x4EAC
ENCODING 20140
SWIDTH 461 0
DWIDTH 12 0
BBX 12 12 0 0
BITMAP
0800
0400
FFE0
0000
7FC0
4040
4040
7FC0
0400
2480
4440
8C20
ENDCHAR
STARTCHAR bm_0x4EAD
ENCODING 20141
SWIDTH 461 0
DWIDTH 12 0
BBX 12 12 0 0
BITMAP
0400
FFE0
0000
3F80
2080
3F80
0000
FFE0
8020
7FC0
0400
1C00
ENDCHAR
STARTCHAR bm_0x4EAE
ENCODING 20142
SWIDTH 461 0
DWIDTH 12 0
BBX 12 12 0 0
BITMAP
0400
FFE0
0000
3F80
2080
3F80
0000
FFE0
8020
3F00
2120
C0E0
ENDCHAR
STARTCHAR bm_0x4EAF
ENCODING 20143
SWIDTH 461 0
DWIDTH 12 0
BBX 12 12 0 0
BITMAP
0400
FFE0
0000
3F80
2080
3F80
0000
7FC0
4040
7FC0
4040
7FC0
ENDCHAR
STARTCHAR bm_0x4EB0
ENCODING 20144
SWIDTH 461 0
DWIDTH 12 0
BBX 12 12 0 0
BITMAP
0400
FFE0
0000
7FC0
4040
7FC0
4040
7FC0
0400
2480
4440
8C20
ENDCHAR
STARTCHAR bm_0x4EB1
ENCODING 20145
SWIDTH 461 0
DWIDTH 12 0
BBX 12 12 0 0
BITMAP
0400
FFE0
1000
17C0
2440
6440
A7C0
2440
2440
27C0
2000
2FE0
ENDCHAR
STARTCHAR bm_0x4EB2
ENCODING 20146
SWIDTH 461 0
DWIDTH 12 0
BBX 12 12 0 0
BITMAP
0400
7FC0
2080
1100
FFE0
0400
0400
7FC0
0400
2480
4440
8C20
ENDCHAR
STARTCHAR bm_0x4EB3
ENCODING 20147
SWIDTH 461 0
DWIDTH 12 0
BBX 12 12 0 0
BITMAP
0400
FFE0
0000
3F80
2080
FFE0
8020
0700
7800
0F80
F820
07E0
ENDCHAR
STARTCHAR bm_0x4EB4
ENCODING 20148
SWIDTH 461 0
DWIDTH 12 0
BBX 12 12 0 0
BITMAP
0400
FFE0
2080
FFE0
8420
3F80
0400
FFE0
1000
FF00
2120
C0E0
ENDCHAR
STARTCHAR bm_0x4EB5
ENCODING 20149
SWIDTH 461 0
DWIDTH 12 0
BBX 12 12 0 0
BITMAP
0400
FFE0
2200
F780
2280
F6A0
2560
6C20
0A00
3140
D480
1860
ENDCHAR
STARTCHAR bm_0x4EB6
ENCODING 20150
SWIDTH 461 0
DWIDTH 12 0
BBX 12 12 0 0
BITMAP
0400
FFE0
0000
7FC0
5140
5F40
4040
7FC0
2080
3F80
2080
FFE0
ENDCHAR
STARTCHAR bm_0x4EB7
ENCODING 20151
SWIDTH 461 0
DWIDTH 12 0
BBX 12 12 0 0
BITMAP
0200
7FE0
1080
7FE0
4900
5FC0
4940
7FE0
4940
5FC0
5980
A940
ENDCHAR
STARTCHAR bm_0x4EB8
ENCODING 20152
SWIDTH 461 0
DWIDTH 12 0
BBX 12 12 0 0
BITMAP
1220
FD40
03E0
7AA0
4BE0
7AA0
02A0
7BE0
0880
FFE0
1080
3080
ENDCHAR
STARTCHAR bm_0x4EB9
ENCODING 20153
SWIDTH 461 0
DWIDTH 12 0
BBX 12 12 0 0
BITMAP
0400
FFE0
0000
2EC0
4A40
6EC0
4A40
FFE0
A0A0
3F80
2080
FFE0
ENDCHAR
STARTCHAR bm_0x4EBA
ENCODING 20154
SWIDTH 461 0
DWIDTH 12 0
BBX 12 12 0 0
BITMAP
0400
0400
0400
0400
0400
0A00
0A00
1100
1100
2080
4040
8020
ENDCHAR
STARTCHAR bm_0x4EBB
ENCODING 20155
SWIDTH 461 0
DWIDTH 6 0
BBX 4 12 0 0
BITMAP
10
10
20
20
60
A0
20
20
20
20
20
20
ENDCHAR
STARTCHAR bm_0x4EBC
ENCODING 20156
SWIDTH 461 0
DWIDTH 12 0
BBX 12 12 0 0
BITMAP
0400
0400
0400
0400
0A00
0A00
1100
2080
C060
0000
0000
FFE0
ENDCHAR
STARTCHAR bm_0x4EBD
ENCODING 20157
SWIDTH 461 0
DWIDTH 12 0
BBX 12 12 0 0
BITMAP
0400
0400
0400
0A00
0A00
1100
2080
C060
0800
0400
0200
0200
ENDCHAR
STARTCHAR bm_0x4EBE
ENCODING 20158
SWIDTH 461 0
DWIDTH 12 0
BBX 12 12 0 0
BITMAP
0400
0400
0400
8400
8A00
8A00
9100
9100
A080
C040
8000
FFE0
ENDCHAR
STARTCHAR bm_0x4EBF
ENCODING 20159
SWIDTH 461 0
DWIDTH 12 0
BBX 12 12 0 0
BITMAP
1000
1FC0
2040
2080
6100
A200
2400
2400
2820
2820
2820
27E0
ENDCHAR
STARTCHAR bm_0x4EC0
ENCODING 20160
SWIDTH 461 0
DWIDTH 12 0
BBX 12 12 0 0
BITMAP
1100
1100
2100
2100
6100
AFE0
2100
2100
2100
2100
2100
2100
ENDCHAR
STARTCHAR bm_0x4EC1
ENCODING 20161
SWIDTH 461 0
DWIDTH 12 0
BBX 12 12 0 0
BITMAP
1000
1000
2000
2FC0
6000
A000
2000
2000
2000
2000
3FE0
2000
ENDCHAR
STARTCHAR bm_0x4EC2
ENCODING 20162
SWIDTH 461 0
DWIDTH 12 0
BBX 12 12 0 0
BITMAP
1200
1200
2200
2FE0
6220
A220
2220
2220
2420
2420
2820
31C0
ENDCHAR
STARTCHAR bm_0x4EC3
ENCODING 20163
SWIDTH 461 0
DWIDTH 12 0
BBX 12 12 0 0
BITMAP
1000
17E0
2080
2080
6080
A080
2080
2080
2080
2080
2080
2380
ENDCHAR
STARTCHAR bm_0x4EC4
ENCODING 20164
SWIDTH 461 0
DWIDTH 12 0
BBX 12 12 0 0
BITMAP
0000
7FE0
4200
4200
4200
4200
4500
4500
4880
4880
5040
A020
ENDCHAR
STARTCHAR bm_0x4EC5
ENCODING 20165
SWIDTH 461 0
DWIDTH 12 0
BBX 12 12 0 0
BITMAP
1000
1FE0
2420
2420
6420
A440
2240
2280
2100
2280
2440
2820
ENDCHAR
STARTCHAR bm_0x4EC6
ENCODING 20166
SWIDTH 461 0
DWIDTH 12 0
BBX 12 12 0 0
BITMAP
1100
1100
2100
2100
6180
A140
2120
2120
2100
2100
2100
2100
ENDCHAR
STARTCHAR bm_0x4EC7
ENCODING 20167
SWIDTH 461 0
DWIDTH 12 0
BBX 12 12 0 0
BITMAP
2400
2400
4400
5F80
C480
4480
4480
4480
4480
48A0
48A0
5060
ENDCHAR
STARTCHAR bm_0x4EC8
ENCODING 20168
SWIDTH 461 0
DWIDTH 12 0
BBX 12 12 0 0
BITMAP
1080
1480
2480
2480
6480
A480
2480
2480
2480
2840
2840
3020
ENDCHAR
STARTCHAR bm_0x4EC9
ENCODING 20169
SWIDTH 461 0
DWIDTH 12 0
BBX 12 12 0 0
BITMAP
1000
1780
2480
2480
6480
A480
2480
2480
2480
24A0
28A0
3060
ENDCHAR
STARTCHAR bm_0x4ECA
ENCODING 20170
SWIDTH 461 0
DWIDTH 12 0
BBX 12 12 0 0
BITMAP
0400
0A00
1100
2080
C860
0400
0000
7F80
0080
0100
0200
0400
ENDCHAR
STARTCHAR bm_0x4ECB
ENCODING 20171
SWIDTH 461 0
DWIDTH 12 0
BBX 12 12 0 0
BITMAP
0400
0400
0A00
1100
2080
C060
1100
1100
1100
2100
2100
4100
ENDCHAR
STARTCHAR bm_0x4ECC
ENCODING 20172
SWIDTH 461 0
DWIDTH 12 0
BBX 12 12 0 0
BITMAP
0400
0400
0A00
0900
1080
2040
C440
0400
0A00
1100
2080
C060
ENDCHAR
STARTCHAR bm_0x4ECD
ENCODING 20173
SWIDTH 461 0
DWIDTH 12 0
BBX 12 12 0 0
BITMAP
2000
2FC0
4440
4440
C480
4480
44E0
4420
4420
4820
4820
50C0
ENDCHAR
STARTCHAR bm_0x4ECE
ENCODING 20174
SWIDTH 461 0
DWIDTH 12 0
BBX 12 12 0 0
BITMAP
1100
1100
1100
1100
1100
2900
2A80
2A80
2A80
4440
4440
8820
ENDCHAR
STARTCHAR bm_0x4ECF
ENCODING 20175
SWIDTH 461 0
DWIDTH 12 0
BBX 12 12 0 0
BITMAP
1100
1100
2100
2100
6200
A200
2200
2400
2440
2820
2FE0
2020
ENDCHAR
STARTCHAR bm_0x4ED0
ENCODING 20176
SWIDTH 461 0
DWIDTH 12 0
BBX 12 12 0 0
BITMAP
0400
0400
0A00
1100
2080
C460
0400
0400
FFE0
0400
0400
0400
ENDCHAR
STARTCHAR bm_0x4ED1
ENCODING 20177
SWIDTH 461 0
DWIDTH 12 0
BBX 12 12 0 0
BITMAP
0400
0A00
1100
2080
C060
2000
2180
2600
3800
2040
2040
1FC0
ENDCHAR
STARTCHAR bm_0x4ED2
ENCODING 20178
SWIDTH 461 0
DWIDTH 12 0
BBX 12 12 0 0
BITMAP
0400
0400
0A00
1100
2080
C060
0C00
0300
0080
1800
0600
0100
ENDCHAR
STARTCHAR bm_0x4ED3
ENCODING 20179
SWIDTH 461 0
DWIDTH 12 0
BBX 12 12 0 0
BITMAP
0400
0A00
1100
2080
C060
3F00
2100
2100
2100
2640
2040
1FC0
ENDCHAR
STARTCHAR bm_0x4ED4
ENCODING 20180
SWIDTH 461 0
DWIDTH 12 0
BBX 12 12 0 0
BITMAP
1000
17C0
2040
2080
6100
A100
2FE0
2100
2100
2100
2100
2300
ENDCHAR
STARTCHAR bm_0x4ED5
ENCODING 20181
SWIDTH 461 0
DWIDTH 12 0
BBX 12 12 0 0
BITMAP
1100
1100
2100
2100
6FE0
A100
2100
2100
2100
2100
27C0
2000
ENDCHAR
STARTCHAR bm_0x4ED6
ENCODING 20182
SWIDTH 461 0
DWIDTH 12 0
BBX 12 12 0 0
BITMAP
1100
1100
2560
25A0
6720
AD20
2520
2560
2500
2420
2420
23E0
ENDCHAR
STARTCHAR bm_0x4ED7
ENCODING 20183
SWIDTH 461 0
DWIDTH 12 0
BBX 12 12 0 0
BITMAP
1080
1080
2080
2FE0
6080
A880
2480
2500
2200
2500
2880
3060
ENDCHAR
STARTCHAR bm_0x4ED8
ENCODING 20184
SWIDTH 461 0
DWIDTH 12 0
BBX 12 12 0 0
BITMAP
1040
1040
2040
2FE0
6040
A040
2440
2240
2240
2040
2040
21C0
ENDCHAR
STARTCHAR bm_0x4ED9
ENCODING 20185
SWIDTH 461 0
DWIDTH 12 0
BBX 12 12 0 0
BITMAP
1100
1100
2100
2920
6920
A920
2920
2920
2920
2920
2FE0
2020
ENDCHAR
STARTCHAR bm_0x4EDA
ENCODING 20186
SWIDTH 461 0
DWIDTH 12 0
BBX 12 12 0 0
BITMAP
0400
0A00
1100
2080
C460
0400
4440
4440
4440
4440
7FC0
0040
ENDCHAR
STARTCHAR bm_0x4EDB
ENCODING 20187
SWIDTH 461 0
DWIDTH 12 0
BBX 12 12 0 0
BITMAP
10C0
1700
2100
2100
6100
A1E0
2F00
2100
2100
2120
2120
20E0
ENDCHAR
STARTCHAR bm_0x4EDC
ENCODING 20188
SWIDTH 461 0
DWIDTH 12 0
BBX 12 12 0 0
BITMAP
1000
17C0
2100
2100
6100
A100
2100
2100
2100
2100
2100
2FE0
ENDCHAR
STARTCHAR bm_0x4EDD
ENCODING 20189
SWIDTH 461 0
DWIDTH 12 0
BBX 12 12 0 0
BITMAP
0400
0A00
1100
2080
C060
0000
7FC0
0400
0400
0400
0400
FFE0
ENDCHAR
STARTCHAR bm_0x4EDE
ENCODING 20190
SWIDTH 461 0
DWIDTH 12 0
BBX 12 12 0 0
BITMAP
1000
17E0
2120
2120
6520
A520
2520
2920
2220
2220
2420
28C0
ENDCHAR
STARTCHAR bm_0x4EDF
ENCODING 20191
SWIDTH 461 0
DWIDTH 12 0
BBX 12 12 0 0
BITMAP
10C0
1700
2100
2100
6100
AFE0
2100
2100
2100
2100
2100
2100
ENDCHAR
STARTCHAR bm_0x4EE0
ENCODING 20192
SWIDTH 461 0
DWIDTH 12 0
BBX 12 12 0 0
BITMAP
1000
17C0
2100
2100
6100
A100
2FE0
2100
2100
2100
2100
2100
ENDCHAR
STARTCHAR bm_0x4EE1
ENCODING 20193
SWIDTH 461 0
DWIDTH 12 0
BBX 12 12 0 0
BITMAP
1400
1400
27E0
2800
7000
AFC0
2040
2180
2600
2820
2820
27E0
ENDCHAR
STARTCHAR bm_0x4EE2
ENCODING 20194
SWIDTH 461 0
DWIDTH 12 0
BBX 12 12 0 0
BITMAP
1200
1200
23E0
2420
6820
A220
2120
2120
2020
2020
2020
20C0
ENDCHAR
STARTCHAR bm_0x4EE3
ENCODING 20195
SWIDTH 461 0
DWIDTH 12 0
BBX 12 12 0 0
BITMAP
1280
1240
2200
22E0
6F00
A200
2200
2200
2120
20A0
2060
2020
ENDCHAR
STARTCHAR bm_0x4EE4
ENCODING 20196
SWIDTH 461 0
DWIDTH 12 0
BBX 12 12 0 0
BITMAP
0400
0A00
1100
2080
C860
0400
7F80
0080
0100
3200
0C00
0300
ENDCHAR
STARTCHAR bm_0x4EE5
ENCODING 20197
SWIDTH 461 0
DWIDTH 12 0
BBX 10 12 0 0
BITMAP
0100
9100
8900
8900
8100
8100
9100
A200
C200
8500
1880
6040
ENDCHAR
STARTCHAR bm_0x4EE6
ENCODING 20198
SWIDTH 461 0
DWIDTH 12 0
BBX 12 12 0 0
BITMAP
1100
1100
2100
2100
6540
A540
2520
2520
2920
2100
2100
2700
ENDCHAR
STARTCHAR bm_0x4EE7
ENCODING 20199
SWIDTH 461 0
DWIDTH 12 0
BBX 12 12 0 0
BITMAP
0800
0800
0FC0
0800
0800
FFE0
0000
0400
0400
0A00
3180
C060
ENDCHAR
STARTCHAR bm_0x4EE8
ENCODING 20200
SWIDTH 461 0
DWIDTH 12 0
BBX 12 12 0 0
BITMAP
2000
2FC0
4000
4000
C000
4000
4FC0
4000
4000
4000
4000
5FE0
ENDCHAR
STARTCHAR bm_0x4EE9
ENCODING 20201
SWIDTH 461 0
DWIDTH 12 0
BBX 12 12 0 0
BITMAP
1100
1100
2100
2100
61E0
A100
2100
2100
2100
2100
2100
2FE0
ENDCHAR
STARTCHAR bm_0x4EEA
ENCODING 20202
SWIDTH 461 0
DWIDTH 12 0
BBX 12 12 0 0
BITMAP
1200
1100
2120
2820
6820
A440
2440
2280
2100
2280
2440
2820
ENDCHAR
STARTCHAR bm_0x4EEB
ENCODING 20203
SWIDTH 461 0
DWIDTH 12 0
BBX 12 12 0 0
BITMAP
1100
1100
2200
2240
6440
A880
2080
2100
2200
2440
2FE0
2020
ENDCHAR
STARTCHAR bm_0x4EEC
ENCODING 20204
SWIDTH 461 0
DWIDTH 12 0
BBX 12 12 0 0
BITMAP
2800
25E0
4820
4820
C820
4820
4820
4820
4820
4820
4820
4860
ENDCHAR
STARTCHAR bm_0x4EED
ENCODING 20205
SWIDTH 461 0
DWIDTH 12 0
BBX 12 12 0 0
BITMAP
1000
1FC0
2440
2440
7440
AC40
2640
25C0
2860
2840
3040
2180
ENDCHAR
STARTCHAR bm_0x4EEE
ENCODING 20206
SWIDTH 461 0
DWIDTH 12 0
BBX 12 12 0 0
BITMAP
20E0
2F00
4800
4800
CFE0
4A20
4A20
4940
4940
4880
4940
5620
ENDCHAR
STARTCHAR bm_0x4EEF
ENCODING 20207
SWIDTH 461 0
DWIDTH 12 0
BBX 12 12 0 0
BITMAP
1100
1100
2140
2520
6520
A520
2900
2120
2040
2080
2300
2C00
ENDCHAR
STARTCHAR bm_0x4EF0
ENCODING 20208
SWIDTH 461 0
DWIDTH 12 0
BBX 12 12 0 0
BITMAP
1200
1400
29E0
2920
6920
A920
2920
2B20
2D20
2960
2100
2100
ENDCHAR
STARTCHAR bm_0x4EF1
ENCODING 20209
SWIDTH 461 0
DWIDTH 12 0
BBX 12 12 0 0
BITMAP
1200
1200
2500
2880
7460
A200
2000
2FC0
2040
2080
2100
2200
ENDCHAR
STARTCHAR bm_0x4EF2
ENCODING 20210
SWIDTH 461 0
DWIDTH 12 0
BBX 12 12 0 0
BITMAP
1100
1100
2100
2FE0
6920
A920
2920
2FE0
2920
2100
2100
2100
ENDCHAR
STARTCHAR bm_0x4EF3
ENCODING 20211
SWIDTH 461 0
DWIDTH 12 0
BBX 12 12 0 0
BITMAP
2900
2900
4920
4920
CF40
4980
4900
4900
4900
4B20
4D20
48E0
ENDCHAR
STARTCHAR bm_0x4EF4
ENCODING 20212
SWIDTH 461 0
DWIDTH 12 0
BBX 12 12 0 0
BITMAP
1000
17E0
2420
2420
67E0
A420
2420
27E0
2420
2420
2420
28E0
ENDCHAR
STARTCHAR bm_0x4EF5
ENCODING 20213
SWIDTH 461 0
DWIDTH 12 0
BBX 12 12 0 0
BITMAP
1400
1400
27C0
2900
6100
A100
2100
2FE0
2100
2100
2100
2100
ENDCHAR
STARTCHAR bm_0x4EF6
ENCODING 20214
SWIDTH 461 0
DWIDTH 12 0
BBX 12 12 0 0
BITMAP
2100
2900
4900
4FE0
D100
4100
4100
5FE0
4100
4100
4100
4100
ENDCHAR
STARTCHAR bm_0x4EF7
ENCODING 20215
SWIDTH 461 0
DWIDTH 12 0
BBX 12 12 0 0
BITMAP
1100
1100
2280
2440
6820
A440
2440
2440
2440
2440
2440
2840
ENDCHAR
STARTCHAR bm_0x4EF8
ENCODING 20216
SWIDTH 461 0
DWIDTH 12 0
BBX 12 12 0 0
BITMAP
10C0
1700
2100
2100
6100
AFE0
2100
2100
2280
2280
2440
2820
ENDCHAR
STARTCHAR bm_0x4EF9
ENCODING 20217
SWIDTH 461 0
DWIDTH 12 0
BBX 12 12 0 0
BITMAP
1100
1100
2FE0
2100
6100
A7C0
2100
2100
2FE0
2100
2100
2100
ENDCHAR
STARTCHAR bm_0x4EFA
ENCODING 20218
SWIDTH 461 0
DWIDTH 12 0
BBX 12 12 0 0
BITMAP
0400
0A00
1100
2080
C060
3F80
2000
2000
3F80
2000
2000
3FC0
ENDCHAR
STARTCHAR bm_0x4EFB
ENCODING 20219
SWIDTH 461 0
DWIDTH 12 0
BBX 12 12 0 0
BITMAP
1000
10C0
2700
2100
6100
A100
2FE0
2100
2100
2100
2100
27C0
ENDCHAR
STARTCHAR bm_0x4EFC
ENCODING 20220
SWIDTH 461 0
DWIDTH 12 0
BBX 12 12 0 0
BITMAP
1000
1FE0
2100
2100
6100
A100
2FE0
2100
2100
2100
2100
2FE0
ENDCHAR
STARTCHAR bm_0x4EFD
ENCODING 20221
SWIDTH 461 0
DWIDTH 12 0
BBX 12 12 0 0
BITMAP
2480
2480
4840
4840
D020
4FC0
4440
4440
4440
4840
4840
5180
ENDCHAR
STARTCHAR bm_0x4EFE
ENCODING 20222
SWIDTH 461 0
DWIDTH 12 0
BBX 12 12 0 0
BITMAP
1000
1FE0
2200
2200
63C0
A240
2440
2440
2780
2080
2080
2FE0
ENDCHAR
STARTCHAR bm_0x4EFF
ENCODING 20223
SWIDTH 461 0
DWIDTH 12 0
BBX 12 12 0 0
BITMAP
1200
1100
2FE0
2200
6200
A3E0
2220
2220
2220
2420
2420
28C0
ENDCHAR
STARTCHAR bm_0x4F00
ENCODING 20224
SWIDTH 461 0
DWIDTH 12 0
BBX 12 12 0 0
BITMAP
1480
1480
2480
2840
6840
B220
2200
2400
2480
2840
2FC0
2040
ENDCHAR
STARTCHAR bm_0x4F01
ENCODING 20225
SWIDTH 461 0
DWIDTH 12 0
BBX 12 12 0 0
BITMAP
0400
0A00
1100
2080
C460
0400
2400
27C0
2400
2400
2400
FFE0
ENDCHAR
STARTCHAR bm_0x4F02
ENCODING 20226
SWIDTH 461 0
DWIDTH 12 0
BBX 12 12 0 0
BITMAP
1100
1100
2FE0
2100
6100
AFE0
2920
2920
2920
2960
2100
2100
ENDCHAR
STARTCHAR bm_0x4F03
ENCODING 20227
SWIDTH 461 0
DWIDTH 12 0
BBX 12 12 0 0
BITMAP
1000
17C0
2040
2280
6100
AFE0
2120
2100
2100
2100
2100
2700
ENDCHAR
STARTCHAR bm_0x4F04
ENCODING 20228
SWIDTH 461 0
DWIDTH 12 0
BBX 12 12 0 0
BITMAP
1000
1FE0
2120
2120
6FE0
A900
2900
2FE0
2120
2120
2160
2100
ENDCHAR
STARTCHAR bm_0x4F05
ENCODING 20229
SWIDTH 461 0
DWIDTH 12 0
BBX 12 12 0 0
BITMAP
1100
1100
2FE0
2100
6920
A920
2920
2FE0
2100
2120
2120
20E0
ENDCHAR
STARTCHAR bm_0x4F06
ENCODING 20230
SWIDTH 461 0
DWIDTH 12 0
BBX 12 12 0 0
BITMAP
2400
2400
47E0
4AA0
CAA0
52A0
44A0
4520
4920
5220
4420
48C0
ENDCHAR
STARTCHAR bm_0x4F07
ENCODING 20231
SWIDTH 461 0
DWIDTH 12 0
BBX 12 12 0 0
BITMAP
1780
1480
2480
2480
6860
A000
2FC0
2440
2280
2100
2280
2C60
ENDCHAR
STARTCHAR bm_0x4F08
ENCODING 20232
SWIDTH 461 0
DWIDTH 12 0
BBX 12 12 0 0
BITMAP
1100
1080
2080
2000
6240
AA20
2A20
2A20
2A00
3240
2240
21C0
ENDCHAR
STARTCHAR bm_0x4F09
ENCODING 20233
SWIDTH 461 0
DWIDTH 12 0
BBX 12 12 0 0
BITMAP
1200
1100
2FE0
2000
6000
A780
2480
2480
2480
24A0
28A0
3060
ENDCHAR
STARTCHAR bm_0x4F0A
ENCODING 20234
SWIDTH 461 0
DWIDTH 12 0
BBX 12 12 0 0
BITMAP
2000
2FC0
4240
4240
DFE0
4240
4240
4FC0
4240
4200
4400
4800
ENDCHAR
STARTCHAR bm_0x4F0B
ENCODING 20235
SWIDTH 461 0
DWIDTH 12 0
BBX 12 12 0 0
BITMAP
2000
2FC0
4440
4440
C480
44E0
4420
4620
4540
4880
4940
5220
ENDCHAR
STARTCHAR bm_0x4F0C
ENCODING 20236
SWIDTH 461 0
DWIDTH 12 0
BBX 12 12 0 0
BITMAP
2000
2FE0
4800
4BC0
CA40
4A40
4A40
4AC0
4A00
4A20
4A20
51E0
ENDCHAR
STARTCHAR bm_0x4F0D
ENCODING 20237
SWIDTH 461 0
DWIDTH 12 0
BBX 12 12 0 0
BITMAP
2000
2FC0
4200
4200
C200
4FC0
4240
4240
4440
4440
4440
5FE0
ENDCHAR
STARTCHAR bm_0x4F0E
ENCODING 20238
SWIDTH 461 0
DWIDTH 12 0
BBX 12 12 0 0
BITMAP
1100
1100
2FE0
2100
6100
AFC0
2440
2440
2280
2100
2280
2C60
ENDCHAR
STARTCHAR bm_0x4F0F
ENCODING 20239
SWIDTH 461 0
DWIDTH 12 0
BBX 12 12 0 0
BITMAP
1100
1140
2120
2100
6FE0
A100
2280
2280
2280
2440
2440
2820
ENDCHAR
STARTCHAR bm_0x4F10
ENCODING 20240
SWIDTH 461 0
DWIDTH 12 0
BBX 12 12 0 0
BITMAP
1280
1240
2200
23E0
6E00
A240
2240
2280
2120
22A0
2460
2820
ENDCHAR
STARTCHAR bm_0x4F11
ENCODING 20241
SWIDTH 461 0
DWIDTH 12 0
BBX 12 12 0 0
BITMAP
1100
1100
2100
2FE0
6100
A380
2380
2540
2540
2920
2100
2100
ENDCHAR
STARTCHAR bm_0x4F12
ENCODING 20242
SWIDTH 461 0
DWIDTH 12 0
BBX 12 12 0 0
BITMAP
10C0
1700
2400
2400
67E0
A480
2480
2480
2480
2480
2480
2880
ENDCHAR
STARTCHAR bm_0x4F13
ENCODING 20243
SWIDTH 461 0
DWIDTH 12 0
BBX 12 12 0 0
BITMAP
1000
17E0
2080
2080
6100
A140
2320
2520
2920
2100
2100
2100
ENDCHAR
STARTCHAR bm_0x4F14
ENCODING 20244
SWIDTH 461 0
DWIDTH 12 0
BBX 12 12 0 0
BITMAP
2000
2FE0
4820
4000
C780
4480
4480
4480
4480
44A0
48A0
5060
ENDCHAR
STARTCHAR bm_0x4F15
ENCODING 20245
SWIDTH 461 0
DWIDTH 12 0
BBX 12 12 0 0
BITMAP
1100
1100
2100
27C0
6100
A100
2FE0
2100
2280
2280
2440
2820
ENDCHAR
STARTCHAR bm_0x4F16
ENCODING 20246
SWIDTH 461 0
DWIDTH 12 0
BBX 12 12 0 0
BITMAP
2400
2400
4400
5FE0
C400
47C0
4A40
4A40
5280
5100
6280
4C60
ENDCHAR
STARTCHAR bm_0x4F17
ENCODING 20247
SWIDTH 461 0
DWIDTH 12 0
BBX 12 12 0 0
BITMAP
0400
0400
0A00
1100
2080
C060
1100
1100
1100
2A80
4440
8820
ENDCHAR
STARTCHAR bm_0x4F18
ENCODING 20248
SWIDTH 461 0
DWIDTH 12 0
BBX 12 12 0 0
BITMAP
2480
2440
4400
5FE0
C500
4500
4500
4500
4900
4920
5120
60E0
ENDCHAR
STARTCHAR bm_0x4F19
ENCODING 20249
SWIDTH 461 0
DWIDTH 12 0
BBX 12 12 0 0
BITMAP
1100
1100
2520
2520
6540
A900
2100
2280
2280
2440
2440
2820
ENDCHAR
STARTCHAR bm_0x4F1A
ENCODING 20250
SWIDTH 461 0
DWIDTH 12 0
BBX 12 12 0 0
BITMAP
0400
0A00
1100
2080
DF60
0000
0000
FFE0
1000
2080
7FC0
0040
ENDCHAR
STARTCHAR bm_0x4F1B
ENCODING 20251
SWIDTH 461 0
DWIDTH 12 0
BBX 12 12 0 0
BITMAP
2000
2FE0
4800
4A40
C940
4940
4880
4880
4940
4A40
4800
4FE0
ENDCHAR
STARTCHAR bm_0x4F1C
ENCODING 20252
SWIDTH 461 0
DWIDTH 12 0
BBX 12 12 0 0
BITMAP
2400
2400
5F80
4480
C480
48A0
5260
4200
7FE0
4200
4200
4200
ENDCHAR
STARTCHAR bm_0x4F1D
ENCODING 20253
SWIDTH 461 0
DWIDTH 12 0
BBX 12 12 0 0
BITMAP
1000
17C0
2000
2000
6000
AFE0
2100
2200
2200
2440
2FE0
2020
ENDCHAR
STARTCHAR bm_0x4F1E
ENCODING 20254
SWIDTH 461 0
DWIDTH 12 0
BBX 12 12 0 0
BITMAP
0400
0A00
1100
2080
C460
0400
2480
1500
FFE0
0400
0400
0400
ENDCHAR
STARTCHAR bm_0x4F1F
ENCODING 20255
SWIDTH 461 0
DWIDTH 12 0
BBX 12 12 0 0
BITMAP
2200
2200
5FE0
4200
CFC0
4200
5FE0
4220
4220
4220
42C0
4200
ENDCHAR
STARTCHAR bm_0x4F20
ENCODING 20256
SWIDTH 461 0
DWIDTH 12 0
BBX 12 12 0 0
BITMAP
1100
1100
2FC0
2200
6200
BFE0
2400
27C0
2040
2680
2180
2040
ENDCHAR
STARTCHAR bm_0x4F21
ENCODING 20257
SWIDTH 461 0
DWIDTH 12 0
BBX 12 12 0 0
BITMAP
1100
1100
2FE0
2200
6300
A500
27C0
2100
2100
2FE0
2100
2100
ENDCHAR
STARTCHAR bm_0x4F22
ENCODING 20258
SWIDTH 461 0
DWIDTH 12 0
BBX 12 12 0 0
BITMAP
1000
17E0
2040
2240
6440
A7E0
20C0
2140
2240
2440
2840
20C0
ENDCHAR
STARTCHAR bm_0x4F23
ENCODING 20259
SWIDTH 461 0
DWIDTH 12 0
BBX 12 12 0 0
BITMAP
1000
17C0
2440
2540
6540
A540
2540
2540
2280
2280
24A0
2860
ENDCHAR
STARTCHAR bm_0x4F24
ENCODING 20260
SWIDTH 461 0
DWIDTH 12 0
BBX 12 12 0 0
BITMAP
1200
1200
23E0
2400
6900
A100
27E0
2120
2220
2220
2420
28C0
ENDCHAR
STARTCHAR bm_0x4F25
ENCODING 20261
SWIDTH 461 0
DWIDTH 12 0
BBX 12 12 0 0
BITMAP
1400
1440
2580
2600
6400
BFE0
2480
2480
2440
2540
2620
2400
ENDCHAR
STARTCHAR bm_0x4F26
ENCODING 20262
SWIDTH 461 0
DWIDTH 12 0
BBX 12 12 0 0
BITMAP
1100
1100
2280
2440
6820
A400
2440
2580
2600
2420
2420
23E0
ENDCHAR
STARTCHAR bm_0x4F27
ENCODING 20263
SWIDTH 461 0
DWIDTH 12 0
BBX 12 12 0 0
BITMAP
2200
2200
4500
4880
D060
4F80
4880
4880
4B00
4820
4820
47E0
ENDCHAR
STARTCHAR bm_0x4F28
ENCODING 20264
SWIDTH 461 0
DWIDTH 12 0
BBX 12 12 0 0
BITMAP
1200
1200
23E0
2420
6A20
A120
2060
20A0
2120
2620
2020
20C0
ENDCHAR
STARTCHAR bm_0x4F29
ENCODING 20265
SWIDTH 461 0
DWIDTH 12 0
BBX 12 12 0 0
BITMAP
2400
2200
5FE0
4880
C880
4880
4500
4500
4200
4500
4880
5060
ENDCHAR
STARTCHAR bm_0x4F2A
ENCODING 20266
SWIDTH 461 0
DWIDTH 12 0
BBX 12 12 0 0
BITMAP
1100
1900
2500
2FE0
6120
A220
2320
22A0
24A0
2420
2820
31C0
ENDCHAR
STARTCHAR bm_0x4F2B
ENCODING 20267
SWIDTH 461 0
DWIDTH 12 0
BBX 12 12 0 0
BITMAP
1200
1100
2000
2FE0
6820
A820
2000
2000
2000
2000
2FE0
2000
ENDCHAR
STARTCHAR bm_0x4F2C
ENCODING 20268
SWIDTH 461 0
DWIDTH 12 0
BBX 12 12 0 0
BITMAP
1000
17C0
2440
2440
6440
A7C0
2500
2500
2480
2480
2840
3020
ENDCHAR
STARTCHAR bm_0x4F2D
ENCODING 20269
SWIDTH 461 0
DWIDTH 12 0
BBX 12 12 0 0
BITMAP
1200
1100
2FE0
2100
6200
A440
2F80
2100
2200
2440
2FE0
2020
ENDCHAR
STARTCHAR bm_0x4F2E
ENCODING 20270
SWIDTH 461 0
DWIDTH 12 0
BBX 12 12 0 0
BITMAP
2400
2400
45E0
5EA0
CAA0
4AA0
4AA0
4AA0
4A40
4440
4AA0
5120
ENDCHAR
STARTCHAR bm_0x4F2F
ENCODING 20271
SWIDTH 461 0
DWIDTH 12 0
BBX 12 12 0 0
BITMAP
1080
1100
27E0
2420
6420
A420
27E0
2420
2420
2420
27E0
2420
ENDCHAR
STARTCHAR bm_0x4F30
ENCODING 20272
SWIDTH 461 0
DWIDTH 12 0
BBX 12 12 0 0
BITMAP
2200
2200
4200
7FE0
C200
4200
5FC0
5040
5040
5040
5FC0
5040
ENDCHAR
STARTCHAR bm_0x4F31
ENCODING 20273
SWIDTH 461 0
DWIDTH 12 0
BBX 12 12 0 0
BITMAP
1100
1100
2280
2440
6920
A100
2540
2520
2520
2920
2100
2300
ENDCHAR
STARTCHAR bm_0x4F32
ENCODING 20274
SWIDTH 461 0
DWIDTH 12 0
BBX 12 12 0 0
BITMAP
2000
2FE0
4820
4820
CFE0
4800
4A40
4A80
4B00
4A20
5220
61E0
ENDCHAR
STARTCHAR bm_0x4F33
ENCODING 20275
SWIDTH 461 0
DWIDTH 12 0
BBX 12 12 0 0
BITMAP
1140
1540
2540
2540
6FE0
A540
2540
2540
25C0
2400
2400
27E0
ENDCHAR
STARTCHAR bm_0x4F34
ENCODING 20276
SWIDTH 461 0
DWIDTH 12 0
BBX 12 12 0 0
BITMAP
1100
1920
2540
2100
67C0
A100
2100
2FE0
2100
2100
2100
2100
ENDCHAR
STARTCHAR bm_0x4F35
ENCODING 20277
SWIDTH 461 0
DWIDTH 12 0
BBX 12 12 0 0
BITMAP
1000
1FE0
2AA0
2AA0
6AA0
AAA0
2AA0
2AE0
2C20
2820
2FE0
2820
ENDCHAR
STARTCHAR bm_0x4F36
ENCODING 20278
SWIDTH 461 0
DWIDTH 12 0
BBX 12 12 0 0
BITMAP
1200
1200
2500
2880
7260
A100
2FC0
2040
2080
2500
2200
2100
ENDCHAR
STARTCHAR bm_0x4F37
ENCODING 20279
SWIDTH 461 0
DWIDTH 12 0
BBX 12 12 0 0
BITMAP
1100
1100
2FE0
2920
6920
A920
2FE0
2920
2920
2920
2FE0
2820
ENDCHAR
STARTCHAR bm_0x4F38
ENCODING 20280
SWIDTH 461 0
DWIDTH 12 0
BBX 12 12 0 0
BITMAP
1100
1100
2FE0
2920
6920
AFE0
2920
2920
2FE0
2920
2100
2100
ENDCHAR
STARTCHAR bm_0x4F39
ENCODING 20281
SWIDTH 461 0
DWIDTH 12 0
BBX 12 12 0 0
BITMAP
1000
17C0
2440
2440
67C0
A440
2440
27C0
2440
2440
2440
2FE0
ENDCHAR
STARTCHAR bm_0x4F3A
ENCODING 20282
SWIDTH 461 0
DWIDTH 12 0
BBX 12 12 0 0
BITMAP
2000
2FE0
4020
5FA0
C020
4FA0
48A0
48A0
4FA0
4820
4020
41C0
ENDCHAR
STARTCHAR bm_0x4F3B
ENCODING 20283
SWIDTH 461 0
DWIDTH 12 0
BBX 12 12 0 0
BITMAP
1000
17C0
2100
2920
6520
A540
2100
2FE0
2100
2100
2100
2100
ENDCHAR
STARTCHAR bm_0x4F3C
ENCODING 20284
SWIDTH 461 0
DWIDTH 12 0
BBX 12 12 0 0
BITMAP
2040
2A40
4940
4940
C840
4880
4880
4A80
4D40
4940
4220
4420
ENDCHAR
STARTCHAR bm_0x4F3D
ENCODING 20285
SWIDTH 461 0
DWIDTH 12 0
BBX 12 12 0 0
BITMAP
2800
2800
48E0
5EA0
CAA0
4AA0
4AA0
4AA0
4AA0
4AA0
52E0
66A0
ENDCHAR
STARTCHAR bm_0x4F3E
ENCODING 20286
SWIDTH 461 0
DWIDTH 12 0
BBX 12 12 0 0
BITMAP
1000
17E0
2080
2100
6100
A340
2520
2920
2100
2100
2000
27E0
ENDCHAR
STARTCHAR bm_0x4F3F
ENCODING 20287
SWIDTH 461 0
DWIDTH 12 0
BBX 12 12 0 0
BITMAP
1000
17C0
2440
2440
6440
A440
2440
27C0
2000
2280
2440
2820
ENDCHAR
STARTCHAR bm_0x4F40
ENCODING 20288
SWIDTH 461 0
DWIDTH 12 0
BBX 12 12 0 0
BITMAP
1000
17C0
2440
2440
67C0
A400
2400
27E0
2420
2420
27E0
2420
ENDCHAR
STARTCHAR bm_0x4F41
ENCODING 20289
SWIDTH 461 0
DWIDTH 12 0
BBX 12 12 0 0
BITMAP
1100
1100
2200
2440
6FE0
A020
27C0
2440
2440
2440
27C0
2440
ENDCHAR
STARTCHAR bm_0x4F42
ENCODING 20290
SWIDTH 461 0
DWIDTH 12 0
BBX 12 12 0 0
BITMAP
2000
2FE0
4100
4100
C100
4900
49E0
4900
4900
4900
4900
5FE0
ENDCHAR
STARTCHAR bm_0x4F43
ENCODING 20291
SWIDTH 461 0
DWIDTH 12 0
BBX 12 12 0 0
BITMAP
1000
1FE0
2920
2920
6920
AFE0
2920
2920
2920
2920
2FE0
2820
ENDCHAR
STARTCHAR bm_0x4F44
ENCODING 20292
SWIDTH 461 0
DWIDTH 12 0
BBX 12 12 0 0
BITMAP
1440
1440
2FE0
2440
6440
A440
27C0
2440
2440
2440
27C0
2440
ENDCHAR
STARTCHAR bm_0x4F45
ENCODING 20293
SWIDTH 461 0
DWIDTH 12 0
BBX 12 12 0 0
BITMAP
1100
1100
27C0
2100
6100
AFE0
2100
2380
2540
2920
2100
2100
ENDCHAR
STARTCHAR bm_0x4F46
ENCODING 20294
SWIDTH 461 0
DWIDTH 12 0
BBX 12 12 0 0
BITMAP
2000
2FC0
4840
4840
CFC0
4840
4840
4840
4FC0
4000
4000
5FE0
ENDCHAR
STARTCHAR bm_0x4F47
ENCODING 20295
SWIDTH 461 0
DWIDTH 12 0
BBX 12 12 0 0
BITMAP
2200
2100
5FE0
5020
C000
5FE0
4100
4100
4100
4100
4100
4700
ENDCHAR
STARTCHAR bm_0x4F48
ENCODING 20296
SWIDTH 461 0
DWIDTH 12 0
BBX 12 12 0 0
BITMAP
1100
1100
2FE0
2200
6500
AFE0
3520
2520
2520
2520
2560
2100
ENDCHAR
STARTCHAR bm_0x4F49
ENCODING 20297
SWIDTH 461 0
DWIDTH 12 0
BBX 12 12 0 0
BITMAP
1100
1100
2100
27C0
6100
A100
2FE0
2100
2200
2440
2FE0
2020
ENDCHAR
STARTCHAR bm_0x4F4A
ENCODING 20298
SWIDTH 461 0
DWIDTH 12 0
BBX 12 12 0 0
BITMAP
1100
1100
2FE0
2920
6900
AFC0
2A40
2A40
2A80
2900
2A80
3460
ENDCHAR
STARTCHAR bm_0x4F4B
ENCODING 20299
SWIDTH 461 0
DWIDTH 12 0
BBX 12 12 0 0
BITMAP
1000
17E0
2220
2220
6420
A8C0
2000
27E0
2420
2420
27E0
2420
ENDCHAR
STARTCHAR bm_0x4F4C
ENCODING 20300
SWIDTH 461 0
DWIDTH 12 0
BBX 12 12 0 0
BITMAP
1280
1280
2280
2AA0
6AC0
AB80
2A80
2A80
2A80
2AA0
2BA0
3C60
ENDCHAR
STARTCHAR bm_0x4F4D
ENCODING 20301
SWIDTH 461 0
DWIDTH 12 0
BBX 12 12 0 0
BITMAP
2200
2100
4000
5FE0
C000
4840
4840
4440
4480
4480
4100
5FE0
ENDCHAR
STARTCHAR bm_0x4F4E
ENCODING 20302
SWIDTH 461 0
DWIDTH 12 0
BBX 12 12 0 0
BITMAP
10C0
1F00
2900
2900
6900
AFE0
2900
2900
2AA0
2CA0
2A60
2120
ENDCHAR
STARTCHAR bm_0x4F4F
ENCODING 20303
SWIDTH 461 0
DWIDTH 12 0
BBX 12 12 0 0
BITMAP
1200
1100
2000
2FE0
6100
A100
2100
27C0
2100
2100
2100
2FE0
ENDCHAR
STARTCHAR bm_0x4F50
ENCODING 20304
SWIDTH 461 0
DWIDTH 12 0
BBX 12 12 0 0
BITMAP
1200
1200
2FE0
2200
6400
A400
27C0
2900
2900
3100
2100
2FE0
ENDCHAR
STARTCHAR bm_0x4F51
ENCODING 20305
SWIDTH 461 0
DWIDTH 12 0
BBX 12 12 0 0
BITMAP
1100
1100
2FE0
2100
6200
A200
27E0
2C20
3420
2420
27E0
2420
ENDCHAR
STARTCHAR bm_0x4F52
ENCODING 20306
SWIDTH 461 0
DWIDTH 12 0
BBX 12 12 0 0
BITMAP
1100
1100
27C0
2540
6540
A540
2540
2FE0
2100
2280
2440
2820
ENDCHAR
STARTCHAR bm_0x4F53
ENCODING 20307
SWIDTH 461 0
DWIDTH 12 0
BBX 12 12 0 0
BITMAP
2200
2200
4200
5FC0
C200
4700
4A80
5240
6220
4F80
4200
4200
ENDCHAR
STARTCHAR bm_0x4F54
ENCODING 20308
SWIDTH 461 0
DWIDTH 12 0
BBX 12 12 0 0
BITMAP
1100
1100
2100
21E0
6100
A100
2FE0
2820
2820
2820
2FE0
2820
ENDCHAR
STARTCHAR bm_0x4F55
ENCODING 20309
SWIDTH 461 0
DWIDTH 12 0
BBX 12 12 0 0
BITMAP
2000
2FE0
4040
4040
CF40
4940
4940
4940
4F40
4840
4040
41C0
ENDCHAR
STARTCHAR bm_0x4F56
ENCODING 20310
SWIDTH 461 0
DWIDTH 12 0
BBX 12 12 0 0
BITMAP
2200
2100
4140
4040
CA40
4AA0
4AA0
5320
4200
4640
4A40
51C0
ENDCHAR
STARTCHAR bm_0x4F57
ENCODING 20311
SWIDTH 461 0
DWIDTH 12 0
BBX 12 12 0 0
BITMAP
1200
1100
2FE0
2820
6000
A440
2480
2500
2600
2420
2420
23E0
ENDCHAR
STARTCHAR bm_0x4F58
ENCODING 20312
SWIDTH 461 0
DWIDTH 12 0
BBX 12 12 0 0
BITMAP
0400
0A00
3180
C060
1F00
0000
0000
7FC0
0400
2480
4440
8C20
ENDCHAR
STARTCHAR bm_0x4F59
ENCODING 20313
SWIDTH 461 0
DWIDTH 12 0
BBX 12 12 0 0
BITMAP
0400
0A00
1100
2080
DF60
0400
0400
7FC0
0400
2480
4440
8C20
ENDCHAR
STARTCHAR bm_0x4F5A
ENCODING 20314
SWIDTH 461 0
DWIDTH 12 0
BBX 12 12 0 0
BITMAP
1100
1100
2500
27C0
6900
A100
2FE0
2100
2280
2280
2440
2820
ENDCHAR
STARTCHAR bm_0x4F5B
ENCODING 20315
SWIDTH 461 0
DWIDTH 12 0
BBX 12 12 0 0
BITMAP
2500
3FC0
4540
4540
DFC0
5500
5500
5FE0
4520
4520
49C0
5100
ENDCHAR
STARTCHAR bm_0x4F5C
ENCODING 20316
SWIDTH 461 0
DWIDTH 12 0
BBX 12 12 0 0
BITMAP
1400
1400
27E0
2A00
6200
A3C0
2200
2200
23E0
2200
2200
2200
ENDCHAR
STARTCHAR bm_0x4F5D
ENCODING 20317
SWIDTH 461 0
DWIDTH 12 0
BBX 12 12 0 0
BITMAP
1400
1400
2FE0
2820
7020
AFA0
28A0
28A0
2FA0
2820
2020
20C0
ENDCHAR
STARTCHAR bm_0x4F5E
ENCODING 20318
SWIDTH 461 0
DWIDTH 12 0
BBX 12 12 0 0
BITMAP
2000
2FC0
4000
5FE0
C200
4200
5FE0
4480
4C80
4300
4480
5840
ENDCHAR
STARTCHAR bm_0x4F5F
ENCODING 20319
SWIDTH 461 0
DWIDTH 12 0
BBX 12 12 0 0
BITMAP
1200
13C0
2440
2A80
6100
A280
2C60
2300
2080
2600
2180
2040
ENDCHAR
STARTCHAR bm_0x4F60
ENCODING 20320
SWIDTH 461 0
DWIDTH 12 0
BBX 12 12 0 0
BITMAP
1400
1400
27E0
2420
6940
A100
2540
2520
2520
2920
2100
2300
ENDCHAR
STARTCHAR bm_0x4F61
ENCODING 20321
SWIDTH 461 0
DWIDTH 12 0
BBX 12 12 0 0
BITMAP
2200
2200
4500
4880
D040
6220
4200
5240
5240
5240
5FC0
4040
ENDCHAR
STARTCHAR bm_0x4F62
ENCODING 20322
SWIDTH 461 0
DWIDTH 12 0
BBX 12 12 0 0
BITMAP
1000
17E0
2400
2400
67E0
A420
2420
2420
27E0
2400
2400
27E0
ENDCHAR
STARTCHAR bm_0x4F63
ENCODING 20323
SWIDTH 461 0
DWIDTH 12 0
BBX 12 12 0 0
BITMAP
2000
2FE0
4920
4920
CFE0
4920
4920
4FE0
4920
4920
4920
50E0
ENDCHAR
STARTCHAR bm_0x4F64
ENCODING 20324
SWIDTH 461 0
DWIDTH 12 0
BBX 12 12 0 0
BITMAP
2000
2FC0
4400
4400
C780
4480
4480
4A80
4880
48A0
4AA0
4C60
ENDCHAR
STARTCHAR bm_0x4F65
ENCODING 20325
SWIDTH 461 0
DWIDTH 12 0
BBX 12 12 0 0
BITMAP
0400
0A00
1100
2080
DF60
0000
0880
4480
2500
2100
0200
FFE0
ENDCHAR
STARTCHAR bm_0x4F66
ENCODING 20326
SWIDTH 461 0
DWIDTH 12 0
BBX 12 12 0 0
BITMAP
1000
1FE0
2200
2200
6400
A7C0
2C40
3440
2440
2440
27C0
2440
ENDCHAR
STARTCHAR bm_0x4F67
ENCODING 20327
SWIDTH 461 0
DWIDTH 12 0
BBX 12 12 0 0
BITMAP
1200
1200
23C0
2200
6200
BFE0
2200
2300
2280
2240
2200
2200
ENDCHAR
STARTCHAR bm_0x4F68
ENCODING 20328
SWIDTH 461 0
DWIDTH 12 0
BBX 12 12 0 0
BITMAP
1200
1200
27E0
2820
67A0
A4A0
24A0
27A0
2460
2400
2420
23E0
ENDCHAR
STARTCHAR bm_0x4F69
ENCODING 20329
SWIDTH 461 0
DWIDTH 12 0
BBX 12 12 0 0
BITMAP
2000
3FC0
5040
5F40
D440
5F40
5540
5540
5540
5740
5460
6420
ENDCHAR
STARTCHAR bm_0x4F6A
ENCODING 20330
SWIDTH 461 0
DWIDTH 12 0
BBX 12 12 0 0
BITMAP
1000
1FE0
2820
2820
6BA0
AAA0
2AA0
2BA0
2820
2820
2FE0
2820
ENDCHAR
STARTCHAR bm_0x4F6B
ENCODING 20331
SWIDTH 461 0
DWIDTH 12 0
BBX 12 12 0 0
BITMAP
2400
27C0
4840
5480
C300
5CE0
4000
4FC0
4840
4840
4FC0
4840
ENDCHAR
STARTCHAR bm_0x4F6C
ENCODING 20332
SWIDTH 461 0
DWIDTH 12 0
BBX 12 12 0 0
BITMAP
1200
1220
2FA0
2240
6280
BFE0
2200
2440
2D80
3600
2420
23E0
ENDCHAR
STARTCHAR bm_0x4F6D
ENCODING 20333
SWIDTH 461 0
DWIDTH 12 0
BBX 12 12 0 0
BITMAP
2400
27C0
4840
5480
C300
5CE0
4100
4FC0
4100
5100
5FE0
4100
ENDCHAR
STARTCHAR bm_0x4F6E
ENCODING 20334
SWIDTH 461 0
DWIDTH 12 0
BBX 12 12 0 0
BITMAP
1100
1100
2280
2440
6820
A7C0
2000
27C0
2440
2440
27C0
2440
ENDCHAR
STARTCHAR bm_0x4F6F
ENCODING 20335
SWIDTH 461 0
DWIDTH 12 0
BBX 12 12 0 0
BITMAP
1440
1280
2FE0
2100
6100
A7C0
2100
2100
2FE0
2100
2100
2100
ENDCHAR
STARTCHAR bm_0x4F70
ENCODING 20336
SWIDTH 461 0
DWIDTH 12 0
BBX 12 12 0 0
BITMAP
1000
1FE0
2100
2200
6FE0
A820
2820
2FE0
2820
2820
2FE0
2820
ENDCHAR
STARTCHAR bm_0x4F71
ENCODING 20337
SWIDTH 461 0
DWIDTH 12 0
BBX 12 12 0 0
BITMAP
0400
0A00
3180
C060
3F80
0000
FFE0
0400
2400
27C0
2400
FFE0
ENDCHAR
STARTCHAR bm_0x4F72
ENCODING 20338
SWIDTH 461 0
DWIDTH 12 0
BBX 12 12 0 0
BITMAP
1100
1100
23E0
2420
6A40
A180
2200
27E0
2A20
2220
23E0
2220
ENDCHAR
STARTCHAR bm_0x4F73
ENCODING 20339
SWIDTH 461 0
DWIDTH 12 0
BBX 12 12 0 0
BITMAP
1100
1100
27C0
2100
6100
AFE0
2000
2100
27C0
2100
2100
2FE0
ENDCHAR
STARTCHAR bm_0x4F74
ENCODING 20340
SWIDTH 461 0
DWIDTH 12 0
BBX 12 12 0 0
BITMAP
1000
1FE0
2440
2440
67C0
A440
27C0
2440
2460
2FC0
2040
2040
ENDCHAR
STARTCHAR bm_0x4F75
ENCODING 20341
SWIDTH 461 0
DWIDTH 12 0
BBX 12 12 0 0
BITMAP
2840
2480
4000
4FC0
C480
4480
4480
5FE0
4480
4480
4480
4880
ENDCHAR
STARTCHAR bm_0x4F76
ENCODING 20342
SWIDTH 461 0
DWIDTH 12 0
BBX 12 12 0 0
BITMAP
2200
2200
5FE0
4200
C200
5FC0
4000
5FC0
5040
5040
5FC0
5040
ENDCHAR
STARTCHAR bm_0x4F77
ENCODING 20343
SWIDTH 461 0
DWIDTH 12 0
BBX 12 12 0 0
BITMAP
17C0
1440
2440
27C0
6440
A440
27C0
2520
2540
2480
2640
2420
ENDCHAR
STARTCHAR bm_0x4F78
ENCODING 20344
SWIDTH 461 0
DWIDTH 12 0
BBX 12 12 0 0
BITMAP
21C0
3E00
4200
4200
DFE0
4200
4200
5FC0
5040
5040
5FC0
5040
ENDCHAR
STARTCHAR bm_0x4F79
ENCODING 20345
SWIDTH 461 0
DWIDTH 12 0
BBX 12 12 0 0
BITMAP
2400
27C0
4840
5080
CFE0
4800
4BC0
4A40
4AC0
4A00
4A20
51E0
ENDCHAR
STARTCHAR bm_0x4F7A
ENCODING 20346
SWIDTH 461 0
DWIDTH 12 0
BBX 12 12 0 0
BITMAP
1100
1100
2280
2440
6820
A7C0
2100
2100
27C0
2100
2100
2FE0
ENDCHAR
STARTCHAR bm_0x4F7B
ENCODING 20347
SWIDTH 461 0
DWIDTH 12 0
BBX 12 12 0 0
BITMAP
2480
2480
4480
54A0
CCC0
4480
4CC0
54A0
4480
48A0
48A0
5060
ENDCHAR
STARTCHAR bm_0x4F7C
ENCODING 20348
SWIDTH 461 0
DWIDTH 12 0
BBX 12 12 0 0
BITMAP
2200
2100
5FE0
4000
C480
4840
54A0
4480
4480
4300
4480
5860
ENDCHAR
STARTCHAR bm_0x4F7D
ENCODING 20349
SWIDTH 461 0
DWIDTH 12 0
BBX 12 12 0 0
BITMAP
1200
1200
23E0
3420
6840
A100
2100
2900
3280
2280
2440
2820
ENDCHAR
STARTCHAR bm_0x4F7E
ENCODING 20350
SWIDTH 461 0
DWIDTH 12 0
BBX 12 12 0 0
BITMAP
2480
2480
4840
5020
CFC0
4840
4FC0
4840
4FC0
4840
4840
48C0
ENDCHAR
STARTCHAR bm_0x4F7F
ENCODING 20351
SWIDTH 461 0
DWIDTH 12 0
BBX 12 12 0 0
BITMAP
1100
1100
2FE0
2100
6FE0
A920
2FE0
2900
2500
2200
2580
2860
ENDCHAR
STARTCHAR bm_0x4F80
ENCODING 20352
SWIDTH 461 0
DWIDTH 12 0
BBX 12 12 0 0
BITMAP
2020
3F20
4AA0
4AA0
CAA0
5FA0
4AA0
4AA0
4AA0
4A20
4A20
5260
ENDCHAR
STARTCHAR bm_0x4F81
ENCODING 20353
SWIDTH 461 0
DWIDTH 12 0
BBX 12 12 0 0
BITMAP
1100
1500
2500
27C0
6900
A100
2FE0
2280
2280
2280
24A0
2860
ENDCHAR
STARTCHAR bm_0x4F82
ENCODING 20354
SWIDTH 461 0
DWIDTH 12 0
BBX 12 12 0 0
BITMAP
1200
1100
2FE0
2800
68C0
AF00
2900
29E0
2F00
2920
2920
30E0
ENDCHAR
STARTCHAR bm_0x4F83
ENCODING 20355
SWIDTH 461 0
DWIDTH 12 0
BBX 12 12 0 0
BITMAP
2000
2FC0
4840
4840
CFC0
4000
4A80
4A80
4A80
4A80
52A0
6260
ENDCHAR
STARTCHAR bm_0x4F84
ENCODING 20356
SWIDTH 461 0
DWIDTH 12 0
BBX 12 12 0 0
BITMAP
1000
17E0
2100
2200
6440
A7E0
2120
2100
27C0
2100
2100
2FE0
ENDCHAR
STARTCHAR bm_0x4F85
ENCODING 20357
SWIDTH 461 0
DWIDTH 12 0
BBX 12 12 0 0
BITMAP
1200
1100
2FE0
2200
6440
AF80
2120
2240
2C80
2180
2240
2C20
ENDCHAR
STARTCHAR bm_0x4F86
ENCODING 20358
SWIDTH 461 0
DWIDTH 12 0
BBX 12 12 0 0
BITMAP
0400
0400
7FC0
2480
2480
5540
8E20
0E00
1500
2480
C460
0400
ENDCHAR
STARTCHAR bm_0x4F87
ENCODING 20359
SWIDTH 461 0
DWIDTH 12 0
BBX 12 12 0 0
BITMAP
1100
1FE0
2100
2FE0
6120
AFE0
2900
2FE0
2120
2160
2280
2C60
ENDCHAR
STARTCHAR bm_0x4F88
ENCODING 20360
SWIDTH 461 0
DWIDTH 12 0
BBX 12 12 0 0
BITMAP
1200
13C0
2440
2A80
6100
A280
25E0
2220
2540
2080
2300
2C00
ENDCHAR
STARTCHAR bm_0x4F89
ENCODING 20361
SWIDTH 461 0
DWIDTH 12 0
BBX 12 12 0 0
BITMAP
1100
1FE0
2280
2440
6BA0
A000
2FE0
2400
27C0
2040
2040
2180
ENDCHAR
STARTCHAR bm_0x4F8A
ENCODING 20362
SWIDTH 461 0
DWIDTH 12 0
BBX 12 12 0 0
BITMAP
2200
2200
5240
4A80
C200
5FE0
4500
4500
4500
4920
5120
60E0
ENDCHAR
STARTCHAR bm_0x4F8B
ENCODING 20363
SWIDTH 461 0
DWIDTH 12 0
BBX 12 12 0 0
BITMAP
2020
3E20
48A0
48A0
CEA0
52A0
52A0
6AA0
44A0
4420
4820
50E0
ENDCHAR
STARTCHAR bm_0x4F8C
ENCODING 20364
SWIDTH 461 0
DWIDTH 12 0
BBX 12 12 0 0
BITMAP
0400
0A00
3180
C460
3F80
0100
7FC0
0000
FFE0
1000
2080
7FC0
ENDCHAR
STARTCHAR bm_0x4F8D
ENCODING 20365
SWIDTH 461 0
DWIDTH 12 0
BBX 12 12 0 0
BITMAP
1100
1100
27C0
2100
6FE0
A080
2FE0
2080
2480
2280
2080
2380
ENDCHAR
STARTCHAR bm_0x4F8E
ENCODING 20366
SWIDTH 461 0
DWIDTH 12 0
BBX 12 12 0 0
BITMAP
1100
1100
2920
2540
6100
AFE0
2100
2380
2540
2920
2100
2100
ENDCHAR
STARTCHAR bm_0x4F8F
ENCODING 20367
SWIDTH 461 0
DWIDTH 12 0
BBX 12 12 0 0
BITMAP
1100
1500
27C0
2900
6100
AFE0
2100
2380
2540
2920
2100
2100
ENDCHAR
STARTCHAR bm_0x4F90
ENCODING 20368
SWIDTH 461 0
DWIDTH 12 0
BBX 12 12 0 0
BITMAP
2200
2200
4400
5FC0
D540
5540
5540
5540
5540
5540
5540
7FE0
ENDCHAR
STARTCHAR bm_0x4F91
ENCODING 20369
SWIDTH 461 0
DWIDTH 12 0
BBX 12 12 0 0
BITMAP
2200
2200
5FE0
4400
CFC0
5840
6FC0
4840
4FC0
4840
4840
48C0
ENDCHAR
STARTCHAR bm_0x4F92
ENCODING 20370
SWIDTH 461 0
DWIDTH 12 0
BBX 12 12 0 0
BITMAP
1200
1100
2FE0
2820
6100
A100
2FE0
2240
2640
2180
2240
2C20
ENDCHAR
STARTCHAR bm_0x4F93
ENCODING 20371
SWIDTH 461 0
DWIDTH 12 0
BBX 12 12 0 0
BITMAP
1100
17C0
2140
2FE0
6140
A7C0
2100
27C0
2100
2FE0
2100
2100
ENDCHAR
STARTCHAR bm_0x4F94
ENCODING 20372
SWIDTH 461 0
DWIDTH 12 0
BBX 12 12 0 0
BITMAP
1100
1200
2440
27E0
6120
A500
27C0
2900
2100
2FE0
2100
2100
ENDCHAR
STARTCHAR bm_0x4F95
ENCODING 20373
SWIDTH 461 0
DWIDTH 12 0
BBX 12 12 0 0
BITMAP
1000
1FE0
2100
2200
6FE0
AAA0
2AA0
2AA0
2AA0
2AA0
2AA0
2860
ENDCHAR
STARTCHAR bm_0x4F96
ENCODING 20374
SWIDTH 461 0
DWIDTH 12 0
BBX 12 12 0 0
BITMAP
0400
0A00
3180
C060
3F80
0000
7FC0
4A40
7FC0
4A40
4A40
40C0
ENDCHAR
STARTCHAR bm_0x4F97
ENCODING 20375
SWIDTH 461 0
DWIDTH 12 0
BBX 12 12 0 0
BITMAP
1000
1FE0
2820
2BA0
6820
ABA0
2AA0
2AA0
2BA0
2820
2820
2860
ENDCHAR
STARTCHAR bm_0x4F98
ENCODING 20376
SWIDTH 461 0
DWIDTH 12 0
BBX 12 12 0 0
BITMAP
1200
1100
2FE0
2820
60C0
A700
2100
21E0
2F00
2120
2120
20E0
ENDCHAR
STARTCHAR bm_0x4F99
ENCODING 20377
SWIDTH 461 0
DWIDTH 12 0
BBX 12 12 0 0
BITMAP
10A0
1080
2FE0
2080
6080
AE80
2480
2480
2480
26A0
2C60
2020
ENDCHAR
STARTCHAR bm_0x4F9A
ENCODING 20378
SWIDTH 461 0
DWIDTH 12 0
BBX 12 12 0 0
BITMAP
2800
2FE0
5020
6FA0
C8A0
48A0
4FA0
48A0
48A0
4FA0
4820
40C0
ENDCHAR
STARTCHAR bm_0x4F9B
ENCODING 20379
SWIDTH 461 0
DWIDTH 12 0
BBX 12 12 0 0
BITMAP
2880
2880
4880
5FC0
C880
4880
4880
7FE0
4000
4880
5040
6020
ENDCHAR
STARTCHAR bm_0x4F9C
ENCODING 20380
SWIDTH 461 0
DWIDTH 12 0
BBX 12 12 0 0
BITMAP
2100
2200
4FC0
4840
CA40
4940
5FE0
4840
4A40
4940
4840
51C0
ENDCHAR
STARTCHAR bm_0x4F9D
ENCODING 20381
SWIDTH 461 0
DWIDTH 12 0
BBX 12 12 0 0
BITMAP
1200
1100
2FE0
2100
6200
A520
2D40
3480
2480
2440
2620
2400
ENDCHAR
STARTCHAR bm_0x4F9E
ENCODING 20382
SWIDTH 461 0
DWIDTH 12 0
BBX 12 12 0 0
BITMAP
2400
2400
44E0
5EA0
CAA0
4AA0
4AA0
52A0
4AA0
44E0
4AA0
5200
ENDCHAR
STARTCHAR bm_0x4F9F
ENCODING 20383
SWIDTH 461 0
DWIDTH 12 0
BBX 12 12 0 0
BITMAP
1200
1200
2FE0
2400
65C0
AC40
3480
27E0
2480
2480
2480
2580
ENDCHAR
STARTCHAR bm_0x4FA0
ENCODING 20384
SWIDTH 461 0
DWIDTH 12 0
BBX 12 12 0 0
BITMAP
1100
1100
2FE0
2100
6920
A540
2100
2FE0
2100
2280
2440
2820
ENDCHAR
STARTCHAR bm_0x4FA1
ENCODING 20385
SWIDTH 461 0
DWIDTH 12 0
BBX 12 12 0 0
BITMAP
1000
1FE0
2280
2280
6FE0
AAA0
2AA0
2AA0
2AA0
2AA0
2FE0
2820
ENDCHAR
STARTCHAR bm_0x4FA2
ENCODING 20386
SWIDTH 461 0
DWIDTH 12 0
BBX 12 12 0 0
BITMAP
3FE0
2200
5FC0
5240
D240
5FC0
5240
5240
7FE0
5040
5040
50C0
ENDCHAR
STARTCHAR bm_0x4FA3
ENCODING 20387
SWIDTH 461 0
DWIDTH 12 0
BBX 12 12 0 0
BITMAP
17C0
1440
2440
2440
67C0
A000
2FE0
2820
2820
2820
2FE0
2820
ENDCHAR
STARTCHAR bm_0x4FA4
ENCODING 20388
SWIDTH 461 0
DWIDTH 12 0
BBX 12 12 0 0
BITMAP
1200
1220
2F40
2280
7FE0
A200
27C0
2C00
37C0
2040
2040
2180
ENDCHAR
STARTCHAR bm_0x4FA5
ENCODING 20389
SWIDTH 461 0
DWIDTH 12 0
BBX 12 12 0 0
BITMAP
2200
23E0
5E40
4280
C120
4EE0
4000
5FE0
4480
4480
48A0
5060
ENDCHAR
STARTCHAR bm_0x4FA6
ENCODING 20390
SWIDTH 461 0
DWIDTH 12 0
BBX 12 12 0 0
BITMAP
2200
2200
43E0
4200
DFC0
5040
5240
5240
5240
4500
4880
5040
ENDCHAR
STARTCHAR bm_0x4FA7
ENCODING 20391
SWIDTH 461 0
DWIDTH 12 0
BBX 12 12 0 0
BITMAP
2020
3E20
52A0
52A0
D2A0
52A0
5AA0
5AA0
48A0
4820
5420
6260
ENDCHAR
STARTCHAR bm_0x4FA8
ENCODING 20392
SWIDTH 461 0
DWIDTH 12 0
BBX 12 12 0 0
BITMAP
10C0
1700
2100
2FE0
6280
A440
2820
2440
2440
2440
2440
2840
ENDCHAR
STARTCHAR bm_0x4FA9
ENCODING 20393
SWIDTH 461 0
DWIDTH 12 0
BBX 12 12 0 0
BITMAP
1100
1280
2440
2820
67C0
A000
2000
2FE0
2200
2440
2FE0
2020
ENDCHAR
STARTCHAR bm_0x4FAA
ENCODING 20394
SWIDTH 461 0
DWIDTH 12 0
BBX 12 12 0 0
BITMAP
2200
2100
5FE0
4480
C300
4480
5860
4480
4480
4480
4880
5080
ENDCHAR
STARTCHAR bm_0x4FAB
ENCODING 20395
SWIDTH 461 0
DWIDTH 12 0
BBX 12 12 0 0
BITMAP
2200
2100
7FE0
4800
C800
4FC0
4200
5FE0
4480
4C80
4300
5CC0
ENDCHAR
STARTCHAR bm_0x4FAC
ENCODING 20396
SWIDTH 461 0
DWIDTH 12 0
BBX 12 12 0 0
BITMAP
2100
2100
5FE0
5220
C200
4520
4D40
5480
6480
4440
4620
4400
ENDCHAR
STARTCHAR bm_0x4FAD
ENCODING 20397
SWIDTH 461 0
DWIDTH 12 0
BBX 12 12 0 0
BITMAP
2000
2FC0
4840
4840
CFC0
4900
4880
5240
6120
4400
4200
4100
ENDCHAR
STARTCHAR bm_0x4FAE
ENCODING 20398
SWIDTH 461 0
DWIDTH 12 0
BBX 12 12 0 0
BITMAP
2800
2FE0
5000
6FC0
C840
4A40
7FE0
5040
5240
5FE0
4040
4180
ENDCHAR
STARTCHAR bm_0x4FAF
ENCODING 20399
SWIDTH 461 0
DWIDTH 12 0
BBX 12 12 0 0
BITMAP
1000
1780
2080
2FE0
6400
A7C0
2900
2100
2FE0
2280
2440
2820
ENDCHAR
STARTCHAR bm_0x4FB0
ENCODING 20400
SWIDTH 461 0
DWIDTH 12 0
BBX 12 12 0 0
BITMAP
1000
17C0
2240
2FE0
6240
AFC0
2400
2FC0
3440
2440
27C0
2440
ENDCHAR
STARTCHAR bm_0x4FB1
ENCODING 20401
SWIDTH 461 0
DWIDTH 12 0
BBX 12 12 0 0
BITMAP
17C0
1440
2440
27C0
6000
AFE0
2100
2100
27C0
2100
2100
2FE0
ENDCHAR
STARTCHAR bm_0x4FB2
ENCODING 20402
SWIDTH 461 0
DWIDTH 12 0
BBX 12 12 0 0
BITMAP
2000
2FE0
4800
4BC0
C800
4FE0
4A80
4AA0
4AC0
4A80
4B40
5220
ENDCHAR
STARTCHAR bm_0x4FB3
ENCODING 20403
SWIDTH 461 0
DWIDTH 12 0
BBX 12 12 0 0
BITMAP
1100
1100
2540
2540
6540
ABA0
2100
2100
27C0
2100
2100
2FE0
ENDCHAR
STARTCHAR bm_0x4FB4
ENCODING 20404
SWIDTH 461 0
DWIDTH 12 0
BBX 12 12 0 0
BITMAP
0400
0A00
3180
C060
1F00
0040
7D40
1540
7D40
2540
2640
F8C0
ENDCHAR
STARTCHAR bm_0x4FB5
ENCODING 20405
SWIDTH 461 0
DWIDTH 12 0
BBX 12 12 0 0
BITMAP
2FC0
2040
47C0
4040
CFC0
4000
5FE0
5020
4FC0
4440
4380
5C60
ENDCHAR
STARTCHAR bm_0x4FB6
ENCODING 20406
SWIDTH 461 0
DWIDTH 12 0
BBX 12 12 0 0
BITMAP
1000
17C0
2440
2440
67C0
A100
2200
2FE0
2820
2820
2FE0
2820
ENDCHAR
STARTCHAR bm_0x4FB7
ENCODING 20407
SWIDTH 461 0
DWIDTH 12 0
BBX 12 12 0 0
BITMAP
2FC0
2840
4FC0
4800
CFE0
4820
4BA0
4AA0
4AA0
4BA0
4820
50C0
ENDCHAR
STARTCHAR bm_0x4FB8
ENCODING 20408
SWIDTH 461 0
DWIDTH 12 0
BBX 12 12 0 0
BITMAP
1000
1FE0
2000
27C0
6440
A440
27C0
2000
2440
2280
2000
2FE0
ENDCHAR
STARTCHAR bm_0x4FB9
ENCODING 20409
SWIDTH 461 0
DWIDTH 12 0
BBX 12 12 0 0
BITMAP
2040
2D80
4480
4480
C880
49C0
4C80
4480
4480
55C0
4800
57E0
ENDCHAR
STARTCHAR bm_0x4FBA
ENCODING 20410
SWIDTH 461 0
DWIDTH 12 0
BBX 12 12 0 0
BITMAP
1100
1920
2FE0
2100
6280
A440
2920
2080
27C0
2040
2080
2100
ENDCHAR
STARTCHAR bm_0x4FBB
ENCODING 20411
SWIDTH 461 0
DWIDTH 12 0
BBX 12 12 0 0
BITMAP
2840
2480
4000
4FC0
C840
4840
4FC0
4480
4480
4480
48A0
5060
ENDCHAR
STARTCHAR bm_0x4FBC
ENCODING 20412
SWIDTH 461 0
DWIDTH 12 0
BBX 12 12 0 0
BITMAP
1100
1FE0
2100
2FE0
6820
A7C0
2080
2100
2FE0
2100
2100
2300
ENDCHAR
STARTCHAR bm_0x4FBD
ENCODING 20413
SWIDTH 461 0
DWIDTH 12 0
BBX 12 12 0 0
BITMAP
1000
1FE0
2920
2FE0
6920
AFE0
2200
2FE0
2220
2420
2420
28C0
ENDCHAR
STARTCHAR bm_0x4FBE
ENCODING 20414
SWIDTH 461 0
DWIDTH 12 0
BBX 12 12 0 0
BITMAP
2200
2FA0
4240
5FE0
C100
4FC0
4440
4980
57E0
4100
4100
4300
ENDCHAR
STARTCHAR bm_0x4FBF
ENCODING 20415
SWIDTH 461 0
DWIDTH 12 0
BBX 12 12 0 0
BITMAP
1000
1FE0
2100
2FE0
6920
AFE0
2920
2FE0
2500
2200
2500
28E0
ENDCHAR
STARTCHAR bm_0x4FC0
ENCODING 20416
SWIDTH 461 0
DWIDTH 12 0
BBX 12 12 0 0
BITMAP
10E0
1F00
2220
2940
6400
A100
2FE0
2240
2640
2180
2240
2C20
ENDCHAR
STARTCHAR bm_0x4FC1
ENCODING 20417
SWIDTH 461 0
DWIDTH 12 0
BBX 12 12 0 0
BITMAP
13C0
1240
2A40
2BC0
6800
AFC0
2240
2240
2FE0
2280
2440
2820
ENDCHAR
STARTCHAR bm_0x4FC2
ENCODING 20418
SWIDTH 461 0
DWIDTH 12 0
BBX 12 12 0 0
BITMAP
10C0
1700
2100
2240
6780
A100
2240
2FE0
2120
2540
2920
2300
ENDCHAR
STARTCHAR bm_0x4FC3
ENCODING 20419
SWIDTH 461 0
DWIDTH 12 0
BBX 12 12 0 0
BITMAP
2FE0
2820
4820
4820
CFE0
4100
4900
49E0
4900
4900
5500
63E0
ENDCHAR
STARTCHAR bm_0x4FC4
ENCODING 20420
SWIDTH 461 0
DWIDTH 12 0
BBX 12 12 0 0
BITMAP
1280
1CC0
24A0
2480
7FE0
A480
26A0
3CC0
2480
25A0
2660
2C20
ENDCHAR
STARTCHAR bm_0x4FC5
ENCODING 20421
SWIDTH 461 0
DWIDTH 12 0
BBX 12 12 0 0
BITMAP
2280
2240
4200
5FE0
C200
5320
4B40
4680
4A80
5240
4220
4600
ENDCHAR
STARTCHAR bm_0x4FC6
ENCODING 20422
SWIDTH 461 0
DWIDTH 12 0
BBX 12 12 0 0
BITMAP
1100
1280
2440
2820
67C0
A100
2FE0
2100
2540
2520
2920
2300
ENDCHAR
STARTCHAR bm_0x4FC7
ENCODING 20423
SWIDTH 461 0
DWIDTH 12 0
BBX 12 12 0 0
BITMAP
2400
37E0
4880
5480
C480
4480
4FE0
5480
4480
4480
4480
5BE0
ENDCHAR
STARTCHAR bm_0x4FC8
ENCODING 20424
SWIDTH 461 0
DWIDTH 12 0
BBX 12 12 0 0
BITMAP
2100
2900
4FC0
5100
C100
5FE0
4000
4FC0
4840
4840
4FC0
4840
ENDCHAR
STARTCHAR bm_0x4FC9
ENCODING 20425
SWIDTH 461 0
DWIDTH 12 0
BBX 12 12 0 0
BITMAP
2FC0
2200
4FC0
4440
C440
5FE0
4000
4FC0
4840
4840
4FC0
4840
ENDCHAR
STARTCHAR bm_0x4FCA
ENCODING 20426
SWIDTH 461 0
DWIDTH 12 0
BBX 12 12 0 0
BITMAP
1200
1440
2FE0
2020
6440
AA20
23C0
2440
2A80
2100
2280
2C60
ENDCHAR
STARTCHAR bm_0x4FCB
ENCODING 20427
SWIDTH 461 0
DWIDTH 12 0
BBX 12 12 0 0
BITMAP
17C0
1440
27C0
2000
6FE0
A920
2920
2FE0
2800
2820
2820
27E0
ENDCHAR
STARTCHAR bm_0x4FCC
ENCODING 20428
SWIDTH 461 0
DWIDTH 12 0
BBX 12 12 0 0
BITMAP
1140
1120
2FE0
2100
6FE0
A920
2FE0
2920
2FE0
2920
2920
2860
ENDCHAR
STARTCHAR bm_0x4FCD
ENCODING 20429
SWIDTH 461 0
DWIDTH 12 0
BBX 12 12 0 0
BITMAP
1200
1100
2FC0
2840
6FC0
A840
2FC0
2920
2940
2880
2A40
2C20
ENDCHAR
STARTCHAR bm_0x4FCE
ENCODING 20430
SWIDTH 461 0
DWIDTH 12 0
BBX 12 12 0 0
BITMAP
2000
27C0
2440
5440
4FC0
8440
2440
27C0
5440
4C40
8440
0FE0
ENDCHAR
STARTCHAR bm_0x4FCF
ENCODING 20431
SWIDTH 461 0
DWIDTH 12 0
BBX 12 12 0 0
BITMAP
2100
2920
4540
4100
CFE0
4820
4FE0
4820
4FE0
4820
4820
4860
ENDCHAR
STARTCHAR bm_0x4FD0
ENCODING 20432
SWIDTH 461 0
DWIDTH 12 0
BBX 12 12 0 0
BITMAP
2220
2C20
44A0
44A0
DFA0
44A0
44A0
4EA0
55A0
4420
4420
4460
ENDCHAR
STARTCHAR bm_0x4FD1
ENCODING 20433
SWIDTH 461 0
DWIDTH 12 0
BBX 12 12 0 0
BITMAP
17C0
1040
2280
2100
6FE0
A920
2FE0
2920
2FE0
2920
2920
2860
ENDCHAR
STARTCHAR bm_0x4FD2
ENCODING 20434
SWIDTH 461 0
DWIDTH 12 0
BBX 12 12 0 0
BITMAP
1200
1100
2FE0
2820
6000
A7C0
2000
2FE0
2280
2280
24A0
2860
ENDCHAR
STARTCHAR bm_0x4FD3
ENCODING 20435
SWIDTH 461 0
DWIDTH 12 0
BBX 12 12 0 0
BITMAP
1000
1FE0
2000
2540
6A80
A540
2000
27C0
2100
2100
2100
2FE0
ENDCHAR
STARTCHAR bm_0x4FD4
ENCODING 20436
SWIDTH 461 0
DWIDTH 12 0
BBX 12 12 0 0
BITMAP
2000
2FC0
4840
4FC0
C840
4FC0
4840
4FC0
4480
4480
48A0
5060
ENDCHAR
STARTCHAR bm_0x4FD5
ENCODING 20437
SWIDTH 461 0
DWIDTH 12 0
BBX 12 12 0 0
BITMAP
1200
1100
2FE0
2820
6100
A100
2FE0
2100
2380
2540
2920
2100
ENDCHAR
STARTCHAR bm_0x4FD6
ENCODING 20438
SWIDTH 461 0
DWIDTH 12 0
BBX 12 12 0 0
BITMAP
2000
3FE0
4200
4680
CA40
5220
4000
4FC0
4840
4840
4FC0
4840
ENDCHAR
STARTCHAR bm_0x4FD7
ENCODING 20439
SWIDTH 461 0
DWIDTH 12 0
BBX 12 12 0 0
BITMAP
1280
1440
2920
2100
6280
A440
2820
27C0
2440
2440
27C0
2440
ENDCHAR
STARTCHAR bm_0x4FD8
ENCODING 20440
SWIDTH 461 0
DWIDTH 12 0
BBX 12 12 0 0
BITMAP
10E0
1F00
2220
2940
6400
AFC0
2080
2100
2FE0
2100
2100
2300
ENDCHAR
STARTCHAR bm_0x4FD9
ENCODING 20441
SWIDTH 461 0
DWIDTH 12 0
BBX 12 12 0 0
BITMAP
2840
2780
4840
4200
DFE0
4400
4900
5FE0
4920
4920
4960
4100
ENDCHAR
STARTCHAR bm_0x4FDA
ENCODING 20442
SWIDTH 461 0
DWIDTH 12 0
BBX 12 12 0 0
BITMAP
2FE0
2920
4920
4FE0
C920
4920
4FE0
4100
4FE0
4100
4100
5FE0
ENDCHAR
STARTCHAR bm_0x4FDB
ENCODING 20443
SWIDTH 461 0
DWIDTH 12 0
BBX 12 12 0 0
BITMAP
2400
27C0
4840
5080
CFE0
4920
4920
4FE0
4280
4280
44A0
4860
ENDCHAR
STARTCHAR bm_0x4FDC
ENCODING 20444
SWIDTH 461 0
DWIDTH 12 0
BBX 12 12 0 0
BITMAP
2200
3FC0
5240
5FC0
D240
5FC0
4000
5FE0
4800
4FC0
4040
4180
ENDCHAR
STARTCHAR bm_0x4FDD
ENCODING 20445
SWIDTH 461 0
DWIDTH 12 0
BBX 12 12 0 0
BITMAP
1000
17C0
2440
2440
67C0
A100
2FE0
2100
2380
2540
2920
2100
ENDCHAR
STARTCHAR bm_0x4FDE
ENCODING 20446
SWIDTH 461 0
DWIDTH 12 0
BBX 12 12 0 0
BITMAP
0400
0A00
3180
DF60
0000
7C40
4540
7D40
4540
7D40
4440
4CC0
ENDCHAR
STARTCHAR bm_0x4FDF
ENCODING 20447
SWIDTH 461 0
DWIDTH 12 0
BBX 12 12 0 0
BITMAP
1100
1200
2440
2FE0
6420
A7C0
2900
2100
2FE0
2280
2440
2820
ENDCHAR
STARTCHAR bm_0x4FE0
ENCODING 20448
SWIDTH 461 0
DWIDTH 12 0
BBX 12 12 0 0
BITMAP
1100
1100
2FE0
2100
6540
A540
2540
2BA0
2100
2280
2440
2820
ENDCHAR
STARTCHAR bm_0x4FE1
ENCODING 20449
SWIDTH 461 0
DWIDTH 12 0
BBX 12 12 0 0
BITMAP
2200
2100
5FE0
4000
CFC0
4000
4FC0
4000
4FC0
4840
4FC0
4840
ENDCHAR
STARTCHAR bm_0x4FE2
ENCODING 20450
SWIDTH 461 0
DWIDTH 12 0
BBX 12 12 0 0
BITMAP
1200
13C0
2440
2C80
6300
A480
3960
2600
2080
2700
20C0
2F00
ENDCHAR
STARTCHAR bm_0x4FE3
ENCODING 20451
SWIDTH 461 0
DWIDTH 12 0
BBX 12 12 0 0
BITMAP
2F80
2880
4880
4F80
C000
5FC0
4200
7FE0
4200
4500
4880
5060
ENDCHAR
STARTCHAR bm_0x4FE4
ENCODING 20452
SWIDTH 461 0
DWIDTH 12 0
BBX 12 12 0 0
BITMAP
2880
2500
5FC0
4240
DFC0
5200
5FE0
4620
4A20
52C0
6200
4200
ENDCHAR
STARTCHAR bm_0x4FE5
ENCODING 20453
SWIDTH 461 0
DWIDTH 12 0
BBX 12 12 0 0
BITMAP
2200
3FC0
4200
5FC0
D240
5FC0
5240
5FC0
4200
5FE0
4200
4200
ENDCHAR
STARTCHAR bm_0x4FE6
ENCODING 20454
SWIDTH 461 0
DWIDTH 12 0
BBX 12 12 0 0
BITMAP
2200
3FE0
4200
4FC0
C400
5FE0
4440
4FE0
4A40
5140
5040
60C0
ENDCHAR
STARTCHAR bm_0x4FE7
ENCODING 20455
SWIDTH 461 0
DWIDTH 12 0
BBX 12 12 0 0
BITMAP
2200
2200
7FE0
4200
C200
5FC0
4200
4100
4440
5420
54A0
6380
ENDCHAR
STARTCHAR bm_0x4FE8
ENCODING 20456
SWIDTH 461 0
DWIDTH 12 0
BBX 12 12 0 0
BITMAP
2000
3FE0
4480
54A0
CCC0
4480
5FE0
5000
5000
5000
5000
6000
ENDCHAR
STARTCHAR bm_0x4FE9
ENCODING 20457
SWIDTH 461 0
DWIDTH 12 0
BBX 12 12 0 0
BITMAP
2000
3FE0
4500
4500
DFC0
5540
5540
5540
5AC0
5040
5040
50C0
ENDCHAR
STARTCHAR bm_0x4FEA
ENCODING 20458
SWIDTH 461 0
DWIDTH 12 0
BBX 12 12 0 0
BITMAP
1000
1FE0
2000
2EE0
6AA0
AAA0
2AA0
2EE0
2AA0
2AA0
2AA0
2AA0
ENDCHAR
STARTCHAR bm_0x4FEB
ENCODING 20459
SWIDTH 461 0
DWIDTH 12 0
BBX 12 12 0 0
BITMAP
1100
1100
2FE0
2100
6540
A380
2FE0
2100
2380
2540
2920
2100
ENDCHAR
STARTCHAR bm_0x4FEC
ENCODING 20460
SWIDTH 461 0
DWIDTH 12 0
BBX 12 12 0 0
BITMAP
1240
1C40
2440
2440
7F40
A480
2E80
2D80
34A0
2520
25E0
2420
ENDCHAR
STARTCHAR bm_0x4FED
ENCODING 20461
SWIDTH 461 0
DWIDTH 12 0
BBX 12 12 0 0
BITMAP
1100
1100
2280
2440
6820
A7C0
2000
2240
2940
2540
2480
2FE0
ENDCHAR
STARTCHAR bm_0x4FEE
ENCODING 20462
SWIDTH 461 0
DWIDTH 12 0
BBX 12 12 0 0
BITMAP
2200
23C0
4440
5380
DC60
5080
5100
5640
5180
5620
40C0
4F00
ENDCHAR
STARTCHAR bm_0x4FEF
ENCODING 20463
SWIDTH 461 0
DWIDTH 12 0
BBX 12 12 0 0
BITMAP
2200
2100
5FE0
5000
D240
5440
5DE0
5440
5540
54C0
5440
64C0
ENDCHAR
STARTCHAR bm_0x4FF0
ENCODING 20464
SWIDTH 461 0
DWIDTH 12 0
BBX 12 12 0 0
BITMAP
2200
2C00
44E0
44A0
DEA0
44A0
4EA0
4DA0
54A0
44E0
44A0
4400
ENDCHAR
STARTCHAR bm_0x4FF1
ENCODING 20465
SWIDTH 461 0
DWIDTH 12 0
BBX 12 12 0 0
BITMAP
2FC0
2840
4FC0
4840
CFC0
4840
4FC0
4840
5FE0
4000
4480
4840
ENDCHAR
STARTCHAR bm_0x4FF2
ENCODING 20466
SWIDTH 461 0
DWIDTH 12 0
BBX 12 12 0 0
BITMAP
2880
2480
5E80
41E0
D4A0
62A0
44A0
54A0
48A0
54A0
6520
4260
ENDCHAR
STARTCHAR bm_0x4FF3
ENCODING 20467
SWIDTH 461 0
DWIDTH 12 0
BBX 12 12 0 0
BITMAP
2480
2480
5CE0
4480
C480
5CE0
4480
4480
5CE0
4480
4480
4480
ENDCHAR
STARTCHAR bm_0x4FF4
ENCODING 20468
SWIDTH 461 0
DWIDTH 12 0
BBX 12 12 0 0
BITMAP
1280
13E0
2E80
2120
62A0
AC60
2280
23E0
2E80
2120
22A0
2C60
ENDCHAR
STARTCHAR bm_0x4FF5
ENCODING 20469
SWIDTH 461 0
DWIDTH 12 0
BBX 12 12 0 0
BITMAP
1100
1100
2FE0
2100
67C0
A100
2FE0
2280
26A0
2A40
2340
2220
ENDCHAR
STARTCHAR bm_0x4FF6
ENCODING 20470
SWIDTH 461 0
DWIDTH 12 0
BBX 12 12 0 0
BITMAP
2800
2BC0
4D40
4940
DF40
4140
4940
4940
5C80
6A80
4940
5A20
ENDCHAR
STARTCHAR bm_0x4FF7
ENCODING 20471
SWIDTH 461 0
DWIDTH 12 0
BBX 12 12 0 0
BITMAP
2000
3DE0
5520
55A0
DD60
5520
55E0
5D00
5500
5520
5520
6CE0
ENDCHAR
STARTCHAR bm_0x4FF8
ENCODING 20472
SWIDTH 461 0
DWIDTH 12 0
BBX 12 12 0 0
BITMAP
2200
3FE0
4200
5FC0
C400
7FE0
4880
5240
6FA0
4200
5FC0
4200
ENDCHAR
STARTCHAR bm_0x4FF9
ENCODING 20473
SWIDTH 461 0
DWIDTH 12 0
BBX 12 12 0 0
BITMAP
1000
1FE0
2280
2280
6EE0
A820
2820
2820
2EE0
2280
2280
2FE0
ENDCHAR
STARTCHAR bm_0x4FFA
ENCODING 20474
SWIDTH 461 0
DWIDTH 12 0
BBX 12 12 0 0
BITMAP
2200
3FC0
4500
4880
D260
6F80
4A80
4F80
4A80
4FA0
4A20
41E0
ENDCHAR
STARTCHAR bm_0x4FFB
ENCODING 20475
SWIDTH 461 0
DWIDTH 12 0
BBX 12 12 0 0
BITMAP
1200
13C0
2440
2380
6C60
A000
27C0
2540
27C0
2540
27C0
2440
ENDCHAR
STARTCHAR bm_0x4FFC
ENCODING 20476
SWIDTH 461 0
DWIDTH 12 0
BBX 12 12 0 0
BITMAP
1200
1FE0
2840
2FE0
6020
AFC0
2840
2FC0
2840
2FC0
2840
28C0
ENDCHAR
STARTCHAR bm_0x4FFD
ENCODING 20477
SWIDTH 461 0
DWIDTH 12 0
BBX 12 12 0 0
BITMAP
2280
3C80
50E0
5120
DE20
5480
5480
5480
5480
5540
6540
4220
ENDCHAR
STARTCHAR bm_0x4FFE
ENCODING 20478
SWIDTH 461 0
DWIDTH 12 0
BBX 12 12 0 0
BITMAP
1200
1400
2FC0
2940
6FC0
AA40
2FC0
2400
2900
3FE0
2100
2100
ENDCHAR
STARTCHAR bm_0x4FFF
ENCODING 20479
SWIDTH 461 0
DWIDTH 12 0
BBX 12 12 0 0
BITMAP
1100
11C0
2100
2FE0
6920
A9C0
2F20
28E0
2B80
2A80
2AA0
3460
ENDCHAR
STARTCHAR bm_0x5000
ENCODING 20480
SWIDTH 461 0
DWIDTH 12 0
BBX 12 12 0 0
BITMAP
17C0
1400
2780
2400
6780
A400
3FE0
2900
2940
2880
2A40
2C20
ENDCHAR
STARTCHAR bm_0x5001
ENCODING 20481
SWIDTH 461 0
DWIDTH 12 0
BBX 12 12 0 0
BITMAP
2800
28E0
4EA0
54A0
C4A0
44A0
5FA0
44A0
44A0
4AE0
4AA0
5000
ENDCHAR
STARTCHAR bm_0x5002
ENCODING 20482
SWIDTH 461 0
DWIDTH 12 0
BBX 10 12 0 0
BITMAP
2440
2880
4000
5DC0
C880
4880
4880
7DC0
4880
4880
4880
5080
ENDCHAR
STARTCHAR bm_0x5003
ENCODING 20483
SWIDTH 461 0
DWIDTH 12 0
BBX 12 12 0 0
BITMAP
2880
2E80
52C0
4AA0
C480
4BE0
5000
4FC0
4840
4840
4FC0
4840
ENDCHAR
STARTCHAR bm_0x5004
ENCODING 20484
SWIDTH 461 0
DWIDTH 12 0
BBX 12 12 0 0
BITMAP
2840
2780
4A40
5FE0
C400
4FC0
5840
6FC0
4840
4FC0
4840
48C0
ENDCHAR
STARTCHAR bm_0x5005
ENCODING 20485
SWIDTH 461 0
DWIDTH 12 0
BBX 12 12 0 0
BITMAP
1200
1100
2FE0
2440
6440
AAA0
2000
2100
2FE0
2100
2100
2100
ENDCHAR
STARTCHAR bm_0x5006
ENCODING 20486
SWIDTH 461 0
DWIDTH 12 0
BBX 12 12 0 0
BITMAP
1000
1FE0
2100
2100
6FE0
A920
2DA0
2B60
2DA0
2920
2920
2960
ENDCHAR
STARTCHAR bm_0x5007
ENCODING 20487
SWIDTH 461 0
DWIDTH 12 0
BBX 12 12 0 0
BITMAP
2200
3FE0
5020
4800
CEE0
52A0
52A0
6AE0
4480
44A0
48A0
5060
ENDCHAR
STARTCHAR bm_0x5008
ENCODING 20488
SWIDTH 461 0
DWIDTH 12 0
BBX 12 12 0 0
BITMAP
1100
1100
2FE0
2100
6540
A540
2BA0
2100
2380
2540
2920
2100
ENDCHAR
STARTCHAR bm_0x5009
ENCODING 20489
SWIDTH 461 0
DWIDTH 12 0
BBX 12 12 0 0
BITMAP
0400
1B00
E4E0
3F80
2080
3F80
2080
3F80
2000
5FC0
5040
9FC0
ENDCHAR
STARTCHAR bm_0x500A
ENCODING 20490
SWIDTH 461 0
DWIDTH 12 0
BBX 12 12 0 0
BITMAP
1280
1280
2440
2920
6200
A440
27E0
2220
2940
2A20
32A0
2180
ENDCHAR
STARTCHAR bm_0x500B
ENCODING 20491
SWIDTH 461 0
DWIDTH 12 0
BBX 12 12 0 0
BITMAP
1000
1FE0
2920
2920
6BA0
A920
2BA0
2AA0
2BA0
2820
2FE0
2820
ENDCHAR
STARTCHAR bm_0x500C
ENCODING 20492
SWIDTH 461 0
DWIDTH 12 0
BBX 12 12 0 0
BITMAP
2200
2100
5FE0
5020
CFC0
4840
4FC0
4800
4FE0
4820
4FE0
4820
ENDCHAR
STARTCHAR bm_0x500D
ENCODING 20493
SWIDTH 461 0
DWIDTH 12 0
BBX 12 12 0 0
BITMAP
2100
2FC0
4000
4840
C480
5FE0
4000
4FC0
4840
4840
4FC0
4840
ENDCHAR
STARTCHAR bm_0x500E
ENCODING 20494
SWIDTH 461 0
DWIDTH 12 0
BBX 12 12 0 0
BITMAP
2500
2500
5FC0
5540
D540
5FC0
5540
5540
7FE0
4000
4880
5040
ENDCHAR
STARTCHAR bm_0x500F
ENCODING 20495
SWIDTH 461 0
DWIDTH 12 0
BBX 12 12 0 0
BITMAP
2200
23C0
4440
5380
DC60
5100
5140
57E0
5100
5280
4440
4820
ENDCHAR
STARTCHAR bm_0x5010
ENCODING 20496
SWIDTH 461 0
DWIDTH 12 0
BBX 12 12 0 0
BITMAP
2200
23C0
4440
5380
DC60
5100
5520
5540
5900
5280
4440
4820
ENDCHAR
STARTCHAR bm_0x5011
ENCODING 20497
SWIDTH 461 0
DWIDTH 12 0
BBX 12 12 0 0
BITMAP
2EE0
2AA0
4AA0
4EE0
CAA0
4AA0
4EE0
4820
4820
4820
4820
4860
ENDCHAR
STARTCHAR bm_0x5012
ENCODING 20498
SWIDTH 461 0
DWIDTH 12 0
BBX 12 12 0 0
BITMAP
2020
3E20
48A0
52A0
DEA0
4AA0
48A0
5EA0
48A0
4E20
5820
4060
ENDCHAR
STARTCHAR bm_0x5013
ENCODING 20499
SWIDTH 461 0
DWIDTH 12 0
BBX 12 12 0 0
BITMAP
1100
1520
2540
2900
62C0
AC20
2100
2520
2940
2280
2440
2820
ENDCHAR
STARTCHAR bm_0x5014
ENCODING 20500
SWIDTH 461 0
DWIDTH 12 0
BBX 12 12 0 0
BITMAP
2000
3FE0
5020
5FE0
D100
5540
5540
57C0
5100
5920
6920
4FE0
ENDCHAR
STARTCHAR bm_0x5015
ENCODING 20501
SWIDTH 461 0
DWIDTH 12 0
BBX 12 12 0 0
BITMAP
2180
2E00
4200
5FC0
CA80
4A80
7FE0
4A80
4A80
5FC0
4200
4F80
ENDCHAR
STARTCHAR bm_0x5016
ENCODING 20502
SWIDTH 461 0
DWIDTH 12 0
BBX 12 12 0 0
BITMAP
1100
17C0
2100
2FE0
6440
A280
27C0
2100
2FE0
2100
2100
2100
ENDCHAR
STARTCHAR bm_0x5017
ENCODING 20503
SWIDTH 461 0
DWIDTH 12 0
BBX 12 12 0 0
BITMAP
2000
2EE0
4AA0
4AA0
CEE0
4AA0
4AA0
4EE0
4AA0
4AA0
4AA0
5760
ENDCHAR
STARTCHAR bm_0x5018
ENCODING 20504
SWIDTH 461 0
DWIDTH 12 0
BBX 12 12 0 0
BITMAP
1100
1920
2540
2100
6FE0
A820
2BA0
2AA0
2AA0
2BA0
2820
2860
ENDCHAR
STARTCHAR bm_0x5019
ENCODING 20505
SWIDTH 461 0
DWIDTH 12 0
BBX 12 12 0 0
BITMAP
1000
13C0
2840
2FE0
6A00
ABC0
2C80
2880
2BE0
2880
2140
2620
ENDCHAR
STARTCHAR bm_0x501A
ENCODING 20506
SWIDTH 461 0
DWIDTH 12 0
BBX 12 12 0 0
BITMAP
2200
2FC0
4480
4840
DFE0
4040
4F40
4940
4940
4F40
4840
41C0
ENDCHAR
STARTCHAR bm_0x501B
ENCODING 20507
SWIDTH 461 0
DWIDTH 12 0
BBX 12 12 0 0
BITMAP
1440
1440
2FE0
2440
67C0
A440
27C0
2440
2FE0
2000
2440
2820
ENDCHAR
STARTCHAR bm_0x501C
ENCODING 20508
SWIDTH 461 0
DWIDTH 12 0
BBX 12 12 0 0
BITMAP
2FE0
2820
4920
4BA0
C920
4FE0
4820
4BA0
4AA0
4BA0
4820
50E0
ENDCHAR
STARTCHAR bm_0x501D
ENCODING 20509
SWIDTH 461 0
DWIDTH 12 0
BBX 12 12 0 0
BITMAP
2100
F900
2100
F900
8900
F900
8A80
FA80
2280
FC40
2440
2820
ENDCHAR
STARTCHAR bm_0x501E
ENCODING 20510
SWIDTH 461 0
DWIDTH 12 0
BBX 12 12 0 0
BITMAP
1200
1100
2FE0
2000
67C0
A440
2440
27C0
2100
2540
2920
2300
ENDCHAR
STARTCHAR bm_0x501F
ENCODING 20511
SWIDTH 461 0
DWIDTH 12 0
BBX 12 12 0 0
BITMAP
2480
2480
4FC0
4480
DFE0
4000
4FC0
4840
4FC0
4840
4FC0
4840
ENDCHAR
STARTCHAR bm_0x5020
ENCODING 20512
SWIDTH 461 0
DWIDTH 12 0
BBX 12 12 0 0
BITMAP
1280
1240
27E0
2480
6C80
B7E0
2480
2480
27E0
2480
2480
27E0
ENDCHAR
STARTCHAR bm_0x5021
ENCODING 20513
SWIDTH 461 0
DWIDTH 12 0
BBX 12 12 0 0
BITMAP
17C0
1440
27C0
2440
67C0
A000
2FE0
2820
2FE0
2820
2FE0
2820
ENDCHAR
STARTCHAR bm_0x5022
ENCODING 20514
SWIDTH 461 0
DWIDTH 12 0
BBX 12 12 0 0
BITMAP
2200
2FE0
4200
4FC0
C240
5FE0
4240
4FC0
4200
4BC0
4A00
57E0
ENDCHAR
STARTCHAR bm_0x5023
ENCODING 20515
SWIDTH 461 0
DWIDTH 12 0
BBX 12 12 0 0
BITMAP
2880
2480
4100
7DE0
D240
5D40
5540
5540
5480
5480
6D40
4220
ENDCHAR
STARTCHAR bm_0x5024
ENCODING 20516
SWIDTH 461 0
DWIDTH 12 0
BBX 12 12 0 0
BITMAP
2100
2FE0
4100
47C0
D440
57C0
5440
57C0
5440
57C0
5000
5FE0
ENDCHAR
STARTCHAR bm_0x5025
ENCODING 20517
SWIDTH 461 0
DWIDTH 12 0
BBX 12 12 0 0
BITMAP
1200
1100
2FE0
2820
6280
A440
2820
27C0
2100
2100
2100
2FE0
ENDCHAR
STARTCHAR bm_0x5026
ENCODING 20518
SWIDTH 461 0
DWIDTH 12 0
BBX 12 12 0 0
BITMAP
3240
2A80
5FC0
4400
FFE0
4880
5040
6FA0
4880
4980
4840
47C0
ENDCHAR
STARTCHAR bm_0x5027
ENCODING 20519
SWIDTH 461 0
DWIDTH 12 0
BBX 12 12 0 0
BITMAP
1100
1FE0
2820
2000
67C0
A000
2000
2FE0
2100
2540
2920
2300
ENDCHAR
STARTCHAR bm_0x5028
ENCODING 20520
SWIDTH 461 0
DWIDTH 12 0
BBX 12 12 0 0
BITMAP
2000
2FE0
4820
4FE0
C900
4FE0
4900
4FE0
4C20
5420
57E0
6420
ENDCHAR
STARTCHAR bm_0x5029
ENCODING 20521
SWIDTH 461 0
DWIDTH 12 0
BBX 12 12 0 0
BITMAP
2200
3FE0
4200
4FC0
C200
5FE0
4840
4FC0
4840
4FC0
4840
48C0
ENDCHAR
STARTCHAR bm_0x502A
ENCODING 20522
SWIDTH 461 0
DWIDTH 12 0
BBX 12 12 0 0
BITMAP
2200
2CC0
4840
4840
CDC0
4840
4840
4FC0
4480
4480
48A0
5060
ENDCHAR
STARTCHAR bm_0x502B
ENCODING 20523
SWIDTH 461 0
DWIDTH 12 0
BBX 12 12 0 0
BITMAP
1100
1280
2440
2BA0
6000
AFE0
2AA0
2AA0
2FE0
2AA0
2AA0
2860
ENDCHAR
STARTCHAR bm_0x502C
ENCODING 20524
SWIDTH 461 0
DWIDTH 12 0
BBX 12 12 0 0
BITMAP
2200
23E0
4200
5FC0
D040
5FC0
5040
5FC0
4200
7FE0
4200
4200
ENDCHAR
STARTCHAR bm_0x502D
ENCODING 20525
SWIDTH 461 0
DWIDTH 12 0
BBX 12 12 0 0
BITMAP
2180
2E00
4200
5FE0
CA80
5240
4200
5FE0
4480
4C80
4300
5CC0
ENDCHAR
STARTCHAR bm_0x502E
ENCODING 20526
SWIDTH 461 0
DWIDTH 12 0
BBX 12 12 0 0
BITMAP
2000
3FC0
5240
5FC0
D240
5FC0
4200
5FE0
4700
4A80
5260
4200
ENDCHAR
STARTCHAR bm_0x502F
ENCODING 20527
SWIDTH 461 0
DWIDTH 12 0
BBX 12 12 0 0
BITMAP
2940
2940
4940
5E20
CA20
4C80
5A80
6900
4940
4A20
4BE0
4820
ENDCHAR
STARTCHAR bm_0x5030
ENCODING 20528
SWIDTH 461 0
DWIDTH 12 0
BBX 12 12 0 0
BITMAP
1100
17C0
2100
2FE0
6440
AA20
23C0
2440
2A80
2100
2280
2C60
ENDCHAR
STARTCHAR bm_0x5031
ENCODING 20529
SWIDTH 461 0
DWIDTH 12 0
BBX 12 12 0 0
BITMAP
2FC0
2840
4FC0
4840
CFC0
4000
4880
48A0
4EC0
4880
4AA0
4C60
ENDCHAR
STARTCHAR bm_0x5032
ENCODING 20530
SWIDTH 461 0
DWIDTH 12 0
BBX 12 12 0 0
BITMAP
1100
1FE0
2100
2FE0
6920
AFE0
2920
2FE0
2380
2540
2920
2100
ENDCHAR
STARTCHAR bm_0x5033
ENCODING 20531
SWIDTH 461 0
DWIDTH 12 0
BBX 12 12 0 0
BITMAP
2200
3FC0
4A80
4F80
C200
5FC0
4240
7FE0
4240
5FC0
4200
4600
ENDCHAR
STARTCHAR bm_0x5034
ENCODING 20532
SWIDTH 461 0
DWIDTH 12 0
BBX 12 12 0 0
BITMAP
1100
1FE0
2280
2440
6920
A7C0
2100
2440
2FE0
2440
2840
3040
ENDCHAR
STARTCHAR bm_0x5035
ENCODING 20533
SWIDTH 461 0
DWIDTH 12 0
BBX 12 12 0 0
BITMAP
1080
16C0
20A0
2080
6FE0
A280
2280
2B80
2A80
2AA0
2B60
3C20
ENDCHAR
STARTCHAR bm_0x5036
ENCODING 20534
SWIDTH 461 0
DWIDTH 12 0
BBX 12 12 0 0
BITMAP
2FC0
2840
4FC0
4840
CFC0
4840
4FC0
4000
5FE0
4000
4480
4840
ENDCHAR
STARTCHAR bm_0x5037
ENCODING 20535
SWIDTH 461 0
DWIDTH 12 0
BBX 12 12 0 0
BITMAP
1100
1100
2FE0
2280
6440
ABA0
2000
2FE0
2100
2540
2920
2300
ENDCHAR
STARTCHAR bm_0x5038
ENCODING 20536
SWIDTH 461 0
DWIDTH 12 0
BBX 12 12 0 0
BITMAP
10E0
1F00
2220
2920
6440
A100
2FE0
2100
2380
2540
2920
2100
ENDCHAR
STARTCHAR bm_0x5039
ENCODING 20537
SWIDTH 461 0
DWIDTH 12 0
BBX 12 12 0 0
BITMAP
1100
1280
2440
2820
67C0
A100
2FE0
2920
2FE0
2280
2440
2820
ENDCHAR
STARTCHAR bm_0x503A
ENCODING 20538
SWIDTH 461 0
DWIDTH 12 0
BBX 12 12 0 0
BITMAP
1100
1FE0
2100
27C0
6100
AFE0
2000
2FE0
2920
2920
22C0
2C20
ENDCHAR
STARTCHAR bm_0x503B
ENCODING 20539
SWIDTH 461 0
DWIDTH 12 0
BBX 12 12 0 0
BITMAP
2000
3FE0
52A0
52A0
DEC0
52C0
5EA0
52A0
53A0
7EC0
4280
4280
ENDCHAR
STARTCHAR bm_0x503C
ENCODING 20540
SWIDTH 461 0
DWIDTH 12 0
BBX 12 12 0 0
BITMAP
2200
2FE0
4200
4FC0
C840
4FC0
4840
4FC0
4840
4FC0
4840
5FE0
ENDCHAR
STARTCHAR bm_0x503D
ENCODING 20541
SWIDTH 461 0
DWIDTH 12 0
BBX 12 12 0 0
BITMAP
1100
1280
2440
2BA0
6100
AFE0
2100
27C0
2440
2440
27C0
2440
ENDCHAR
STARTCHAR bm_0x503E
ENCODING 20542
SWIDTH 461 0
DWIDTH 12 0
BBX 12 12 0 0
BITMAP
2000
27E0
5080
5100
D3E0
5A20
52A0
52A0
52A0
5880
5140
4220
ENDCHAR
ENDFONT
